<svg width="77" height="83" viewBox="0 0 77 83" fill="none" xmlns="http://www.w3.org/2000/svg">
<circle cx="38.6133" cy="38.7959" r="38" fill="white"/>
<path d="M42.8086 38.7965C42.8083 40.8466 42.2547 42.8586 41.206 44.6201C40.1574 46.3817 38.6527 47.8276 36.8507 48.8051C35.0486 49.7826 33.0162 50.2556 30.9677 50.174C28.9193 50.0925 26.9308 49.4596 25.2122 48.3419L19.6797 50.183L21.6195 44.5924C20.728 43.0848 20.1963 41.3918 20.0658 39.6451C19.9352 37.8984 20.2093 36.1452 20.8667 34.5218C21.5242 32.8983 22.5472 31.4484 23.8563 30.2847C25.1654 29.1211 26.7253 28.2751 28.4147 27.8125C30.104 27.3499 31.8773 27.2833 33.5966 27.6177C35.3159 27.9522 36.9349 28.6787 38.3276 29.7408C39.7204 30.8029 40.8494 32.1719 41.6269 33.7415C42.4043 35.311 42.8092 37.0387 42.8102 38.7902L42.8086 38.7965Z" fill="#FECC90"/>
<path d="M34.4141 38.7965C34.4141 40.8468 34.9678 42.8591 36.0165 44.6209C37.0652 46.3827 38.5701 47.8287 40.3724 48.8063C42.1746 49.7839 44.2074 50.2568 46.2561 50.175C48.3048 50.0933 50.2934 49.46 52.012 48.3419L57.5445 50.183L55.6047 44.5924C56.4962 43.0848 57.0279 41.3918 57.1584 39.6451C57.289 37.8984 57.0149 36.1452 56.3575 34.5218C55.7 32.8983 54.677 31.4484 53.3679 30.2847C52.0588 29.1211 50.4989 28.2751 48.8096 27.8125C47.1202 27.3499 45.3469 27.2833 43.6276 27.6177C41.9083 27.9522 40.2893 28.6787 38.8966 29.7408C37.5038 30.8029 36.3748 32.1719 35.5974 33.7415C34.8199 35.311 34.415 37.0387 34.4141 38.7902V38.7965Z" fill="#5F2A5D"/>
<path d="M41.2059 44.62C42.2545 42.8584 42.8082 40.8464 42.8085 38.7963L42.81 38.7901C42.8091 37.0385 42.4042 35.3108 41.6267 33.7413C40.9029 32.2801 39.8744 30.9926 38.6121 29.9648C37.3497 30.9926 36.3212 32.2801 35.5974 33.7413C34.8199 35.3108 34.415 37.0385 34.4141 38.7901V38.7963C34.4141 40.8466 34.9678 42.8589 36.0165 44.6207C36.7014 45.7713 37.5808 46.7873 38.6106 47.626C39.6409 46.7871 40.5208 45.7709 41.2059 44.62Z" fill="#FF885E"/>
<path d="M32.2369 40.4693C33.1786 40.2481 33.7627 39.3053 33.5415 38.3635C33.3203 37.4218 32.3775 36.8377 31.4357 37.0589C30.4939 37.2801 29.9098 38.2229 30.1311 39.1647C30.3523 40.1065 31.2951 40.6906 32.2369 40.4693Z" fill="white"/>
<path d="M39.022 40.4684C39.9638 40.2471 40.5479 39.3043 40.3267 38.3625C40.1054 37.4208 39.1626 36.8367 38.2208 37.0579C37.2791 37.2791 36.695 38.222 36.9162 39.1637C37.1374 40.1055 38.0802 40.6896 39.022 40.4684Z" fill="white"/>
<path d="M26.6655 39.4393C27.0382 38.5466 26.6167 37.5207 25.7239 37.148C24.8312 36.7753 23.8054 37.1969 23.4327 38.0896C23.0599 38.9824 23.4815 40.0082 24.3742 40.3809C25.267 40.7536 26.2928 40.332 26.6655 39.4393Z" fill="white"/>
<path d="M46.8135 39.784C47.3767 38.9974 47.1955 37.9032 46.4089 37.3401C45.6223 36.7769 44.5281 36.9581 43.965 37.7447C43.4018 38.5313 43.583 39.6255 44.3696 40.1886C45.1562 40.7518 46.2504 40.5706 46.8135 39.784Z" fill="white"/>
<path d="M53.7944 39.4383C54.1671 38.5456 53.7456 37.5198 52.8528 37.1471C51.9601 36.7744 50.9343 37.1959 50.5616 38.0886C50.1889 38.9814 50.6104 40.0072 51.5031 40.3799C52.3959 40.7526 53.4217 40.3311 53.7944 39.4383Z" fill="white"/>
<path d="M39.1133 82.7959L33.6133 75.7959H44.6133L39.1133 82.7959Z" fill="#FECC90"/>
</svg>
