<svg width="70" height="90" viewBox="0 0 70 90" fill="none" xmlns="http://www.w3.org/2000/svg">
<rect width="70" height="70" rx="35" fill="#00E0D8"/>
<path d="M30 90V78.5432V58H62L30 90Z" fill="#00E0D8"/>
<path d="M34.7121 9C41.4602 9.11958 47.8911 11.8588 52.6206 16.6279C57.3501 21.3971 60 27.8149 60 34.5C60 41.1851 57.3501 47.6029 52.6206 52.3721C47.8911 57.1413 41.4602 59.8804 34.7121 60C33.2821 59.9997 31.8546 59.8823 30.4441 59.6491V59.6491C27.9943 59.1571 25.7911 57.8426 24.2068 55.9275C24.4787 56.0581 23.6135 54.0014 23.7866 54.2463C26.621 58.0903 31.2598 58.3269 34.6957 58.3269C39.4449 58.3285 44.0881 56.9355 48.0382 54.3238C51.9884 51.7121 55.0681 47.9991 56.8882 43.654C58.7083 39.309 59.1871 34.527 58.2639 29.9125C57.3408 25.298 55.0572 21.0582 51.7018 17.7289C48.3464 14.3997 44.0699 12.1305 39.4128 11.2082C34.7557 10.2859 29.9271 10.7519 25.5373 12.5473C21.1475 14.3427 17.3936 17.3869 14.7501 21.295C12.1067 25.2032 10.6923 29.7999 10.6857 34.5041C10.6857 42.3879 14.8797 48.7292 19.3043 54.9073C18.3153 54.1762 17.3817 53.3742 16.5111 52.5079C12.9209 48.9399 10.4779 44.3987 9.49023 39.457C8.50255 34.5154 9.01443 29.3948 10.9613 24.7409C12.9082 20.0871 16.2028 16.1086 20.4297 13.3072C24.6566 10.5059 29.6263 9.00711 34.7121 9" fill="white"/>
<path d="M30.3742 60C27.9949 59.7226 25.7775 58.6176 24.0859 56.8661C22.3942 55.1147 21.3288 52.8209 21.0645 50.3612C20.8002 47.9015 21.3527 45.422 22.6313 43.3296C23.9099 41.2372 25.8386 39.6561 28.101 38.8459C27.0525 36.364 27.2206 34.0558 29.5818 32.7073C31.4787 31.6236 32.7834 30.2254 32.9595 28L34 28.1075C33.7439 30.7053 32.2871 32.3847 30.07 33.6505C28.037 34.8252 28.2691 36.8356 29.2696 38.9286L29.5497 39.5078L28.9414 39.6898C26.82 40.3062 24.9722 41.6662 23.7148 43.5367C19.6087 51.5863 25.1315 57.8325 30.3101 60" fill="white"/>
<path d="M31.5231 26.8007L31.0257 25.8558C30.9454 25.6718 30.8812 25.4962 30.8251 25.3373C30.6613 25.2522 30.5155 25.134 30.3959 24.9896C30.2764 24.8452 30.1856 24.6774 30.1289 24.4961C30.0722 24.3148 30.0506 24.1235 30.0654 23.9334C30.0803 23.7433 30.1312 23.5582 30.2153 23.3889V23.3889C30.3918 22.77 31.0176 20.9805 30.4961 20.6042C30.3063 20.3787 30.1655 20.1132 30.0833 19.8257C30.001 19.5382 29.9794 19.2356 30.0198 18.9387C30.0601 18.6417 30.1616 18.3573 30.3172 18.1049C30.4728 17.8526 30.6789 17.6383 30.9213 17.4767L31.483 17C31.8715 18.3875 32.5604 19.6635 33.4967 20.7296C34.2482 21.5323 35.1683 22.142 36.1844 22.5108H36.2245C37.5341 23.0603 38.6531 24.0109 39.4337 25.2369C39.7402 25.8045 39.9274 26.4337 39.9827 27.0825C40.038 27.7313 39.9603 28.3849 39.7546 29C39.201 25.5714 38.2784 24.7101 35.7993 23.5059C34.6459 23.0835 33.6023 22.3879 32.7506 21.4739C32.087 20.7353 31.5448 19.8877 31.146 18.9652C31.0925 19.255 31.1501 19.5552 31.3065 19.8014C31.4267 19.8721 31.5307 19.9694 31.6111 20.0864C31.6914 20.2034 31.7463 20.3373 31.7718 20.4787C31.8425 20.843 31.8425 21.2183 31.7718 21.5826C31.6538 22.2914 31.4766 22.9881 31.2423 23.6648C31.1059 24.0662 31.0979 24.2418 31.4268 24.3672L31.7156 24.476C31.8466 25.0696 32.0745 25.6354 32.3895 26.1484C33.1918 27.2523 34.2188 27.8209 35.3981 27.2188C34.4675 28.7408 32.3254 28.3059 31.5471 26.7923" fill="white"/>
<path d="M37.8536 25.8199C37.093 27.675 37.0633 29.2458 37.7646 30.5323C38.2309 30.8614 38.73 31.139 39.2535 31.3605C39.8049 31.602 40.38 31.7824 40.9689 31.8988C42.0759 31.8827 43.147 32.3004 43.9628 33.0665C44.3248 33.4715 44.6025 33.9476 44.7791 34.4658C44.9558 34.984 45.0277 35.5336 44.9904 36.0811C44.9843 37.1334 44.8923 38.1833 44.7153 39.22V39.22C44.335 41.3732 44.0761 47.154 41.2278 45.7958C37.9426 44.1394 34.5684 43.775 31 43.7501C34.4309 41.8536 40.0465 44.0152 41.681 44.8268C42.9433 45.4148 43.4935 40.0896 43.6715 39.0295C43.8446 38.0538 43.9339 37.0645 43.9385 36.0729C43.9385 33.961 42.919 33.1245 40.9042 32.992C40.2032 32.8667 39.5189 32.6583 38.8651 32.3709C38.1661 32.0753 37.5164 31.6702 36.9393 31.17C36.0006 29.5136 36.2191 27.3852 37.1335 25.1491L37.7565 25L37.8536 25.8199Z" fill="white"/>
<path d="M39.5945 41.1739C39.5035 40.7083 39.5974 40.2267 39.8575 39.8243C40.1177 39.4219 40.5253 39.1278 41 39C40.0388 40.941 41.0889 41.0342 40.265 41.9348C39.4411 42.8354 32.567 37.1211 26 44C27.9305 40.3199 33.8595 38.014 39.5945 41.1739Z" fill="white"/>
<path d="M38.2251 41.2224C38.505 39.7488 39.0136 38.325 39.7334 37C39.3866 38.5043 39.1912 40.0379 39.1501 41.579L38.2251 41.2224ZM43 55C41.4192 53.6024 40.1575 51.8979 39.2963 49.9966C38.435 48.0953 37.9935 46.0394 38.0001 43.9617L39.2751 44.294C39.6156 48.0915 40.8934 51.753 43 54.9676V55Z" fill="white"/>
<path fill-rule="evenodd" clip-rule="evenodd" d="M30.1057 46C29.7454 45.9997 29.3924 46.1045 29.0874 46.3024C28.7824 46.5002 28.538 46.7829 28.3822 47.1179C28.1384 46.7979 27.8035 46.5644 27.4247 46.4502C27.0458 46.336 26.6417 46.3468 26.2691 46.481C25.8964 46.6152 25.5737 46.8661 25.3462 47.1987C25.1186 47.5313 24.9976 47.929 25 48.336C24.9994 48.5513 25.0322 48.7654 25.0971 48.97C25.6312 51.3477 28.3337 53.1414 30.7611 52.9912C30.3403 50.5635 32.2742 50.5385 31.9667 47.9856C31.9667 47.7292 31.9177 47.4753 31.8226 47.2385C31.7274 47.0016 31.588 46.7864 31.4121 46.6052C31.2363 46.4239 31.0276 46.2801 30.7979 46.182C30.5682 46.0839 30.322 46.0334 30.0733 46.0334" fill="#FFDFDB"/>
<path d="M27.1601 20.6656C27.3281 24.8922 29.5491 28.7652 26 33C26.9999 29.8835 26.5953 31.3554 26.9312 28.5432C27.4349 24.4317 24.5422 20.2298 27.496 15C27.0853 16.8513 26.9717 18.7648 27.1601 20.6574" fill="white"/>
<path d="M41.7378 32C41.272 30.271 41.0528 28.4836 41.0866 26.692C41.1353 24.7248 41.4017 22.7692 41.8807 20.862C41.9847 20.3235 41.9784 19.7693 41.8623 19.2334C41.7462 18.6975 41.5227 18.1914 41.2057 17.7462C38.029 12.928 33.2164 13.5705 30 14.2048C31.2491 13.459 32.6648 13.0457 34.1148 13.0036C35.5648 12.9614 37.0017 13.2919 38.2911 13.9639C40.8483 15.297 43.5882 17.8586 42.8893 21.0868C42.0316 24.7727 41.7775 28.1776 42.7384 31.7109L41.7378 32Z" fill="white"/>
</svg>
