<svg width="12" height="12" viewBox="0 0 12 12" fill="none" xmlns="http://www.w3.org/2000/svg">
<path d="M9.96313 0.920044L11.0248 0.920044C11.4743 0.920044 11.8378 1.2835 11.8354 1.73064L11.8378 11.025C11.8378 11.4745 11.4743 11.838 11.0272 11.8356L1.73045 11.8356C1.28092 11.8356 0.917465 11.4721 0.919856 11.025L0.919855 9.96331C0.919855 9.509 1.29526 9.14315 1.74958 9.15272L7.37592 9.28901L0.503799 2.41689C0.185778 2.09887 0.185778 1.58717 0.503799 1.26915L1.26896 0.503988C1.58698 0.185967 2.09869 0.185967 2.41671 0.503988L9.28882 7.37611L9.15253 1.74977C9.14058 1.29306 9.50642 0.917653 9.96313 0.920044Z" fill="#E62F43"/>
</svg>
