<svg width="76" height="82" viewBox="0 0 76 82" fill="none" xmlns="http://www.w3.org/2000/svg">
<circle cx="38" cy="38" r="38" fill="#E62F43"/>
<path d="M42.5054 36.8528L38.9863 30.7574L38.9862 30.7596C38.7067 30.2767 38.2294 30 37.6701 30C37.1108 30 36.6335 30.2767 36.3539 30.7596L29.1828 43.1766C28.8946 43.6736 28.9512 44.2719 29.324 44.7074C29.6968 45.1429 30.3351 45.3993 30.8124 45.083L33.9645 42.9931C34.7971 42.431 35.6472 41.8603 36.5049 41.2845C38.9963 39.6121 41.5528 37.896 43.9373 36.2173L42.5054 36.8528Z" fill="white"/>
<path d="M43.0983 37.8777L43.5025 37.0332L43.5053 37.0303L39.6613 40.7896C39.4975 40.9507 39.4213 41.154 39.4439 41.3828C39.4665 41.6115 39.5765 41.7979 39.7686 41.925L44.5274 45.0799C45.0048 45.399 45.6432 45.1421 46.0159 44.7042C46.3887 44.2663 46.4451 43.6705 46.1571 43.1735L43.0983 37.8777Z" fill="white"/>
<path d="M38.5 82L33 75H44L38.5 82Z" fill="#E62F43"/>
</svg>
