<svg width="58" height="63" viewBox="0 0 58 63" fill="none" xmlns="http://www.w3.org/2000/svg">
<path d="M58 29.0354C58 45.0713 45.0163 58.0709 29 58.0709C12.9837 58.0709 0 45.0713 0 29.0354C0 12.9996 12.9837 0 29 0C45.0163 0 58 12.9996 58 29.0354Z" fill="white"/>
<path fill-rule="evenodd" clip-rule="evenodd" d="M15.0837 45.9792C23.0387 53.632 35.9362 53.632 43.8912 45.9792L48.9749 50.8698C38.2123 61.2236 20.7626 61.2236 10 50.8698L15.0837 45.9792Z" fill="#1FE0B3"/>
<path d="M29 63L24 57.9939H34L29 63Z" fill="#1FE0B3"/>
<path fill-rule="evenodd" clip-rule="evenodd" d="M32.9481 32.5305C34.2905 30.6648 35.2083 28.6143 35.2083 26.5388C35.2083 22.8294 32.2049 19.8223 28.5 19.8223C24.7951 19.8223 21.7917 22.8294 21.7917 26.5388C21.7917 28.6143 22.7095 30.6648 24.0519 32.5305C25.3842 34.382 27.0223 35.8943 28.1904 36.8521C28.3819 37.0091 28.6181 37.0091 28.8096 36.8521C29.9777 35.8943 31.6158 34.382 32.9481 32.5305ZM30.0241 38.3366C32.5007 36.3057 37.125 31.8081 37.125 26.5388C37.125 21.7696 33.2635 17.9033 28.5 17.9033C23.7365 17.9033 19.875 21.7696 19.875 26.5388C19.875 31.8081 24.4993 36.3057 26.9759 38.3366C27.8738 39.0729 29.1262 39.0729 30.0241 38.3366Z" fill="#1FE0B3"/>
<path d="M30.4167 26.0591C30.4167 27.1189 29.5585 27.9781 28.5 27.9781C27.4415 27.9781 26.5833 27.1189 26.5833 26.0591C26.5833 24.9992 27.4415 24.1401 28.5 24.1401C29.5585 24.1401 30.4167 24.9992 30.4167 26.0591Z" fill="#1FE0B3"/>
</svg>
