<svg width="103" height="103" viewBox="0 0 103 103" fill="none" xmlns="http://www.w3.org/2000/svg">
<path d="M16.0938 78.8601V56.8424C16.0938 54.4984 17.1457 52.549 18.7124 51.2633L15.5896 48.9231C14.3651 48.0118 13.0086 47.558 11.668 47.4873C7.77811 47.2826 4.02344 50.3036 4.02344 54.7328V78.8601C4.02344 89.9704 13.0301 98.9773 24.1406 98.9773H36.2109C25.1004 98.9773 16.0938 89.9704 16.0938 78.8601Z" fill="#EBDFD9"/>
<path d="M78.8594 103H24.1406C10.8295 103 0 92.1705 0 78.8594V54.7318C0 51.604 1.2356 48.7091 3.47927 46.5805C5.73521 44.4403 8.80067 43.3059 11.8796 43.4684C14.0772 43.5841 16.1907 44.354 17.992 45.6944L41.713 63.4711C41.722 63.478 41.7311 63.4848 41.7401 63.4917C47.4864 67.8746 55.5138 67.8746 61.2601 63.4917C61.2691 63.4848 61.2782 63.478 61.2872 63.4711L84.9975 45.7024C86.8095 44.354 88.923 43.5841 91.1206 43.4684C94.1993 43.3041 97.265 44.4403 99.5209 46.5805C101.764 48.7091 103 51.604 103 54.7318V78.8594C103 92.1705 92.1705 103 78.8594 103ZM11.2984 51.5C10.4728 51.5 9.6303 51.8368 9.01753 52.4181C8.57475 52.8382 8.04688 53.5805 8.04688 54.7316V78.8594C8.04688 87.7335 15.2665 94.9531 24.1406 94.9531H78.8594C87.7335 94.9531 94.9531 87.7335 94.9531 78.8594V54.7318C94.9531 53.5807 94.4252 52.8384 93.9825 52.4184C93.3307 51.7999 92.4236 51.4598 91.5437 51.5042C90.9271 51.5368 90.3445 51.7539 89.8128 52.1498L66.1266 69.9004C57.5124 76.4602 45.488 76.4602 36.8738 69.9004L13.1768 52.1417C12.6555 51.7539 12.0731 51.5366 11.4563 51.5042C11.404 51.5014 11.3511 51.5 11.2984 51.5V51.5ZM93.3438 31.584V24.1406C93.3438 10.8295 82.5143 0 69.2031 0H34.1992C20.8881 0 10.0586 10.8295 10.0586 24.1406V31.584C10.0586 33.8061 11.8599 35.6074 14.082 35.6074C16.3042 35.6074 18.1055 33.8061 18.1055 31.584V24.1406C18.1055 15.2665 25.3251 8.04688 34.1992 8.04688H69.2031C78.0772 8.04688 85.2969 15.2665 85.2969 24.1406V31.584C85.2969 33.8061 87.0982 35.6074 89.3203 35.6074C91.5425 35.6074 93.3438 33.8061 93.3438 31.584Z" fill="#04063E"/>
<path d="M62.363 42.8486C62.363 37.2082 57.6354 32.79 51.6003 32.79C49.6507 32.79 48.1803 31.9252 48.1803 30.7783C48.1803 29.6691 49.0828 28.7666 50.1921 28.7666C51.6212 28.7666 53.3595 28.9283 56.3783 30.1024C58.4486 30.9077 60.781 29.8819 61.5864 27.8108C62.3919 25.7398 61.366 23.408 59.2949 22.6027C58.0056 22.1014 56.8587 21.7326 55.8249 21.46V20.7197C55.8249 18.4976 54.0236 16.6963 51.8014 16.6963C49.5793 16.6963 47.778 18.4976 47.778 20.7197V21.0146C43.3941 22.099 40.1335 26.0643 40.1335 30.7783C40.1335 36.5127 45.0632 40.8369 51.6003 40.8369C53.1231 40.8369 54.3161 41.7207 54.3161 42.8486C54.3161 43.9579 53.4136 44.8604 52.3044 44.8604C51.4635 44.8604 48.5913 44.5862 45.442 43.3345C43.3776 42.5139 41.0377 43.5224 40.2167 45.5872C39.396 47.6522 40.4046 49.9914 42.4695 50.8122C44.3108 51.5441 46.138 52.0502 47.778 52.3828V52.9072C47.778 55.1294 49.5793 56.9307 51.8014 56.9307C54.0236 56.9307 55.8249 55.1294 55.8249 52.9072V52.2699C59.6397 50.8398 62.363 47.1567 62.363 42.8486V42.8486Z" fill="#FF0054"/>
</svg>
