<svg width="103" height="103" viewBox="0 0 103 103" fill="none" xmlns="http://www.w3.org/2000/svg">
<path d="M23.3408 94.2679C23.3408 77.251 16.0938 68.3994 16.0938 68.3994V51.4294C16.0938 45.4743 19.8633 40.3997 25.1465 38.4614C23.6636 37.9175 22.0615 37.6201 20.39 37.6201H17.8327C10.2061 37.6201 4.02344 43.8027 4.02344 51.4294V68.3994C4.02344 68.3994 11.2705 77.251 11.2705 94.2679C11.2705 96.9413 13.7274 98.9775 16.4007 98.9775H21.8219C23.0479 98.9775 24.2275 98.5484 25.1465 97.8268C24.0618 96.9751 23.3408 95.7153 23.3408 94.2679V94.2679Z" fill="#EBDFD9"/>
<path d="M21.8219 103H16.4007C11.3833 103 7.27639 98.9305 7.24601 93.9282C7.15649 79.2042 1.15412 71.2631 0.901049 70.9362C0.29693 70.2132 0 69.3415 0 68.3984V51.4284C0 41.5955 7.9998 33.5957 17.8327 33.5957H52.3047C54.5268 33.5957 56.3281 35.397 56.3281 37.6191C56.3281 39.8413 54.5268 41.6426 52.3047 41.6426H17.8327C12.4368 41.6426 8.04688 46.0326 8.04688 51.4284V67.1105C10.1644 70.287 15.2044 79.3619 15.2927 93.8793C15.2963 94.4514 15.8139 94.9531 16.4007 94.9531H21.8219C22.4087 94.9531 22.9266 94.4512 22.93 93.8791C23.0181 79.3619 28.0582 70.287 30.1758 67.1105V53.7129C30.1758 51.4907 31.9771 49.6895 34.1992 49.6895C36.4214 49.6895 38.2227 51.4907 38.2227 53.7129V68.3984C38.2227 69.3415 37.9257 70.2132 37.3216 70.9362C37.0685 71.2631 31.0662 79.2042 30.9766 93.9282C30.9463 98.9305 26.8395 103 21.8219 103V103ZM32.5898 13.6797C32.5898 6.13675 26.4531 0 18.9102 0C11.3672 0 5.23047 6.13675 5.23047 13.6797C5.23047 21.2226 11.3672 27.3594 18.9102 27.3594C26.4531 27.3594 32.5898 21.2226 32.5898 13.6797ZM24.543 13.6797C24.543 16.7856 22.016 19.3125 18.9102 19.3125C15.8043 19.3125 13.2773 16.7856 13.2773 13.6797C13.2773 10.5738 15.8043 8.04688 18.9102 8.04688C22.016 8.04688 24.543 10.5738 24.543 13.6797ZM103 56.7305V24.1406C103 10.8295 92.1705 0 78.8594 0H72.4219C66.3948 0 60.6233 2.23361 56.1704 6.28944C51.7486 10.3169 48.9892 15.801 48.4001 21.7314C48.1807 23.9427 49.7953 25.9131 52.0063 26.1326C54.2178 26.3515 56.1881 24.7375 56.4076 22.5264C57.2274 14.2717 64.1119 8.04688 72.4219 8.04688H78.8594C87.7335 8.04688 94.9531 15.2665 94.9531 24.1406V56.7305C94.9531 65.6046 87.7335 72.8242 78.8594 72.8242H72.4219C63.5478 72.8242 56.3281 65.6046 56.3281 56.7305V53.7129C56.3281 51.4907 54.5268 49.6895 52.3047 49.6895C50.0825 49.6895 48.2812 51.4907 48.2812 53.7129V56.7305C48.2812 70.0416 59.1107 80.8711 72.4219 80.8711H78.8594C92.1705 80.8711 103 70.0416 103 56.7305Z" fill="#04063E"/>
<path d="M63.3687 29.5713C63.3687 27.3491 65.1699 25.5479 67.3921 25.5479H83.8882C86.1103 25.5479 87.9116 27.3491 87.9116 29.5713C87.9116 31.7934 86.1103 33.5947 83.8882 33.5947H67.3921C65.1699 33.5947 63.3687 31.7934 63.3687 29.5713ZM67.3921 49.6885H75.8413C78.0635 49.6885 79.8647 47.8872 79.8647 45.665C79.8647 43.4429 78.0635 41.6416 75.8413 41.6416H67.3921C65.1699 41.6416 63.3687 43.4429 63.3687 45.665C63.3687 47.8872 65.1699 49.6885 67.3921 49.6885ZM93.7456 94.9521H79.4624V90.9287C79.4624 88.7066 77.6611 86.9053 75.439 86.9053C73.2168 86.9053 71.4155 88.7066 71.4155 90.9287V94.9521H57.7358C55.5137 94.9521 53.7124 96.7534 53.7124 98.9756C53.7124 101.198 55.5137 102.999 57.7358 102.999H93.7456C95.9677 102.999 97.769 101.198 97.769 98.9756C97.769 96.7534 95.9677 94.9521 93.7456 94.9521Z" fill="#FF0054"/>
</svg>
