<svg width="103" height="103" viewBox="0 0 103 103" fill="none" xmlns="http://www.w3.org/2000/svg">
<path d="M16.4956 59.9575V26.9488C16.4956 15.8429 25.4767 6.83984 36.5557 6.83984H24.3413C13.2308 6.83984 4.22412 15.8465 4.22412 26.957V59.9492C4.22412 71.0595 13.2308 80.0664 24.3413 80.0664H36.5557C25.4767 80.0664 16.4956 71.0634 16.4956 59.9575V59.9575Z" fill="#EBDFD9"/>
<path d="M78.8594 84.0908H24.1364C10.8277 84.0908 0 73.2634 0 59.9544V26.958C0 13.6469 10.8295 2.81738 24.1406 2.81738H63.9727C66.1948 2.81738 67.9961 4.61868 67.9961 6.84082C67.9961 9.06297 66.1948 10.8643 63.9727 10.8643H24.1406C15.2665 10.8643 8.04688 18.0839 8.04688 26.958V59.9544C8.04688 68.8261 15.2647 76.044 24.1364 76.044H78.8594C87.7335 76.044 94.9531 68.8243 94.9531 59.9502V41.8447C94.9531 39.6226 96.7544 37.8213 98.9766 37.8213C101.199 37.8213 103 39.6226 103 41.8447V59.9502C103 73.2613 92.1705 84.0908 78.8594 84.0908ZM74.8359 96.1611C74.8359 93.939 73.0346 92.1377 70.8125 92.1377H32.1875C29.9654 92.1377 28.1641 93.939 28.1641 96.1611C28.1641 98.3833 29.9654 100.185 32.1875 100.185H70.8125C73.0346 100.185 74.8359 98.3833 74.8359 96.1611Z" fill="#04063E"/>
<path d="M98.9762 29.7744C96.754 29.7744 94.9528 27.9731 94.9528 25.751V15.1245C94.9528 12.7754 93.0416 10.8643 90.6927 10.8643H80.066C77.8439 10.8643 76.0426 9.06296 76.0426 6.84082C76.0426 4.61868 77.8439 2.81738 80.066 2.81738H90.6927C97.4789 2.81738 103 8.33814 103 15.1245V25.751C103 27.9731 101.198 29.7744 98.9762 29.7744ZM89.0091 23.2973C90.5437 21.6903 90.4849 19.1435 88.878 17.6089C87.271 16.0744 84.7242 16.1329 83.1894 17.7399C73.4248 27.9653 60.4558 33.5967 46.6715 33.5967H44.2935C42.0713 33.5967 40.27 35.398 40.27 37.6201C40.27 39.8423 42.0713 41.6436 44.2935 41.6436H46.6715C62.6755 41.6436 77.7113 35.128 89.0091 23.2973V23.2973Z" fill="#FF0054"/>
</svg>
