<svg width="103" height="103" viewBox="0 0 103 103" fill="none" xmlns="http://www.w3.org/2000/svg">
<path d="M57.7188 73.7778C55.7486 74.3344 53.6662 74.6338 51.5 74.6338C38.723 74.6338 28.3652 64.276 28.3652 51.499C28.3652 38.722 38.723 28.3643 51.5 28.3643C53.6662 28.3643 55.7486 28.6636 57.7188 29.2202C47.9803 31.9485 40.8379 40.8892 40.8379 51.499C40.8379 62.1088 47.9803 71.0497 57.7188 73.7778ZM16.0938 51.499C16.0938 27.323 34.1642 7.36755 57.5352 4.40268C55.5588 4.15181 53.5445 4.02246 51.5 4.02246C25.2795 4.02246 4.02344 25.2785 4.02344 51.499C4.02344 77.7196 25.2795 98.9756 51.5 98.9756C53.5445 98.9756 55.5588 98.8462 57.5352 98.5956C34.1642 95.6305 16.0938 75.675 16.0938 51.499Z" fill="#EBDFD9"/>
<path d="M51.5 103C37.7439 103 24.8111 97.643 15.0839 87.9161C5.35701 78.1891 0 65.2561 0 51.5C0 37.7439 5.35701 24.8111 15.0839 15.0839C24.8111 5.35701 37.7439 0 51.5 0C68.0611 0 83.7199 7.99356 93.3872 21.383C94.6878 23.1847 94.2818 25.6995 92.4801 27.0003C90.6788 28.3011 88.1638 27.8949 86.8628 26.0934C78.7043 14.7934 65.4845 8.04688 51.5 8.04688C27.5398 8.04688 8.04688 27.54 8.04688 51.5C8.04688 75.46 27.5398 94.9531 51.5 94.9531C65.4845 94.9531 78.7043 88.2066 86.8628 76.9064C88.1638 75.1049 90.6788 74.6987 92.4801 75.9995C94.2818 77.3003 94.6878 79.8151 93.3872 81.6168C83.7199 95.0064 68.0611 103 51.5 103V103ZM70.8861 70.3931C72.4321 68.797 72.3913 66.2497 70.7954 64.7037C69.1989 63.1577 66.6521 63.1985 65.1061 64.7946C61.4729 68.5455 56.6409 70.6113 51.5 70.6113C40.962 70.6113 32.3887 62.038 32.3887 51.5C32.3887 40.962 40.962 32.3887 51.5 32.3887C56.6409 32.3887 61.4729 34.4545 65.1061 38.2056C66.6521 39.8017 69.1993 39.8423 70.7954 38.2965C72.3915 36.7505 72.4321 34.2032 70.8861 32.6071C65.7237 27.2771 58.8387 24.3418 51.5 24.3418C36.525 24.3418 24.3418 36.525 24.3418 51.5C24.3418 66.475 36.525 78.6582 51.5 78.6582C58.839 78.6582 65.7239 75.7229 70.8861 70.3931Z" fill="#04063E"/>
<path d="M97.0619 55.5929C95.9613 54.4985 95.355 53.0454 95.355 51.501C95.355 49.9566 95.9613 48.5036 97.0619 47.4092L101.813 42.6865C103.388 41.1198 103.396 38.5723 101.829 36.9966C100.263 35.4204 97.7147 35.4131 96.1393 36.9797L91.3887 41.7026C89.7405 43.3411 88.5564 45.3188 87.9013 47.4778H51.4995C49.2774 47.4778 47.4761 49.2791 47.4761 51.5012C47.4761 53.7234 49.2774 55.5247 51.4995 55.5247H87.9013C88.5564 57.6837 89.7405 59.6614 91.3887 61.2999L96.1393 66.0226C96.9245 66.8028 97.9501 67.1925 98.976 67.1925C100.01 67.1925 101.043 66.7965 101.829 66.0055C103.396 64.4298 103.389 61.8821 101.813 60.3156L97.0619 55.5929Z" fill="#FF0054"/>
</svg>
