<svg width="103" height="103" viewBox="0 0 103 103" fill="none" xmlns="http://www.w3.org/2000/svg">
<g clip-path="url(#clip0_225_7104)">
<path d="M44.2051 49.1668C41.9556 49.8961 39.556 50.292 37.0635 50.292C24.2864 50.292 13.9287 39.9343 13.9287 27.1572C13.9287 14.3802 24.2864 4.02246 37.0635 4.02246C39.556 4.02246 41.9556 4.41837 44.2051 5.14762C34.9234 8.15735 28.2119 16.8727 28.2119 27.1572C28.2119 37.4417 34.9234 46.1571 44.2051 49.1668V49.1668ZM65.1794 75.6396C65.1794 65.3551 71.8909 56.6398 81.1726 53.63C78.9231 52.9008 76.5235 52.5049 74.031 52.5049C61.254 52.5049 50.8962 62.8626 50.8962 75.6396C50.8962 88.4167 61.254 98.7744 74.031 98.7744C76.5235 98.7744 78.9231 98.3785 81.1726 97.6493C71.8909 94.6395 65.1794 85.9242 65.1794 75.6396Z" fill="#EBDFD9"/>
<path d="M39.2285 54.3164C24.2535 54.3164 12.0703 42.1332 12.0703 27.1582C12.0703 12.1832 24.2535 0 39.2285 0C54.2035 0 66.3867 12.1832 66.3867 27.1582C66.3867 42.1332 54.2035 54.3164 39.2285 54.3164ZM39.2285 8.04688C28.6905 8.04688 20.1172 16.6202 20.1172 27.1582C20.1172 37.6962 28.6905 46.2695 39.2285 46.2695C49.7665 46.2695 58.3398 37.6962 58.3398 27.1582C58.3398 16.6202 49.7665 8.04688 39.2285 8.04688ZM75.8418 102.799C60.8668 102.799 48.6836 90.6157 48.6836 75.6406C48.6836 60.6656 60.8668 48.4824 75.8418 48.4824C90.8168 48.4824 103 60.6656 103 75.6406C103 90.6157 90.8168 102.799 75.8418 102.799ZM75.8418 56.5293C65.3038 56.5293 56.7305 65.1026 56.7305 75.6406C56.7305 86.1786 65.3038 94.752 75.8418 94.752C86.3798 94.752 94.9531 86.1786 94.9531 75.6406C94.9531 65.1026 86.3798 56.5293 75.8418 56.5293Z" fill="#04063E"/>
<path d="M82.6785 71.6182H79.8647V67.3936C79.8647 65.1714 78.0634 63.3701 75.8413 63.3701C73.6192 63.3701 71.8179 65.1714 71.8179 67.3936V75.6416C71.8179 77.8637 73.6192 79.665 75.8413 79.665H82.6785C84.9007 79.665 86.702 77.8637 86.702 75.6416C86.702 73.4195 84.9007 71.6182 82.6785 71.6182Z" fill="#FF0054"/>
<path d="M37.2168 62.3643H37.1653C15.8306 62.3643 0 78.7889 0 98.9775C0 101.2 1.80129 103.001 4.02344 103.001C6.24558 103.001 8.04688 101.2 8.04688 98.9775C8.04688 83.226 20.1172 70.4111 37.2168 70.4111C39.4389 70.4111 41.2402 68.6098 41.2402 66.3877C41.2402 64.1656 39.4389 62.3643 37.2168 62.3643Z" fill="#FF0054"/>
</g>
<defs>
<clipPath id="clip0_225_7104">
<rect width="103" height="103" fill="white"/>
</clipPath>
</defs>
</svg>
