<svg width="103" height="103" viewBox="0 0 103 103" fill="none" xmlns="http://www.w3.org/2000/svg">
<path d="M55.7294 94.2679C55.7294 77.251 48.4824 68.3994 48.4824 68.3994V51.4294C48.4824 45.4743 52.252 40.3997 57.5352 38.4614C56.0523 37.9175 54.4502 37.6201 52.7786 37.6201H50.2214C42.5947 37.6201 36.4121 43.8027 36.4121 51.4294V68.3994C36.4121 68.3994 43.6591 77.251 43.6591 94.2679C43.6591 96.9413 46.116 98.9775 48.7894 98.9775H54.2106C55.4365 98.9775 56.6162 98.5484 57.5352 97.8268C56.4504 96.9751 55.7294 95.7153 55.7294 94.2679Z" fill="#EBDFD9"/>
<path d="M54.2106 103H48.7894C43.742 103 39.6357 99.0822 39.6357 94.2669C39.6357 79.1108 33.3623 71.0247 33.299 70.9473C32.7103 70.2283 32.3887 69.3277 32.3887 68.3984V51.4286C32.3887 41.5955 40.3885 33.5957 50.2214 33.5957H52.7786C62.6115 33.5957 70.6113 41.5955 70.6113 51.4284V68.3984C70.6113 69.3415 70.3144 70.2132 69.7103 70.9362C69.455 71.2661 63.3643 79.3251 63.3643 94.2669C63.3643 99.0822 59.258 103 54.2106 103ZM40.4355 67.1105C42.5718 70.3144 47.6824 79.5214 47.6824 94.2669C47.6824 94.5317 48.1889 94.9531 48.7892 94.9531H54.2104C54.8107 94.9531 55.3172 94.5317 55.3172 94.2669C55.3172 79.5214 60.428 70.3144 62.5643 67.1105V51.4284C62.5645 46.0323 58.1745 41.6426 52.7786 41.6426H50.2214C44.8255 41.6426 40.4355 46.0323 40.4355 51.4284V67.1105ZM66.5879 68.3984H66.5899H66.5879ZM51.2988 27.3594C43.7559 27.3594 37.6191 21.2226 37.6191 13.6797C37.6191 6.13675 43.7559 0 51.2988 0C58.8418 0 64.9785 6.13675 64.9785 13.6797C64.9785 21.2226 58.8418 27.3594 51.2988 27.3594ZM51.2988 8.04688C48.1929 8.04688 45.666 10.5738 45.666 13.6797C45.666 16.7856 48.1929 19.3125 51.2988 19.3125C54.4047 19.3125 56.9316 16.7856 56.9316 13.6797C56.9316 10.5738 54.4047 8.04688 51.2988 8.04688Z" fill="#04063E"/>
<path d="M87.3086 70.2096C86.277 70.2096 85.2458 69.8155 84.4598 69.0273C82.8907 67.4542 82.8941 64.9065 84.4674 63.3374L93.7795 54.0501C94.5367 53.2953 94.9531 52.2937 94.9531 51.2289C94.9531 50.1681 94.5397 49.1697 93.7887 48.4165L84.4894 39.2837C82.9041 37.7266 82.881 35.1794 84.4381 33.5939C85.9951 32.0085 88.5424 31.9858 90.1278 33.5424L99.4399 42.6879C99.4471 42.6949 99.4541 42.702 99.4612 42.709C101.743 44.9843 103 48.0101 103 51.2291C103 54.448 101.743 57.4736 99.461 59.7487L90.1495 69.0354C89.3646 69.8181 88.3364 70.2096 87.3086 70.2096V70.2096ZM18.5402 69.0273C20.1093 67.4542 20.1059 64.9065 18.5326 63.3374L9.21991 54.0495C8.4635 53.2953 8.04688 52.2935 8.04688 51.2289C8.04688 50.1681 8.46028 49.1697 9.21126 48.4165L18.5106 39.2837C20.0959 37.7266 20.119 35.1794 18.5619 33.5939C17.0049 32.0083 14.4576 31.9858 12.8722 33.5424L3.56014 42.6879C3.5529 42.6949 3.54586 42.702 3.53881 42.709C1.25672 44.9839 0 48.0097 0 51.2287C0 54.4476 1.25692 57.4732 3.53821 59.7477L12.8503 69.035C13.6354 69.8183 14.6634 70.2096 15.6914 70.2096C16.7228 70.2096 17.7542 69.8153 18.5402 69.0273V69.0273Z" fill="#FF0054"/>
</svg>
