<svg width="103" height="103" viewBox="0 0 103 103" fill="none" xmlns="http://www.w3.org/2000/svg">
<path d="M94.3832 23.1672C92.7165 24.2891 90.7094 24.9443 88.5492 24.9443C82.7718 24.9443 78.0883 20.2609 78.0883 14.4834C78.0883 8.70594 82.7718 4.02246 88.5492 4.02246C90.7094 4.02246 92.7165 4.67768 94.3832 5.79941C91.5924 7.67795 89.7563 10.8661 89.7563 14.4834C89.7563 18.1007 91.5924 21.2886 94.3832 23.1672ZM89.7227 50.8955C89.7227 47.2782 91.5588 44.0903 94.3496 42.2115C92.6829 41.0896 90.6758 40.4346 88.5156 40.4346C82.7382 40.4346 78.0547 45.118 78.0547 50.8955C78.0547 56.673 82.7382 61.3564 88.5156 61.3564C90.6758 61.3564 92.6829 60.7012 94.3496 59.5795C91.5588 57.7007 89.7227 54.5128 89.7227 50.8955V50.8955ZM89.7227 88.5146C89.7227 84.8974 91.5588 81.7094 94.3496 79.8307C92.6829 78.7087 90.6758 78.0537 88.5156 78.0537C82.7382 78.0537 78.0547 82.7372 78.0547 88.5146C78.0547 94.2921 82.7382 98.9756 88.5156 98.9756C90.6758 98.9756 92.6829 98.3204 94.3496 97.1986C91.5588 95.3199 89.7227 92.1319 89.7227 88.5146V88.5146ZM23.3408 94.2659C23.3408 77.249 16.0938 68.3975 16.0938 68.3975V51.4274C16.0938 45.4723 19.8633 40.3978 25.1465 38.4595C23.6636 37.9155 22.0615 37.6182 20.39 37.6182H17.8327C10.2061 37.6182 4.02344 43.8008 4.02344 51.4274V68.3975C4.02344 68.3975 11.2705 77.249 11.2705 94.2659C11.2705 96.9393 13.7274 98.9756 16.4007 98.9756H21.8219C23.0479 98.9756 24.2275 98.5465 25.1465 97.8249C24.0618 96.9731 23.3408 95.7134 23.3408 94.2659V94.2659Z" fill="#EBDFD9"/>
<path d="M88.5156 65.582C80.5289 65.582 74.0312 59.0844 74.0312 51.0977C74.0312 43.1109 80.5289 36.6133 88.5156 36.6133C96.5023 36.6133 103 43.1109 103 51.0977C103 59.0844 96.5023 65.582 88.5156 65.582ZM88.5156 44.6602C84.9659 44.6602 82.0781 47.548 82.0781 51.0977C82.0781 54.6473 84.9659 57.5352 88.5156 57.5352C92.0653 57.5352 94.9531 54.6473 94.9531 51.0977C94.9531 47.548 92.0653 44.6602 88.5156 44.6602ZM88.5156 28.9688C80.5289 28.9688 74.0312 22.4711 74.0312 14.4844C74.0312 6.49765 80.5289 0 88.5156 0C96.5023 0 103 6.49765 103 14.4844C103 22.4711 96.5023 28.9688 88.5156 28.9688ZM88.5156 8.04688C84.9659 8.04688 82.0781 10.9347 82.0781 14.4844C82.0781 18.0341 84.9659 20.9219 88.5156 20.9219C92.0653 20.9219 94.9531 18.0341 94.9531 14.4844C94.9531 10.9347 92.0653 8.04688 88.5156 8.04688ZM21.8219 103H16.4007C11.3533 103 7.24702 99.0824 7.24702 94.2669C7.24702 79.1108 0.973672 71.0247 0.910303 70.9473C0.321674 70.2283 0 69.3277 0 68.3984V51.4284C0 41.5955 7.9998 33.5957 17.8327 33.5957H20.39C30.2229 33.5957 38.2227 41.5955 38.2227 51.4284V68.3984C38.2227 69.3415 37.9257 70.2132 37.3216 70.9362C37.0663 71.2661 30.9756 79.3251 30.9756 94.2669C30.9756 99.0824 26.8693 103 21.8219 103ZM8.04688 67.1103C10.1831 70.3144 15.2937 79.5214 15.2937 94.2669C15.2937 94.5317 15.8002 94.9531 16.4005 94.9531H21.8217C22.422 94.9531 22.9286 94.5317 22.9286 94.2669C22.9286 79.5216 28.0393 70.3144 30.1756 67.1103V51.4284C30.1758 46.0326 25.7858 41.6426 20.39 41.6426H17.8327C12.4368 41.6426 8.04688 46.0326 8.04688 51.4284V67.1103ZM34.1992 68.3984H34.2012H34.1992ZM18.9102 27.3594C11.3672 27.3594 5.23047 21.2226 5.23047 13.6797C5.23047 6.13675 11.3672 0 18.9102 0C26.4531 0 32.5898 6.13675 32.5898 13.6797C32.5898 21.2226 26.4531 27.3594 18.9102 27.3594ZM18.9102 8.04688C15.8043 8.04688 13.2773 10.5738 13.2773 13.6797C13.2773 16.7856 15.8043 19.3125 18.9102 19.3125C22.016 19.3125 24.543 16.7856 24.543 13.6797C24.543 10.5738 22.016 8.04688 18.9102 8.04688ZM88.5156 103C80.5289 103 74.0312 96.5023 74.0312 88.5156C74.0312 80.5289 80.5289 74.0312 88.5156 74.0312C96.5023 74.0312 103 80.5289 103 88.5156C103 96.5023 96.5023 103 88.5156 103ZM88.5156 82.0781C84.9659 82.0781 82.0781 84.9659 82.0781 88.5156C82.0781 92.0653 84.9659 94.9531 88.5156 94.9531C92.0653 94.9531 94.9531 92.0653 94.9531 88.5156C94.9531 84.9659 92.0653 82.0781 88.5156 82.0781Z" fill="#04063E"/>
<path d="M62.967 84.6943C58.4659 84.6943 54.8042 81.0324 54.8042 76.5316V55.1221H62.5646C64.7868 55.1221 66.588 53.3208 66.588 51.0986C66.588 48.8765 64.7868 47.0752 62.5646 47.0752H54.8042V26.2692C54.8042 21.7684 58.4659 18.1064 62.967 18.1064C65.1891 18.1064 66.9904 16.3052 66.9904 14.083C66.9904 11.8609 65.1891 10.0596 62.967 10.0596C54.0289 10.0596 46.7573 17.3311 46.7573 26.2692V76.5316C46.7573 85.4697 54.0289 92.7412 62.967 92.7412C65.1891 92.7412 66.9904 90.9399 66.9904 88.7178C66.9904 86.4956 65.1891 84.6943 62.967 84.6943Z" fill="#FF0054"/>
</svg>
