<svg width="103" height="103" viewBox="0 0 103 103" fill="none" xmlns="http://www.w3.org/2000/svg">
<g opacity="0.8">
<path opacity="0.8" d="M24.9443 78.8657V24.1304C24.9443 13.0245 33.9255 4.02148 45.0044 4.02148H32.79C21.6795 4.02148 12.6729 13.0281 12.6729 24.1387V78.8574C12.6729 89.9677 21.6795 98.9746 32.79 98.9746H45.0044C33.9255 98.9746 24.9443 89.9716 24.9443 78.8657V78.8657Z" fill="#EBDFD9"/>
</g>
<path d="M37.6196 47.2744C40.3972 47.2744 42.6489 45.0227 42.6489 42.2451C42.6489 39.4675 40.3972 37.2158 37.6196 37.2158C34.842 37.2158 32.5903 39.4675 32.5903 42.2451C32.5903 45.0227 34.842 47.2744 37.6196 47.2744Z" fill="#FF0054"/>
<path d="M70.012 103H32.988C19.679 103 8.85156 92.1725 8.85156 78.8636V24.1364C8.85156 10.8275 19.679 0 32.988 0H70.0118C83.321 0 94.1484 10.8275 94.1484 24.1364V78.8634C94.1484 92.1725 83.321 103 70.012 103ZM32.988 8.04688C24.1163 8.04688 16.8984 15.2647 16.8984 24.1364V78.8634C16.8984 87.7353 24.1163 94.9531 32.988 94.9531H70.0118C78.8837 94.9531 86.1016 87.7353 86.1016 78.8636V24.1364C86.1016 15.2647 78.8837 8.04688 70.012 8.04688H32.988Z" fill="#04063E"/>
<path d="M73.8301 41.04H66.9902C59.2254 41.04 52.9082 34.7228 52.9082 26.958V20.1182C52.9082 17.896 54.7095 16.0947 56.9316 16.0947C59.1538 16.0947 60.9551 17.896 60.9551 20.1182V26.958C60.9551 30.2858 63.6624 32.9932 66.9902 32.9932H73.8301C76.0522 32.9932 77.8535 34.7945 77.8535 37.0166C77.8535 39.2387 76.0522 41.04 73.8301 41.04Z" fill="#04063E"/>
<path d="M63.7715 79.4639H36.0098C33.7876 79.4639 31.9863 77.6626 31.9863 75.4404C31.9863 73.2183 33.7876 71.417 36.0098 71.417H63.7715C65.9936 71.417 67.7949 73.2183 67.7949 75.4404C67.7949 77.6626 65.9936 79.4639 63.7715 79.4639Z" fill="#FF0054"/>
<path d="M63.7715 63.9717H36.0098C33.7876 63.9717 31.9863 62.1704 31.9863 59.9482C31.9863 57.7261 33.7876 55.9248 36.0098 55.9248H63.7715C65.9936 55.9248 67.7949 57.7261 67.7949 59.9482C67.7949 62.1704 65.9936 63.9717 63.7715 63.9717Z" fill="#FF0054"/>
</svg>
