<svg width="103" height="103" viewBox="0 0 103 103" fill="none" xmlns="http://www.w3.org/2000/svg">
<path d="M16.2949 78.8584V24.1396C16.2949 13.0291 25.3016 4.02246 36.4121 4.02246H24.1406C13.0301 4.02246 4.02344 13.0291 4.02344 24.1396V78.8584C4.02344 89.9687 13.0301 98.9756 24.1406 98.9756H36.4121C25.3016 98.9756 16.2949 89.9687 16.2949 78.8584Z" fill="#EBDFD9"/>
<path d="M78.8594 103H24.1406C10.8295 103 0 92.1705 0 78.8594V24.1406C0 10.8295 10.8295 0 24.1406 0H78.8594C92.1705 0 103 10.8295 103 24.1406V78.8594C103 92.1705 92.1705 103 78.8594 103ZM24.1406 8.04688C15.2665 8.04688 8.04688 15.2665 8.04688 24.1406V78.8594C8.04688 87.7335 15.2665 94.9531 24.1406 94.9531H78.8594C87.7335 94.9531 94.9531 87.7335 94.9531 78.8594V24.1406C94.9531 15.2665 87.7335 8.04688 78.8594 8.04688H24.1406ZM42.4473 20.3184C42.4473 18.0962 40.646 16.2949 38.4238 16.2949H21.5254C19.3032 16.2949 17.502 18.0962 17.502 20.3184C17.502 22.5405 19.3032 24.3418 21.5254 24.3418H38.4238C40.646 24.3418 42.4473 22.5405 42.4473 20.3184ZM79.2617 67.1914C79.2617 64.9693 77.4604 63.168 75.2383 63.168H41.6426C39.4204 63.168 37.6191 64.9693 37.6191 67.1914C37.6191 69.4136 39.4204 71.2148 41.6426 71.2148H75.2383C77.4604 71.2148 79.2617 69.4136 79.2617 67.1914ZM84.6934 82.8828C84.6934 80.6607 82.8921 78.8594 80.6699 78.8594H71.8184C69.5962 78.8594 67.7949 80.6607 67.7949 82.8828C67.7949 85.105 69.5962 86.9062 71.8184 86.9062H80.6699C82.8921 86.9062 84.6934 85.105 84.6934 82.8828Z" fill="#04063E"/>
<path d="M81.2739 55.5234H52.9087C50.6865 55.5234 48.8853 53.7221 48.8853 51.5C48.8853 49.2779 50.6865 47.4766 52.9087 47.4766H81.2739C83.4961 47.4766 85.2974 49.2779 85.2974 51.5C85.2974 53.7221 83.4961 55.5234 81.2739 55.5234ZM71.2153 36.0098C71.2153 33.7876 69.414 31.9863 67.1919 31.9863H29.5728C27.3506 31.9863 25.5493 33.7876 25.5493 36.0098C25.5493 38.2319 27.3506 40.0332 29.5728 40.0332H67.1919C69.414 40.0332 71.2153 38.2319 71.2153 36.0098Z" fill="#FF0054"/>
</svg>
