<svg width="818" height="521" viewBox="0 0 818 521" fill="none" xmlns="http://www.w3.org/2000/svg">
<path d="M3.50106 504.875C-0.433817 507.912 -1.1617 513.564 1.87528 517.499C4.91226 521.434 10.5641 522.162 14.4989 519.125L3.50106 504.875ZM818 0L725.962 48.2603L813.776 103.837L818 0ZM530.066 413.892L532.249 405.16L530.066 413.892ZM564.867 399.96L557.262 395.147L564.867 399.96ZM220.227 348.972L225.726 356.097L220.227 348.972ZM247.54 343.26L245.357 351.991L247.54 343.26ZM14.4989 519.125L225.726 356.097L214.728 341.848L3.50106 504.875L14.4989 519.125ZM245.357 351.991L527.883 422.623L532.249 405.16L249.723 334.529L245.357 351.991ZM572.472 404.773L782.287 73.257L767.077 63.6308L557.262 395.147L572.472 404.773ZM527.883 422.623C545.04 426.912 563.014 419.717 572.472 404.773L557.262 395.147C551.956 403.53 541.873 407.566 532.249 405.16L527.883 422.623ZM225.726 356.097C231.297 351.797 238.53 350.285 245.357 351.991L249.723 334.529C237.553 331.486 224.659 334.183 214.728 341.848L225.726 356.097Z" fill="url(#paint0_linear_225_4198)"/>
<defs>
<linearGradient id="paint0_linear_225_4198" x1="731.5" y1="48.9998" x2="77.5001" y2="489.5" gradientUnits="userSpaceOnUse">
<stop offset="0.655016" stop-color="#FF0054"/>
<stop offset="1" stop-color="#FF0054" stop-opacity="0"/>
</linearGradient>
</defs>
</svg>
