<svg width="1920" height="1040" viewBox="0 0 1920 1040" fill="none" xmlns="http://www.w3.org/2000/svg">
<mask id="mask0_235_4510" style="mask-type:alpha" maskUnits="userSpaceOnUse" x="0" y="0" width="1920" height="1040">
<rect width="1920" height="1040" fill="#C4C4C4"/>
</mask>
<g mask="url(#mask0_235_4510)">
<path d="M1029 27H1029.5V26.2433L1028.8 26.5401L1029 27ZM-44.9822 484.932L-45.1783 484.473L-44.9822 484.932ZM1011.89 582.106L1012.09 582.566L1011.89 582.106ZM-22.8131 1023.29L-23.0092 1022.83L-22.8131 1023.29ZM-22.617 1023.75L1012.09 582.566L1011.7 581.646L-23.0092 1022.83L-22.617 1023.75ZM-44.7861 485.392L1029.2 27.4599L1028.8 26.5401L-45.1783 484.473L-44.7861 485.392ZM1028.5 27V556.214H1029.5V27H1028.5ZM-62.5 510.689V997.399H-61.5V510.689H-62.5ZM-45.1783 484.473C-55.6832 488.952 -62.5 499.269 -62.5 510.689H-61.5C-61.5 499.67 -54.9224 489.714 -44.7861 485.392L-45.1783 484.473ZM1012.09 582.566C1022.65 578.063 1029.5 567.693 1029.5 556.214H1028.5C1028.5 567.292 1021.89 577.301 1011.7 581.646L1012.09 582.566ZM-23.0092 1022.83C-41.2468 1030.61 -61.5 1017.23 -61.5 997.399H-62.5C-62.5 1017.94 -41.5143 1031.81 -22.617 1023.75L-23.0092 1022.83Z" fill="#3638BC"/>
</g>
</svg>
