<svg width="1919" height="722" viewBox="0 0 1919 722" fill="none" xmlns="http://www.w3.org/2000/svg">
<mask id="mask0_160_16827" style="mask-type:alpha" maskUnits="userSpaceOnUse" x="0" y="0" width="1920" height="722">
<rect width="1920" height="722" transform="matrix(1 0 0 -1 0 722)" fill="#C4C4C4"/>
</mask>
<g mask="url(#mask0_160_16827)">
<path d="M1748.91 163.51V378.8H1739.91V163.51C1739.91 81.5098 1806.6 14.8398 1888.58 14.8398H2107.18V23.8398H1888.57C1811.56 23.8499 1748.91 86.4998 1748.91 163.51Z" fill="#645C56"/>
<path d="M1769.94 163.51V378.8H1760.94V163.51C1760.97 129.669 1774.43 97.2237 1798.36 73.2927C1822.29 49.3617 1854.73 35.8995 1888.57 35.8598H2107.18V44.8598H1888.57C1857.11 44.8942 1826.96 57.4065 1804.72 79.6508C1782.48 101.895 1769.97 132.054 1769.94 163.51Z" fill="#645C56"/>
<path d="M1790.96 163.51V378.8H1781.96V163.51C1781.99 135.243 1793.23 108.143 1813.22 88.1531C1833.2 68.1636 1860.3 56.9169 1888.57 56.8798H2107.18V65.8798H1888.57C1862.69 65.9089 1837.87 76.2049 1819.57 94.5084C1801.27 112.812 1790.98 137.628 1790.96 163.51Z" fill="#645C56"/>
<path d="M1811.98 163.51V378.8H1802.98V163.51C1803.01 140.815 1812.03 119.058 1828.08 103.011C1844.13 86.9633 1865.89 77.9362 1888.58 77.9098H2107.18V86.9098H1888.57C1868.26 86.9336 1848.79 95.012 1834.44 109.372C1820.08 123.733 1812 143.202 1811.98 163.51Z" fill="#645C56"/>
<path d="M1833.01 163.51V378.8H1824.01V163.51C1824.03 146.389 1830.83 129.973 1842.94 117.866C1855.04 105.759 1871.46 98.9483 1888.58 98.9298H2107.18V107.93H1888.57C1873.84 107.948 1859.71 113.811 1849.3 124.231C1838.88 134.65 1833.02 148.777 1833.01 163.51Z" fill="#645C56"/>
<path d="M1854.03 163.51V378.8H1845.03V163.51C1845.05 151.972 1849.65 140.915 1857.81 132.759C1865.97 124.604 1877.03 120.016 1888.57 120H2107.18V129H1888.57C1879.42 129.008 1870.64 132.645 1864.17 139.115C1857.69 145.584 1854.05 154.357 1854.03 163.51Z" fill="#645C56"/>
<path d="M1748.91 492.93V510.8C1748.91 519.8 1748.91 524.72 1748.64 527.47H1748.91C1748.89 539.013 1744.3 550.077 1736.13 558.237C1727.97 566.397 1716.9 570.987 1705.36 571H1581.67C1570.12 571 1559.04 566.412 1550.88 558.245C1542.71 550.077 1538.12 539 1538.12 527.45C1538.12 515.9 1542.71 504.823 1550.88 496.656C1559.04 488.488 1570.12 483.9 1581.67 483.9H1855.53C1867.08 483.913 1878.15 488.506 1886.31 496.67C1894.47 504.834 1899.07 515.904 1899.08 527.45V722H1890.08V527.47C1890.07 518.312 1886.43 509.531 1879.95 503.055C1873.48 496.58 1864.7 492.938 1855.54 492.93H1581.67C1572.51 492.93 1563.72 496.569 1557.25 503.047C1550.77 509.524 1547.13 518.309 1547.13 527.47C1547.13 536.631 1550.77 545.416 1557.25 551.893C1563.72 558.371 1572.51 562.01 1581.67 562.01H1705.36C1714.52 562.002 1723.3 558.36 1729.77 551.885C1736.25 545.409 1739.89 536.628 1739.9 527.47V492.93" fill="#645C56"/>
<path d="M1855.53 471.91H1581.67C1566.93 471.91 1552.8 477.764 1542.38 488.183C1531.96 498.603 1526.11 512.735 1526.11 527.47C1526.11 542.205 1531.96 556.337 1542.38 566.757C1552.8 577.176 1566.93 583.03 1581.67 583.03H1705.36C1720.09 583.014 1734.21 577.156 1744.63 566.74C1755.05 556.324 1760.91 542.201 1760.93 527.47V492.93H1769.93V510.8C1769.93 519.8 1769.93 524.72 1769.66 527.47H1769.93C1769.9 544.582 1763.09 560.985 1750.98 573.082C1738.88 585.178 1722.47 591.981 1705.36 592H1581.67C1564.54 592 1548.12 585.197 1536.01 573.088C1523.9 560.979 1517.1 544.555 1517.1 527.43C1517.1 510.305 1523.9 493.881 1536.01 481.772C1548.12 469.663 1564.54 462.86 1581.67 462.86H1855.53C1872.65 462.876 1889.07 469.684 1901.17 481.789C1913.28 493.895 1920.09 510.309 1920.11 527.43V722H1911.11V527.47C1911.09 512.737 1905.23 498.613 1894.81 488.197C1884.39 477.78 1870.26 471.923 1855.53 471.91Z" fill="#645C56"/>
<path d="M1855.53 450.88H1581.67C1561.36 450.88 1541.88 458.949 1527.51 473.313C1513.15 487.676 1505.08 507.157 1505.08 527.47C1505.08 547.783 1513.15 567.264 1527.51 581.627C1541.88 595.991 1561.36 604.06 1581.67 604.06H1705.36C1725.67 604.036 1745.13 595.959 1759.49 581.601C1773.85 567.243 1781.93 547.776 1781.95 527.47V492.93H1790.95V510.51C1790.95 519.72 1790.95 524.68 1790.68 527.51H1790.95C1790.92 550.204 1781.9 571.962 1765.85 588.009C1749.8 604.056 1728.04 613.084 1705.35 613.11H1581.67C1558.97 613.11 1537.2 604.091 1521.14 588.038C1505.09 571.985 1496.07 550.213 1496.07 527.51C1496.07 504.807 1505.09 483.035 1521.14 466.982C1537.2 450.929 1558.97 441.91 1581.67 441.91H1855.53C1878.22 441.936 1899.98 450.964 1916.03 467.011C1932.08 483.058 1941.1 504.816 1941.13 527.51V722H1932.13V527.47C1932.11 507.163 1924.03 487.694 1909.67 473.335C1895.31 458.977 1875.84 450.901 1855.53 450.88Z" fill="#645C56"/>
<path d="M1855.53 429.86H1581.67C1555.78 429.86 1530.95 440.144 1512.65 458.449C1494.34 476.755 1484.06 501.582 1484.06 527.47C1484.06 553.358 1494.34 578.185 1512.65 596.491C1530.95 614.796 1555.78 625.08 1581.67 625.08H1705.36C1731.24 625.051 1756.05 614.758 1774.35 596.459C1792.65 578.159 1802.94 553.349 1802.97 527.47V492.93H1811.97L1812.03 510.51C1812.03 519.72 1812.03 524.68 1811.76 527.51H1812.03C1811.99 555.779 1800.73 582.877 1780.73 602.858C1760.74 622.839 1733.63 634.071 1705.36 634.09H1581.67C1553.39 634.09 1526.27 622.857 1506.28 602.862C1486.28 582.867 1475.05 555.747 1475.05 527.47C1475.05 499.193 1486.28 472.073 1506.28 452.078C1526.27 432.083 1553.39 420.85 1581.67 420.85H1855.53C1883.8 420.882 1910.9 432.125 1930.89 452.113C1950.88 472.101 1962.13 499.201 1962.16 527.47V722H1953.16V527.47C1953.13 501.589 1942.83 476.776 1924.53 458.477C1906.23 440.178 1881.41 429.886 1855.53 429.86Z" fill="#645C56"/>
<path d="M1855.53 408.83H1581.67C1550.2 408.83 1520.03 421.33 1497.78 443.579C1475.53 465.828 1463.03 496.005 1463.03 527.47C1463.03 558.935 1475.53 589.112 1497.78 611.361C1520.03 633.61 1550.2 646.11 1581.67 646.11H1705.36C1736.81 646.073 1766.97 633.562 1789.21 611.32C1811.45 589.079 1823.96 558.924 1824 527.47V492.93H1833V510.51C1833 519.72 1833 524.68 1832.72 527.51H1833C1832.95 561.344 1819.48 593.777 1795.56 617.699C1771.63 641.62 1739.19 655.078 1705.36 655.12H1581.67C1547.83 655.08 1515.38 641.618 1491.45 617.688C1467.53 593.757 1454.07 561.312 1454.03 527.47C1454.03 457.09 1511.29 399.82 1581.67 399.82H1855.53C1889.37 399.86 1921.82 413.321 1945.75 437.252C1969.68 461.182 1983.14 493.627 1983.18 527.47V722H1974.18V527.47C1974.14 496.014 1961.63 465.855 1939.39 443.613C1917.14 421.371 1886.99 408.862 1855.53 408.83Z" fill="#645C56"/>
<path d="M1855.53 387.81H1581.67C1504.67 387.81 1442.01 450.46 1442.01 527.47C1442.01 604.48 1504.66 667.13 1581.67 667.13H1705.36C1782.36 667.13 1845.02 604.48 1845.02 527.47V524.47C1845.02 515.95 1844.94 492.94 1844.94 492.94H1853.94L1854.02 521.94C1854.02 524.4 1854.02 526.16 1853.93 527.45H1854.02C1854.02 609.45 1787.33 676.12 1705.35 676.12H1581.67C1499.67 676.12 1433 609.43 1433 527.45C1433 445.47 1499.75 378.8 1581.67 378.8H1855.53C1937.53 378.8 2004.21 445.49 2004.21 527.47V722H1995.21V527.47C1995.19 450.46 1932.54 387.81 1855.53 387.81Z" fill="#645C56"/>
<path d="M297.64 340.37C309.19 340.37 320.267 344.958 328.435 353.125C336.602 361.293 341.19 372.37 341.19 383.92C341.19 395.47 336.602 406.547 328.435 414.715C320.267 422.882 309.19 427.47 297.64 427.47H-72.36C-149.36 427.47 -212.02 490.12 -212.02 567.13C-212.02 644.14 -149.34 706.79 -72.33 706.79H27.33C33.6024 706.793 39.7998 708.154 45.4963 710.78C51.1927 713.405 56.2533 717.233 60.33 722H47.02C41.2493 717.96 34.3744 715.795 27.33 715.8H-72.33C-154.33 715.8 -221 649.11 -221 567.13C-221 485.15 -154.3 418.46 -72.33 418.46H297.67C306.831 418.46 315.616 414.821 322.093 408.343C328.571 401.866 332.21 393.081 332.21 383.92C332.21 374.759 328.571 365.974 322.093 359.497C315.616 353.019 306.831 349.38 297.67 349.38H-77.83C-75.6967 346.453 -73.6734 343.453 -71.7601 340.38L297.64 340.37Z" fill="#645C56"/>
<path d="M297.64 319.35C314.765 319.35 331.189 326.153 343.298 338.262C355.407 350.371 362.21 366.795 362.21 383.92C362.21 401.045 355.407 417.469 343.298 429.578C331.189 441.687 314.765 448.49 297.64 448.49H-72.3597C-103.825 448.49 -134.002 460.99 -156.251 483.239C-178.5 505.488 -191 535.665 -191 567.13C-191 598.595 -178.5 628.772 -156.251 651.021C-134.002 673.27 -103.825 685.77 -72.3597 685.77H27.3003C39.3844 685.783 51.2228 689.184 61.4702 695.589C71.7177 701.993 79.9633 711.143 85.2703 722H75.0403C70.13 713.716 63.1502 706.851 54.7859 702.079C46.4216 697.307 36.9602 694.792 27.3303 694.78H-72.3297C-142.71 694.78 -199.97 637.51 -199.97 567.13C-199.97 496.75 -142.71 439.48 -72.3297 439.48H297.67C312.406 439.48 326.538 433.626 336.957 423.207C347.377 412.787 353.23 398.655 353.23 383.92C353.23 369.185 347.377 355.053 336.957 344.633C326.538 334.214 312.406 328.36 297.67 328.36H-65.0897C-63.6197 325.36 -62.2297 322.36 -60.9497 319.36L297.64 319.35Z" fill="#645C56"/>
<path d="M297.64 298.32C320.343 298.32 342.115 307.339 358.169 323.392C374.222 339.445 383.24 361.217 383.24 383.92C383.24 406.623 374.222 428.395 358.169 444.448C342.115 460.501 320.343 469.52 297.64 469.52H-72.3597C-98.2475 469.52 -123.075 479.804 -141.38 498.109C-159.686 516.415 -169.97 541.242 -169.97 567.13C-169.97 593.018 -159.686 617.845 -141.38 636.151C-123.075 654.456 -98.2475 664.74 -72.3597 664.74H27.3003C45.035 664.757 62.3281 670.273 76.7972 680.528C91.2664 690.783 102.199 705.272 108.09 722H98.4603C92.7793 707.773 82.9676 695.574 70.2899 686.974C57.6122 678.374 42.6496 673.768 27.3303 673.75H-72.3297C-100.607 673.75 -127.726 662.517 -147.721 642.522C-167.717 622.527 -178.95 595.407 -178.95 567.13C-178.95 538.853 -167.717 511.733 -147.721 491.738C-127.726 471.743 -100.607 460.51 -72.3297 460.51H297.67C317.983 460.51 337.464 452.441 351.828 438.077C366.191 423.714 374.26 404.233 374.26 383.92C374.26 363.607 366.191 344.126 351.828 329.763C337.464 315.399 317.983 307.33 297.67 307.33H-56.5297C-55.5297 304.33 -54.7297 301.33 -53.9697 298.33L297.64 298.32Z" fill="#645C56"/>
<path d="M297.64 277.3C325.918 277.3 353.037 288.533 373.032 308.528C393.027 328.523 404.26 355.643 404.26 383.92C404.26 412.197 393.027 439.317 373.032 459.312C353.037 479.307 325.918 490.54 297.64 490.54H-72.3597C-92.6726 490.54 -112.154 498.609 -126.517 512.973C-140.88 527.336 -148.95 546.817 -148.95 567.13C-148.95 587.443 -140.88 606.924 -126.517 621.287C-112.154 635.651 -92.6726 643.72 -72.3597 643.72H27.3004C50.6341 643.747 73.3171 651.414 91.8813 665.55C110.445 679.687 123.869 699.514 130.1 722H120.73C114.628 701.976 102.261 684.44 85.4478 671.97C68.6345 659.501 48.263 652.757 27.3304 652.73H-72.3297C-95.0322 652.73 -116.805 643.711 -132.858 627.658C-148.911 611.605 -157.93 589.833 -157.93 567.13C-157.93 544.427 -148.911 522.655 -132.858 506.602C-116.805 490.549 -95.0322 481.53 -72.3297 481.53H297.67C310.489 481.53 323.182 479.005 335.024 474.1C346.867 469.195 357.627 462.005 366.691 452.941C375.755 443.877 382.945 433.116 387.85 421.274C392.756 409.431 395.28 396.738 395.28 383.92C395.28 371.102 392.756 358.409 387.85 346.566C382.945 334.724 375.755 323.963 366.691 314.899C357.627 305.835 346.867 298.645 335.024 293.74C323.182 288.835 310.489 286.31 297.67 286.31H-51.4997C-51.0097 283.31 -50.5896 280.31 -50.2896 277.31L297.64 277.3Z" fill="#645C56"/>
<path d="M297.64 532.59H-72.3602C-76.896 532.59 -81.3875 533.483 -85.5781 535.219C-89.7687 536.955 -93.5763 539.499 -96.7836 542.707C-99.991 545.914 -102.535 549.722 -104.271 553.912C-106.007 558.103 -106.9 562.594 -106.9 567.13C-106.9 571.666 -106.007 576.157 -104.271 580.348C-102.535 584.538 -99.991 588.346 -96.7836 591.553C-93.5763 594.761 -89.7687 597.305 -85.5781 599.041C-81.3875 600.777 -76.896 601.67 -72.3602 601.67H27.2999C99.5899 601.67 159.96 653.54 173.23 722H164.07C150.93 658.53 94.5999 610.68 27.2999 610.68H-72.3602C-83.9103 610.68 -94.9875 606.092 -103.155 597.924C-111.322 589.757 -115.91 578.68 -115.91 567.13C-115.91 555.58 -111.322 544.503 -103.155 536.335C-94.9875 528.168 -83.9103 523.58 -72.3602 523.58H297.64C374.64 523.58 437.31 460.93 437.31 383.92C437.31 306.91 374.65 244.26 297.64 244.26H-49.5301V235.26H297.64C379.64 235.26 446.32 301.95 446.32 383.93C446.32 465.91 379.62 532.59 297.64 532.59Z" fill="#645C56"/>
<path d="M-49.5296 256.27H297.64C314.404 256.27 331.003 259.572 346.49 265.987C361.977 272.402 376.049 281.804 387.903 293.658C399.756 305.511 409.159 319.583 415.574 335.07C421.989 350.558 425.29 367.157 425.29 383.92C425.29 400.683 421.989 417.282 415.574 432.77C409.159 448.257 399.756 462.329 387.903 474.182C376.049 486.036 361.977 495.438 346.49 501.853C331.003 508.268 314.404 511.57 297.64 511.57H-72.3597C-87.0951 511.57 -101.227 517.424 -111.646 527.843C-122.066 538.263 -127.92 552.395 -127.92 567.13C-127.92 581.865 -122.066 595.997 -111.646 606.417C-101.227 616.836 -87.0951 622.69 -72.3597 622.69H27.3004C87.9503 622.69 138.81 665.22 151.74 722H142.49C136.122 696.252 121.323 673.374 100.448 657.01C79.5736 640.646 53.8244 631.737 27.3004 631.7H-72.3597C-89.4847 631.7 -105.908 624.897 -118.018 612.788C-130.127 600.679 -136.93 584.255 -136.93 567.13C-136.93 550.005 -130.127 533.581 -118.018 521.472C-105.908 509.363 -89.4847 502.56 -72.3597 502.56H297.64C329.106 502.56 359.282 490.06 381.531 467.811C403.781 445.562 416.28 415.385 416.28 383.92C416.28 352.455 403.781 322.278 381.531 300.029C359.282 277.78 329.106 265.28 297.64 265.28H-49.6097C-49.6097 264.28 -49.5296 263.28 -49.5296 262.28V256.27Z" fill="#645C56"/>
</g>
</svg>
