<svg width="97" height="97" viewBox="0 0 97 97" fill="none" xmlns="http://www.w3.org/2000/svg">
<path d="M55.5358 52.1198C58.4538 49.9338 60.347 46.4558 60.347 42.5274C60.347 38.461 58.321 34.8738 55.2269 32.7046L50.6385 39.2554C51.6698 39.9794 52.347 41.1722 52.347 42.5274C52.347 43.7438 51.7933 44.8202 50.9381 45.5534C50.2389 46.1534 49.3433 46.5286 48.3481 46.5286C46.1397 46.5286 44.3493 44.7382 44.3493 42.5274C44.3493 41.1734 45.0261 39.9806 46.0577 39.2566L41.4693 32.7046C38.3757 34.875 36.3497 38.4626 36.3497 42.5274C36.3497 46.457 38.2397 49.939 41.1581 52.1238L36.3481 58.9926V64.7046H39.0149V59.8346L43.4709 53.4714C44.3145 53.8478 45.2065 54.1342 46.1401 54.3074L41.6813 60.6746V64.7046H44.3481V61.5158L48.3493 55.8022L52.3482 61.5142V64.7046H55.0149V60.6746L48.8285 51.8374C48.6685 51.8462 48.5093 51.8622 48.3481 51.8622C43.1933 51.8622 39.0161 47.6838 39.0161 42.5278C39.0161 40.339 39.7829 38.339 41.0461 36.7494L42.6701 39.0682C42.0501 40.0774 41.6829 41.257 41.6829 42.5278C41.6829 46.2114 44.6661 49.1958 48.3485 49.1958C48.9433 49.1958 49.5097 49.0926 50.0581 48.9458L57.6818 59.8338V64.7046H60.3482V58.9926L55.5358 52.1198ZM54.0045 49.9322L52.4577 47.7238C54.0045 46.5102 55.0138 44.6494 55.0138 42.527C55.0138 41.255 54.6466 40.0754 54.0254 39.0662L55.6493 36.7486C56.9121 38.3386 57.6806 40.3386 57.6806 42.527C57.6802 45.5538 56.235 48.2306 54.0045 49.9322Z" fill="white"/>
</svg>
