<svg width="90" height="103" viewBox="0 0 90 103" fill="none" xmlns="http://www.w3.org/2000/svg">
<rect width="90" height="90" fill="#262322"/>
<path d="M90 103L77 90H90V103Z" fill="#1268FB"/>
<path d="M44.3553 71.2848L46.0695 73C46.6807 72.3907 47.1658 71.667 47.497 70.8702C47.8283 70.0735 47.9992 69.2193 48 68.3566C48.0008 67.4938 47.8315 66.6393 47.5018 65.8419C47.1721 65.0446 46.6883 64.3199 46.0783 63.7094L45.3699 63L45.2608 63.109C44.6102 63.8372 41.1191 68.0508 44.3553 71.2848Z" fill="url(#paint0_linear_210_1856)"/>
<path d="M57.0327 38.9263C57.0327 38.9263 63.3672 44.3898 57.8594 51L61.3418 47.4996C62.1846 46.6526 62.8531 45.647 63.3092 44.5402C63.7652 43.4335 64 42.2473 64 41.0493C64 39.8514 63.7652 38.6652 63.3092 37.5585C62.8531 36.4517 62.1846 35.4461 61.3418 34.5991L53.7839 27C53.2183 27.5681 52.7697 28.2427 52.4636 28.9852C52.1575 29.7277 52 30.5235 52 31.3272C52 32.1309 52.1575 32.9267 52.4636 33.6692C52.7697 34.4117 53.2183 35.0862 53.7839 35.6544L57.0327 38.9263Z" fill="url(#paint1_linear_210_1856)"/>
<path d="M57.6853 50.8686C63.3357 44.1778 56.8228 38.6501 56.8228 38.6501C57.1087 38.9324 57.3353 39.2678 57.4901 39.6368C57.6448 40.0059 57.7245 40.4015 57.7245 40.8011C57.7245 41.2007 57.6448 41.5963 57.4901 41.9654C57.3353 42.3345 57.1085 42.6697 56.8226 42.952L40.8366 58.766C40.2543 59.3415 39.7924 60.025 39.4773 60.7772C39.1622 61.5294 39 62.3356 39 63.1498C39 63.9641 39.1622 64.7703 39.4773 65.5225C39.7425 66.1555 40.1117 66.7399 40.569 67.2522L40.5661 67.258L40.6486 67.3397C40.7098 67.4056 40.7725 67.4703 40.8366 67.5337L40.8407 67.5296L44.3493 71C41.2281 67.9129 44.5952 63.8905 45.2227 63.1954L57.6853 50.8686Z" fill="url(#paint2_linear_210_1856)"/>
<path d="M62.503 45.8122C62.8089 45.3442 63.0721 44.8487 63.2887 44.3314C63.7583 43.2102 64 42.0084 64 40.7948C64 39.5812 63.7583 38.3794 63.2887 37.2582C62.8192 36.1369 62.1309 35.1182 61.2633 34.26L57.9695 31L57.9637 31.0057L61.2592 34.2663C62.1269 35.1244 62.8151 36.1432 63.2847 37.2644C63.7542 38.3857 63.9959 39.5874 63.9959 40.801C63.9959 42.0147 63.7542 43.2164 63.2847 44.3376C63.069 44.8527 62.8072 45.3461 62.503 45.8122Z" fill="url(#paint3_linear_210_1856)"/>
<path d="M32.9637 51.079C32.9637 51.079 26.6326 45.6119 32.1375 39L28.6569 42.5013C26.9557 44.2128 26 46.534 26 48.9543C26 51.3746 26.9557 53.6958 28.6569 55.4073L36.2171 63C36.7823 62.4317 37.2307 61.757 37.5366 61.0143C37.8425 60.2716 38 59.4756 38 58.6717C38 57.8678 37.8425 57.0718 37.5366 56.3291C37.2307 55.5864 36.7823 54.9117 36.2171 54.3434L32.9637 51.079Z" fill="url(#paint4_linear_210_1856)"/>
<path d="M50.5224 24.5695C50.2565 23.9252 49.8862 23.3305 49.4274 22.8093L49.433 22.7979L45.6484 19C49.0173 22.3809 44.8398 26.8587 44.6821 27.0252L32.3059 39.4522C26.6544 46.2469 33.1695 51.8623 33.1695 51.8623C32.8836 51.5753 32.6572 51.2346 32.5025 50.8596C32.3478 50.4846 32.2682 50.0827 32.2682 49.6768C32.2682 49.2709 32.3478 48.869 32.5025 48.494C32.6572 48.119 32.8839 47.7783 33.1698 47.4913L49.1625 31.433C49.745 30.8483 50.2071 30.154 50.5224 29.3899C50.8377 28.6258 51 27.8068 51 26.9797C51 26.1526 50.8377 25.3336 50.5224 24.5695Z" fill="url(#paint5_linear_210_1856)"/>
<path d="M45.6423 18.7158L43.9272 17C43.3162 17.61 42.8315 18.3343 42.5009 19.1316C42.1702 19.9288 42 20.7832 42 21.6462C42 22.5091 42.1702 23.3636 42.5009 24.1608C42.8315 24.958 43.3162 25.6823 43.9272 26.2924L44.6355 27L44.6402 26.9953C44.8038 26.8235 49.1357 22.2039 45.6423 18.7158Z" fill="url(#paint6_linear_210_1856)"/>
<defs>
<linearGradient id="paint0_linear_210_1856" x1="49.5655" y1="73.3501" x2="41.4966" y2="62.8179" gradientUnits="userSpaceOnUse">
<stop stop-color="#36D9FF"/>
<stop offset="1" stop-color="#680EE6"/>
</linearGradient>
<linearGradient id="paint1_linear_210_1856" x1="46.562" y1="31.9073" x2="71.6842" y2="50.9374" gradientUnits="userSpaceOnUse">
<stop stop-color="#36D9FF"/>
<stop offset="1" stop-color="#4A00C5"/>
</linearGradient>
<linearGradient id="paint2_linear_210_1856" x1="770.84" y1="2440.21" x2="1560.8" y2="2451.29" gradientUnits="userSpaceOnUse">
<stop stop-color="#36D9FF"/>
<stop offset="1" stop-color="#4A00C5"/>
</linearGradient>
<linearGradient id="paint3_linear_210_1856" x1="770.84" y1="2440.21" x2="1560.8" y2="2451.29" gradientUnits="userSpaceOnUse">
<stop stop-color="#36D9FF"/>
<stop offset="1" stop-color="#4A00C5"/>
</linearGradient>
<linearGradient id="paint4_linear_210_1856" x1="39.1237" y1="46.0255" x2="29.1693" y2="55.921" gradientUnits="userSpaceOnUse">
<stop stop-color="#13ABD4"/>
<stop offset="1" stop-color="#00E5C2"/>
</linearGradient>
<linearGradient id="paint5_linear_210_1856" x1="782.295" y1="1861.91" x2="1572.63" y2="1872.84" gradientUnits="userSpaceOnUse">
<stop stop-color="#00E5C2"/>
<stop offset="1" stop-color="#1899D9"/>
</linearGradient>
<linearGradient id="paint6_linear_210_1856" x1="40.4888" y1="16.6468" x2="48.6324" y2="26.8837" gradientUnits="userSpaceOnUse">
<stop stop-color="#00E5C2"/>
<stop offset="1" stop-color="#1899D9"/>
</linearGradient>
</defs>
</svg>
