<svg width="50" height="50" viewBox="0 0 50 50" fill="none" xmlns="http://www.w3.org/2000/svg">
<path d="M19 0V4.00003H23.3333V6C24.85 5.80003 26.1499 5.80003 27.6667 6V4.00003H32V0H19Z" fill="white"/>
<path d="M39.301 13.9271L40.7712 12.4739L42.4514 14.1348L45.3918 11.2282L39.091 5L36.1506 7.90653L37.8309 9.56733L35.9406 11.4358C25.8594 5.41515 12.8378 8.52926 6.95715 18.4944C1.07647 28.4596 4.22676 40.916 14.098 46.9366C23.9692 52.9573 36.9907 49.8432 42.8715 39.878C48.1221 31.3661 46.6519 20.5705 39.301 13.9271ZM25.0193 43.615C16.8283 43.615 10.3175 37.1792 10.3175 29.0825C10.3175 20.9858 16.8283 14.5499 25.0193 14.5499V29.0824H39.721C39.7211 37.1791 33.2102 43.615 25.0193 43.615Z" fill="white"/>
</svg>
