<svg width="56" height="57" viewBox="0 0 56 57" fill="none" xmlns="http://www.w3.org/2000/svg">
<path d="M41.2792 30.4222C41.2574 26.3255 43.0656 23.2334 46.7256 20.9562C44.6777 17.9534 41.5842 16.3013 37.4995 15.9776C33.6326 15.6651 29.4062 18.2883 27.8595 18.2883C26.2256 18.2883 22.4785 16.0893 19.5375 16.0893C13.4594 16.1897 7 21.0567 7 30.958C7 33.8827 7.52285 36.9041 8.56854 40.0222C9.96281 44.1189 14.9952 54.1654 20.2455 53.9979C22.9904 53.931 24.9293 51.9998 28.5021 51.9998C31.966 51.9998 33.7633 53.9979 36.8241 53.9979C42.118 53.9198 46.6711 44.7887 48 40.6808C40.898 37.2538 41.2792 30.6343 41.2792 30.4222ZM35.114 12.093C38.0877 8.47626 37.8154 5.18325 37.7282 4C35.1031 4.15628 32.064 5.83069 30.3321 7.8958C28.4259 10.106 27.3039 12.8409 27.5436 15.9218C30.3866 16.1451 32.979 14.6493 35.114 12.093Z" fill="#262322"/>
</svg>
