<svg width="213" height="195" viewBox="0 0 213 195" fill="none" xmlns="http://www.w3.org/2000/svg">
<path d="M4.25636 135.44C3.0231 129.904 2.37987 124.143 2.40083 118.222C2.55075 75.2821 36.9387 41.1766 79.1969 42.0151C120.351 42.8308 153.414 77.1869 152.996 119.29C152.587 160.497 119.642 194.245 79.0857 194.987C67.2496 195.204 56.0228 192.644 45.9939 187.907C39.9936 185.072 33.047 185.5 27.2193 188.683C21.2416 191.951 14.5174 193.569 8.83637 194.357C3.14401 195.145 -1.42632 189.604 0.413094 184.075C8.60745 159.449 4.25636 135.442 4.25636 135.44Z" fill="#E9EDF5"/>
<path d="M78.9267 42.015C59.1837 41.6305 41.1542 48.6831 27.503 60.5893C25.3964 85.0533 28.4674 125.136 65.1817 147.829C74.7231 153.725 81.5511 163.175 83.6691 174.143C84.6674 179.32 85.0056 185.321 84.0137 192C122.298 188.683 152.603 156.655 152.996 117.918C153.415 76.5624 120.231 42.8161 78.9267 42.015V42.015Z" fill="#BEC3D2"/>
<path d="M208.744 93.4408C209.977 87.9051 210.622 82.1417 210.601 76.2228C210.449 33.2834 176.061 -0.821829 133.803 0.0150789C92.6491 0.830695 59.5864 35.1881 60.0039 77.2906C60.4134 118.496 93.3585 152.245 133.914 152.987C145.75 153.204 156.977 150.644 167.006 145.906C173.006 143.072 179.953 143.5 185.781 146.684C191.76 149.951 198.483 151.569 204.165 152.357C209.856 153.145 214.426 147.604 212.587 142.075C204.394 117.449 208.744 93.4408 208.744 93.4408V93.4408Z" fill="#FFB128"/>
<path d="M111.974 54H101.807C96.943 54 93 57.8356 93 62.5685V74.4041C93 79.137 96.943 82.9742 101.807 82.9742C101.807 82.9742 108.955 82.9329 112.208 89.3827C113.365 91.6793 114.375 94.5588 114.78 97.9131C115.31 102.321 121.274 103.532 123.594 99.7126C128.061 92.3591 131.363 80.9984 126.834 64.9636C125 58.4725 118.891 54 111.974 54V54Z" fill="#0B3954"/>
<path d="M159.974 54H149.807C144.943 54 141 57.8356 141 62.5685V74.4041C141 79.137 144.943 82.9742 149.807 82.9742C149.807 82.9742 156.955 82.9329 160.208 89.3827C161.365 91.6793 162.375 94.5588 162.78 97.9131C163.31 102.321 169.274 103.532 171.594 99.7126C176.061 92.3591 179.363 80.9984 174.834 64.9636C173 58.4725 166.891 54 159.974 54V54Z" fill="#0B3954"/>
</svg>
