<svg xmlns="http://www.w3.org/2000/svg" fill="none" viewBox="0 0 86 85">
  <path fill="#0B3954" fill-rule="evenodd" d="M39.583 70.666c17.167 0 31.084-13.916 31.084-31.083C70.666 22.416 56.75 8.5 39.582 8.5S8.5 22.416 8.5 39.583c0 17.167 13.916 31.084 31.083 31.084Zm0 8.5c21.861 0 39.584-17.721 39.584-39.583C79.166 17.722 61.444 0 39.582 0 17.722 0 0 17.722 0 39.583c0 21.861 17.722 39.584 39.583 39.584Z" clip-rule="evenodd"/>
  <path fill="#0B3954" fill-rule="evenodd" d="M79.165 85 60.62 66.455l6.01-6.01L85.177 78.99 79.166 85Z" clip-rule="evenodd"/>
</svg>
