<?xml version="1.0" standalone="no"?>
<svg id="Union" width="2684" height="100" viewBox="0 0 2684 100" fill="none" xmlns="http://www.w3.org/2000/svg" style="max-width: 100%; max-height: 100%;">
<mask id="path-1-outside-1_175_2541" maskUnits="userSpaceOnUse" x="0.719727" y="0.76001" width="2684" height="99" fill="black">
<rect fill="white" x="0.719727" y="0.76001" width="2684" height="99" stroke-dasharray="0,0,0,5566"><animate attributeType="XML" attributeName="stroke-dasharray" repeatCount="1" dur="1.4705882352941178s" values="0,0,0,5566; 
          0,2783,2783,0; 
          5566,0,0,0" keyTimes="0; 0.5; 1" fill="freeze"></animate></rect>
<path d="M1374.85 93.4648C1369.27 90.839 1365 87.2851 1362.08 82.7839L1362.08 82.7769C1359.16 78.2022 1357.72 72.9726 1357.72 67.12V66.12H1378.8V67.12C1378.8 69.1656 1379.34 71.0581 1380.44 72.8174C1381.6 74.5464 1383.35 75.9925 1385.77 77.129C1388.16 78.171 1391.33 78.72 1395.32 78.72C1398.92 78.72 1401.87 78.2493 1404.2 77.3474C1406.55 76.4388 1408.26 75.2183 1409.4 73.7228C1410.55 72.1412 1411.12 70.3514 1411.12 68.32C1411.12 65.8663 1410.1 63.9733 1407.97 62.5521L1407.96 62.5458L1407.95 62.5392C1405.77 61.0124 1402.1 59.9515 1396.79 59.476L1390.2 58.8766L1390.19 58.8762C1381.31 58.142 1374.13 55.3608 1368.73 50.4605C1363.3 45.5298 1360.6 39.009 1360.6 31C1360.6 25.2373 1361.96 20.2021 1364.72 15.9368L1364.73 15.9253C1367.56 11.6792 1371.47 8.44204 1376.42 6.21093C1381.38 3.89816 1387.21 2.76001 1393.88 2.76001C1400.87 2.76001 1406.91 3.97824 1411.95 6.45836C1417.07 8.85356 1421.02 12.2979 1423.77 16.7946C1426.52 21.2156 1427.88 26.4038 1427.88 32.32V33.32H1406.68V32.32C1406.68 30.3284 1406.2 28.5458 1405.26 26.9487L1405.25 26.9405L1405.25 26.9321C1404.31 25.2752 1402.9 23.9219 1400.97 22.8805L1400.96 22.8766L1400.95 22.8725C1399.14 21.859 1396.8 21.32 1393.88 21.32C1391.11 21.32 1388.83 21.7815 1387 22.6581C1385.24 23.5395 1383.96 24.7281 1383.11 26.2162L1383.1 26.2254L1383.1 26.2345C1382.23 27.6744 1381.8 29.2557 1381.8 31C1381.8 33.2149 1382.58 35.1294 1384.16 36.7888C1385.68 38.3738 1388.27 39.412 1392.16 39.7232L1392.17 39.7239L1398.89 40.3238L1398.89 40.324C1405.38 40.8919 1411.13 42.314 1416.13 44.6083C1421.15 46.8294 1425.09 49.9326 1427.93 53.9324C1430.87 57.8899 1432.32 62.7052 1432.32 68.32C1432.32 74.106 1430.79 79.2289 1427.7 83.6504C1424.7 87.9859 1420.42 91.3354 1414.92 93.7177C1409.4 96.1047 1402.86 97.28 1395.32 97.28C1387.3 97.28 1380.47 96.0253 1374.86 93.4699L1374.85 93.4648Z" stroke-dasharray="0,0,0,474.4904479980469"><animate attributeType="XML" attributeName="stroke-dasharray" repeatCount="1" dur="1.4705882352941178s" values="0,0,0,474.4904479980469; 
          0,237.24522399902344,237.24522399902344,0; 
          474.4904479980469,0,0,0" keyTimes="0; 0.5; 1" fill="freeze"></animate></path>
<path fill-rule="evenodd" clip-rule="evenodd" d="M1496.42 66.1064C1490.98 68.6628 1484.47 69.92 1476.92 69.92H1465.56V95H1443.88V4.68001H1476.92C1484.47 4.68001 1490.98 5.93724 1496.42 8.49359C1501.94 11.0464 1506.17 14.6896 1509.09 19.4314C1512.08 24.1779 1513.56 29.8492 1513.56 36.4V38.32C1513.56 44.718 1512.08 50.3454 1509.09 55.1647C1506.18 59.9084 1501.94 63.5529 1496.42 66.1064ZM1465.56 23.72V50.88H1477.88C1480.79 50.88 1483.21 50.3064 1485.19 49.2059L1485.2 49.2021L1485.21 49.1985C1487.28 48.0877 1488.86 46.545 1489.96 44.561C1491.07 42.4862 1491.64 40.0945 1491.64 37.36C1491.64 34.4512 1491.07 32.0266 1489.96 30.0457L1489.96 30.039L1489.96 30.0322C1488.85 27.9716 1487.28 26.4405 1485.23 25.4144L1485.21 25.4047L1485.19 25.3942C1483.21 24.2937 1480.79 23.72 1477.88 23.72H1465.56Z" stroke-dasharray="0,0,0,388.4367370605469"><animate attributeType="XML" attributeName="stroke-dasharray" repeatCount="1" dur="1.4705882352941178s" values="0,0,0,388.4367370605469; 
          0,194.21836853027344,194.21836853027344,0; 
          388.4367370605469,0,0,0" keyTimes="0; 0.5; 1" fill="freeze"></animate></path>
<path fill-rule="evenodd" clip-rule="evenodd" d="M1523.92 95V4.68001H1559.36C1566.74 4.68001 1573.19 5.81436 1578.7 8.11497C1584.22 10.3414 1588.51 13.7007 1591.51 18.2053C1594.53 22.728 1596 28.3745 1596 35.08V37C1596 43.6323 1594.48 49.2411 1591.38 53.7629C1588.65 57.7822 1584.86 60.8872 1580.06 63.0896L1602.82 95H1577.55L1558.41 66.92H1545.6V95H1523.92ZM1545.6 23.36H1560.92C1563.66 23.36 1565.96 23.9298 1567.86 25.0262L1567.88 25.0374L1567.9 25.0478C1569.87 26.0728 1571.37 27.5635 1572.39 29.5403L1572.4 29.5603L1572.41 29.5797C1573.51 31.4842 1574.08 33.746 1574.08 36.4C1574.08 39.053 1573.51 41.3618 1572.4 43.3543L1572.4 43.3659C1571.37 45.2679 1569.88 46.7716 1567.88 47.8829C1565.97 48.9068 1563.67 49.44 1560.92 49.44H1545.6V23.36Z" stroke-dasharray="0,0,0,473.786376953125"><animate attributeType="XML" attributeName="stroke-dasharray" repeatCount="1" dur="1.4705882352941178s" values="0,0,0,473.786376953125; 
          0,236.8931884765625,236.8931884765625,0; 
          473.786376953125,0,0,0" keyTimes="0; 0.5; 1" fill="freeze"></animate></path>
<path d="M1611.81 95V5.40001H1633.49V95H1611.81Z" stroke-dasharray="0,0,0,222.55984497070312"><animate attributeType="XML" attributeName="stroke-dasharray" repeatCount="1" dur="1.4705882352941178s" values="0,0,0,222.55984497070312; 
          0,111.27992248535156,111.27992248535156,0; 
          222.55984497070312,0,0,0" keyTimes="0; 0.5; 1" fill="freeze"></animate></path>
<path d="M1651.42 95V5.40001H1685.34L1718.34 77.04H1718.38V5.40001H1738.86V95H1704.7L1671.7 23.36H1671.66V95H1651.42Z" stroke-dasharray="0,0,0,589.110107421875"><animate attributeType="XML" attributeName="stroke-dasharray" repeatCount="1" dur="1.4705882352941178s" values="0,0,0,589.110107421875; 
          0,294.5550537109375,294.5550537109375,0; 
          589.110107421875,0,0,0" keyTimes="0; 0.5; 1" fill="freeze"></animate></path>
<path d="M1778.13 93.3559L1778.12 93.3513C1772.17 90.658 1767.2 87.0558 1763.26 82.5376L1763.25 82.5297C1759.41 78.0361 1756.55 73.0463 1754.67 67.5647C1752.8 62.1062 1751.85 56.6367 1751.85 51.16V48.52C1751.85 42.8865 1752.79 37.3753 1754.67 31.9909C1756.55 26.5923 1759.37 21.6843 1763.13 17.2715L1763.14 17.2635C1767 12.8309 1771.75 9.30823 1777.39 6.69282L1777.4 6.69052C1783.15 4.061 1789.74 2.76001 1797.14 2.76001C1805.18 2.76001 1812.33 4.26316 1818.57 7.2982C1824.79 10.2466 1829.8 14.3931 1833.59 19.7382C1837.38 25.0172 1839.56 31.1532 1840.13 38.1179L1840.22 39.2H1818.59L1818.47 38.3484C1818.01 35.3322 1816.81 32.7088 1814.86 30.4549L1814.85 30.4476L1814.85 30.4402C1812.96 28.1754 1810.49 26.3853 1807.42 25.0803L1807.42 25.0767C1804.44 23.7804 1801.02 23.12 1797.14 23.12C1793.42 23.12 1790.12 23.7778 1787.23 25.0708C1784.4 26.3696 1781.96 28.2002 1779.9 30.5695C1777.91 32.9376 1776.37 35.7771 1775.29 39.1037C1774.28 42.352 1773.78 45.968 1773.78 49.96C1773.78 54.1067 1774.32 57.8784 1775.4 61.2837C1776.56 64.603 1778.22 67.4828 1780.36 69.9351C1782.49 72.2945 1785.13 74.1288 1788.27 75.4345C1791.5 76.7396 1795.09 77.4 1799.06 77.4C1804.36 77.4 1808.9 76.3096 1812.73 74.1675C1815.04 72.8739 1816.94 71.3405 1818.46 69.5692V63.56H1795.54V47.4H1845.78V63.56H1838.58V77.7242L1838.43 77.966C1834.56 84.2112 1829.22 89.0168 1822.42 92.3766L1822.41 92.3788C1815.69 95.6571 1807.9 97.28 1799.06 97.28C1791.11 97.28 1784.13 95.9826 1778.13 93.3559Z" stroke-dasharray="0,0,0,545.6508178710938"><animate attributeType="XML" attributeName="stroke-dasharray" repeatCount="1" dur="1.4705882352941178s" values="0,0,0,545.6508178710938; 
          0,272.8254089355469,272.8254089355469,0; 
          545.6508178710938,0,0,0" keyTimes="0; 0.5; 1" fill="freeze"></animate></path>
<path d="M19.2797 92.56C24.7197 95.04 31.3997 96.28 39.3197 96.28C46.7597 96.28 53.1597 95.12 58.5197 92.8C63.8797 90.48 67.9997 87.24 70.8797 83.08C73.8397 78.84 75.3197 73.92 75.3197 68.32C75.3197 62.88 73.9197 58.28 71.1197 54.52C68.3997 50.68 64.5997 47.68 59.7197 45.52C54.8397 43.28 49.1997 41.88 42.7997 41.32L36.0797 40.72C32.0797 40.4 29.1997 39.32 27.4397 37.48C25.6797 35.64 24.7997 33.48 24.7997 31C24.7997 29.08 25.2797 27.32 26.2397 25.72C27.1997 24.04 28.6397 22.72 30.5597 21.76C32.5597 20.8 34.9997 20.32 37.8797 20.32C40.9197 20.32 43.4397 20.88 45.4397 22C47.5197 23.12 49.0797 24.6 50.1197 26.44C51.1597 28.2 51.6797 30.16 51.6797 32.32H70.8797C70.8797 26.56 69.5597 21.56 66.9197 17.32C64.2797 13 60.4797 9.68001 55.5197 7.36001C50.6397 4.96001 44.7597 3.76001 37.8797 3.76001C31.3197 3.76001 25.6397 4.88001 20.8397 7.12001C16.0397 9.28001 12.2797 12.4 9.55973 16.48C6.91973 20.56 5.59973 25.4 5.59973 31C5.59973 38.76 8.19973 45 13.3997 49.72C18.5997 54.44 25.5597 57.16 34.2797 57.88L40.8797 58.48C46.2397 58.96 50.1197 60.04 52.5197 61.72C54.9197 63.32 56.1197 65.52 56.1197 68.32C56.1197 70.56 55.4797 72.56 54.1997 74.32C52.9197 76 51.0397 77.32 48.5597 78.28C46.0797 79.24 42.9997 79.72 39.3197 79.72C35.2397 79.72 31.9197 79.16 29.3597 78.04C26.7997 76.84 24.8797 75.28 23.5997 73.36C22.3997 71.44 21.7997 69.36 21.7997 67.12H2.71973C2.71973 72.8 4.11973 77.84 6.91973 82.24C9.71973 86.56 13.8397 90 19.2797 92.56Z" stroke-dasharray="0,0,0,466.48052978515625"><animate attributeType="XML" attributeName="stroke-dasharray" repeatCount="1" dur="1.4705882352941178s" values="0,0,0,466.48052978515625; 
          0,233.24026489257812,233.24026489257812,0; 
          466.48052978515625,0,0,0" keyTimes="0; 0.5; 1" fill="freeze"></animate></path>
<path fill-rule="evenodd" clip-rule="evenodd" d="M108.559 68.92V94H88.8788V5.68001H120.919C128.359 5.68001 134.719 6.92001 139.999 9.40001C145.359 11.88 149.439 15.4 152.239 19.96C155.119 24.52 156.559 30 156.559 36.4V38.32C156.559 44.56 155.119 50 152.239 54.64C149.439 59.2 145.359 62.72 139.999 65.2C134.719 67.68 128.359 68.92 120.919 68.92H108.559ZM108.559 51.88H121.879C124.919 51.88 127.519 51.28 129.679 50.08C131.919 48.88 133.639 47.2 134.839 45.04C136.039 42.8 136.639 40.24 136.639 37.36C136.639 34.32 136.039 31.72 134.839 29.56C133.639 27.32 131.919 25.64 129.679 24.52C127.519 23.32 124.919 22.72 121.879 22.72H108.559V51.88Z" stroke-dasharray="0,0,0,388.4388427734375"><animate attributeType="XML" attributeName="stroke-dasharray" repeatCount="1" dur="1.4705882352941178s" values="0,0,0,388.4388427734375; 
          0,194.21942138671875,194.21942138671875,0; 
          388.4388427734375,0,0,0" keyTimes="0; 0.5; 1" fill="freeze"></animate></path>
<path fill-rule="evenodd" clip-rule="evenodd" d="M168.918 94V5.68001H203.358C210.638 5.68001 216.958 6.80001 222.318 9.04001C227.678 11.2 231.798 14.44 234.678 18.76C237.558 23.08 238.998 28.52 238.998 35.08V37C238.998 43.48 237.518 48.88 234.558 53.2C231.737 57.3533 227.726 60.5087 222.525 62.6662L244.878 94H222.078L202.941 65.92H188.598V94H168.918ZM188.598 50.44V22.36H204.918C207.798 22.36 210.278 22.96 212.358 24.16C214.518 25.28 216.158 26.92 217.278 29.08C218.478 31.16 219.078 33.6 219.078 36.4C219.078 39.2 218.478 41.68 217.278 43.84C216.158 45.92 214.518 47.56 212.358 48.76C210.278 49.88 207.798 50.44 204.918 50.44H188.598Z" stroke-dasharray="0,0,0,472.79345703125"><animate attributeType="XML" attributeName="stroke-dasharray" repeatCount="1" dur="1.4705882352941178s" values="0,0,0,472.79345703125; 
          0,236.396728515625,236.396728515625,0; 
          472.79345703125,0,0,0" keyTimes="0; 0.5; 1" fill="freeze"></animate></path>
<path d="M256.814 6.40001V94H276.494V6.40001H256.814Z" stroke-dasharray="0,0,0,214.55996704101562"><animate attributeType="XML" attributeName="stroke-dasharray" repeatCount="1" dur="1.4705882352941178s" values="0,0,0,214.55996704101562; 
          0,107.27998352050781,107.27998352050781,0; 
          214.55996704101562,0,0,0" keyTimes="0; 0.5; 1" fill="freeze"></animate></path>
<path d="M296.418 94V6.40001H328.698L361.698 78.04H363.378V6.40001H381.858V94H349.338L316.338 22.36H314.658V94H296.418Z" stroke-dasharray="0,0,0,581.1102294921875"><animate attributeType="XML" attributeName="stroke-dasharray" repeatCount="1" dur="1.4705882352941178s" values="0,0,0,581.1102294921875; 
          0,290.55511474609375,290.55511474609375,0; 
          581.1102294921875,0,0,0" keyTimes="0; 0.5; 1" fill="freeze"></animate></path>
<path d="M422.535 92.44C428.375 95 435.215 96.28 443.055 96.28C451.775 96.28 459.415 94.68 465.975 91.48C472.615 88.2 477.815 83.52 481.575 77.44V62.56H488.775V48.4H440.535V62.56H463.455V69.9326C461.822 71.9224 459.742 73.6249 457.215 75.04C453.215 77.28 448.495 78.4 443.055 78.4C438.975 78.4 435.255 77.72 431.895 76.36C428.615 75 425.855 73.08 423.615 70.6C421.375 68.04 419.655 65.04 418.455 61.6C417.335 58.08 416.775 54.2 416.775 49.96C416.775 45.88 417.295 42.16 418.335 38.8C419.455 35.36 421.055 32.4 423.135 29.92C425.295 27.44 427.855 25.52 430.815 24.16C433.855 22.8 437.295 22.12 441.135 22.12C445.135 22.12 448.695 22.8 451.815 24.16C455.015 25.52 457.615 27.4 459.615 29.8C461.695 32.2 462.975 35 463.455 38.2H483.135C482.575 31.4 480.455 25.44 476.775 20.32C473.095 15.12 468.215 11.08 462.135 8.20001C456.055 5.24001 449.055 3.76001 441.135 3.76001C433.855 3.76001 427.415 5.04001 421.815 7.60001C416.295 10.16 411.655 13.6 407.895 17.92C404.215 22.24 401.455 27.04 399.615 32.32C397.775 37.6 396.855 43 396.855 48.52V51.16C396.855 56.52 397.775 61.88 399.615 67.24C401.455 72.6 404.255 77.48 408.015 81.88C411.855 86.28 416.695 89.8 422.535 92.44Z" stroke-dasharray="0,0,0,537.686279296875"><animate attributeType="XML" attributeName="stroke-dasharray" repeatCount="1" dur="1.4705882352941178s" values="0,0,0,537.686279296875; 
          0,268.8431396484375,268.8431396484375,0; 
          537.686279296875,0,0,0" keyTimes="0; 0.5; 1" fill="freeze"></animate></path>
<path d="M546.491 92.2C540.811 89.4 536.171 85.76 532.571 81.28C528.971 76.72 526.291 71.84 524.531 66.64C522.851 61.36 522.011 56.24 522.011 51.28V48.64C522.011 43.2 522.891 37.84 524.651 32.56C526.411 27.2 529.091 22.36 532.691 18.04C536.371 13.72 540.971 10.28 546.491 7.72001C552.091 5.08001 558.691 3.76001 566.291 3.76001C574.211 3.76001 581.211 5.24001 587.291 8.20001C593.371 11.16 598.211 15.28 601.811 20.56C605.491 25.76 607.651 31.88 608.291 38.92H588.491C587.931 35.4 586.651 32.4 584.651 29.92C582.651 27.44 580.051 25.52 576.851 24.16C573.731 22.8 570.211 22.12 566.291 22.12C562.371 22.12 558.891 22.8 555.851 24.16C552.811 25.52 550.251 27.44 548.171 29.92C546.171 32.4 544.611 35.36 543.491 38.8C542.451 42.16 541.931 45.92 541.931 50.08C541.931 54.16 542.451 57.92 543.491 61.36C544.611 64.72 546.211 67.68 548.291 70.24C550.451 72.72 553.091 74.64 556.211 76C559.331 77.28 562.891 77.92 566.891 77.92C572.971 77.92 578.091 76.44 582.251 73.48C586.491 70.52 589.051 66.44 589.931 61.24H609.611C608.891 67.64 606.731 73.52 603.131 78.88C599.611 84.16 594.771 88.4 588.611 91.6C582.531 94.72 575.291 96.28 566.891 96.28C558.971 96.28 552.171 94.92 546.491 92.2Z" stroke-dasharray="0,0,0,451.64202880859375"><animate attributeType="XML" attributeName="stroke-dasharray" repeatCount="1" dur="1.4705882352941178s" values="0,0,0,451.64202880859375; 
          0,225.82101440429688,225.82101440429688,0; 
          451.64202880859375,0,0,0" keyTimes="0; 0.5; 1" fill="freeze"></animate></path>
<path fill-rule="evenodd" clip-rule="evenodd" d="M643.908 92.2C649.828 94.92 656.748 96.28 664.668 96.28C672.588 96.28 679.468 94.92 685.308 92.2C691.228 89.4 696.108 85.76 699.948 81.28C703.788 76.72 706.668 71.8 708.588 66.52C710.508 61.24 711.468 56.16 711.468 51.28V48.64C711.468 43.2 710.468 37.84 708.468 32.56C706.468 27.2 703.508 22.36 699.588 18.04C695.668 13.72 690.788 10.28 684.948 7.72001C679.108 5.08001 672.348 3.76001 664.668 3.76001C656.988 3.76001 650.228 5.08001 644.388 7.72001C638.548 10.28 633.668 13.72 629.748 18.04C625.828 22.36 622.868 27.2 620.868 32.56C618.948 37.84 617.988 43.2 617.988 48.64V51.28C617.988 56.16 618.908 61.24 620.748 66.52C622.668 71.8 625.548 76.72 629.388 81.28C633.228 85.76 638.068 89.4 643.908 92.2ZM675.828 75.76C672.548 77.2 668.828 77.92 664.668 77.92C660.508 77.92 656.788 77.2 653.508 75.76C650.228 74.32 647.388 72.32 644.988 69.76C642.668 67.2 640.908 64.24 639.708 60.88C638.508 57.52 637.908 53.92 637.908 50.08C637.908 46 638.508 42.28 639.708 38.92C640.908 35.48 642.668 32.52 644.988 30.04C647.388 27.48 650.228 25.52 653.508 24.16C656.788 22.8 660.508 22.12 664.668 22.12C668.828 22.12 672.548 22.8 675.828 24.16C679.108 25.52 681.908 27.48 684.228 30.04C686.628 32.52 688.428 35.48 689.628 38.92C690.908 42.28 691.548 46 691.548 50.08C691.548 53.92 690.948 57.52 689.748 60.88C688.548 64.24 686.748 67.2 684.348 69.76C682.028 72.32 679.188 74.32 675.828 75.76Z" stroke-dasharray="0,0,0,468.90362548828125"><animate attributeType="XML" attributeName="stroke-dasharray" repeatCount="1" dur="1.4705882352941178s" values="0,0,0,468.90362548828125; 
          0,234.45181274414062,234.45181274414062,0; 
          468.90362548828125,0,0,0" keyTimes="0; 0.5; 1" fill="freeze"></animate></path>
<path d="M726.379 94V6.40001H746.059V76.72H780.379V94H726.379Z" stroke-dasharray="0,0,0,283.1999816894531"><animate attributeType="XML" attributeName="stroke-dasharray" repeatCount="1" dur="1.4705882352941178s" values="0,0,0,283.1999816894531; 
          0,141.59999084472656,141.59999084472656,0; 
          283.1999816894531,0,0,0" keyTimes="0; 0.5; 1" fill="freeze"></animate></path>
<path d="M793.293 6.40001V94H847.293V76.72H812.973V6.40001H793.293Z" stroke-dasharray="0,0,0,283.1999816894531"><animate attributeType="XML" attributeName="stroke-dasharray" repeatCount="1" dur="1.4705882352941178s" values="0,0,0,283.1999816894531; 
          0,141.59999084472656,141.59999084472656,0; 
          283.1999816894531,0,0,0" keyTimes="0; 0.5; 1" fill="freeze"></animate></path>
<path d="M860.207 94V6.40001H914.447V22.72H879.407V41.32H912.527V57.64H879.407V77.68H915.287V94H860.207Z" stroke-dasharray="0,0,0,421.68011474609375"><animate attributeType="XML" attributeName="stroke-dasharray" repeatCount="1" dur="1.4705882352941178s" values="0,0,0,421.68011474609375; 
          0,210.84005737304688,210.84005737304688,0; 
          421.68011474609375,0,0,0" keyTimes="0; 0.5; 1" fill="freeze"></animate></path>
<path d="M936.399 81.28C939.999 85.76 944.639 89.4 950.319 92.2C955.999 94.92 962.799 96.28 970.719 96.28C979.119 96.28 986.359 94.72 992.439 91.6C998.599 88.4 1003.44 84.16 1006.96 78.88C1010.56 73.52 1012.72 67.64 1013.44 61.24H993.759C992.879 66.44 990.319 70.52 986.079 73.48C981.919 76.44 976.799 77.92 970.719 77.92C966.719 77.92 963.159 77.28 960.039 76C956.919 74.64 954.279 72.72 952.119 70.24C950.039 67.68 948.439 64.72 947.319 61.36C946.279 57.92 945.759 54.16 945.759 50.08C945.759 45.92 946.279 42.16 947.319 38.8C948.439 35.36 949.999 32.4 951.999 29.92C954.079 27.44 956.639 25.52 959.679 24.16C962.719 22.8 966.199 22.12 970.119 22.12C974.039 22.12 977.559 22.8 980.679 24.16C983.879 25.52 986.479 27.44 988.479 29.92C990.479 32.4 991.759 35.4 992.319 38.92H1012.12C1011.48 31.88 1009.32 25.76 1005.64 20.56C1002.04 15.28 997.199 11.16 991.119 8.20001C985.039 5.24001 978.039 3.76001 970.119 3.76001C962.519 3.76001 955.919 5.08001 950.319 7.72001C944.799 10.28 940.199 13.72 936.519 18.04C932.919 22.36 930.239 27.2 928.479 32.56C926.719 37.84 925.839 43.2 925.839 48.64V51.28C925.839 56.24 926.679 61.36 928.359 66.64C930.119 71.84 932.799 76.72 936.399 81.28Z" stroke-dasharray="0,0,0,451.64593505859375"><animate attributeType="XML" attributeName="stroke-dasharray" repeatCount="1" dur="1.4705882352941178s" values="0,0,0,451.64593505859375; 
          0,225.82296752929688,225.82296752929688,0; 
          451.64593505859375,0,0,0" keyTimes="0; 0.5; 1" fill="freeze"></animate></path>
<path d="M1043.08 94V23.56H1018.48V6.40001H1087.48V23.56H1062.76V94H1043.08Z" stroke-dasharray="0,0,0,313.1999816894531"><animate attributeType="XML" attributeName="stroke-dasharray" repeatCount="1" dur="1.4705882352941178s" values="0,0,0,313.1999816894531; 
          0,156.59999084472656,156.59999084472656,0; 
          313.1999816894531,0,0,0" keyTimes="0; 0.5; 1" fill="freeze"></animate></path>
<path d="M1100.1 6.40001V94H1119.78V6.40001H1100.1Z" stroke-dasharray="0,0,0,214.56008911132812"><animate attributeType="XML" attributeName="stroke-dasharray" repeatCount="1" dur="1.4705882352941178s" values="0,0,0,214.56008911132812; 
          0,107.28004455566406,107.28004455566406,0; 
          214.56008911132812,0,0,0" keyTimes="0; 0.5; 1" fill="freeze"></animate></path>
<path fill-rule="evenodd" clip-rule="evenodd" d="M1181.7 96.28C1173.78 96.28 1166.86 94.92 1160.94 92.2C1155.1 89.4 1150.26 85.76 1146.42 81.28C1142.58 76.72 1139.7 71.8 1137.78 66.52C1135.94 61.24 1135.02 56.16 1135.02 51.28V48.64C1135.02 43.2 1135.98 37.84 1137.9 32.56C1139.9 27.2 1142.86 22.36 1146.78 18.04C1150.7 13.72 1155.58 10.28 1161.42 7.72001C1167.26 5.08001 1174.02 3.76001 1181.7 3.76001C1189.38 3.76001 1196.14 5.08001 1201.98 7.72001C1207.82 10.28 1212.7 13.72 1216.62 18.04C1220.54 22.36 1223.5 27.2 1225.5 32.56C1227.5 37.84 1228.5 43.2 1228.5 48.64V51.28C1228.5 56.16 1227.54 61.24 1225.62 66.52C1223.7 71.8 1220.82 76.72 1216.98 81.28C1213.14 85.76 1208.26 89.4 1202.34 92.2C1196.5 94.92 1189.62 96.28 1181.7 96.28ZM1181.7 77.92C1185.86 77.92 1189.58 77.2 1192.86 75.76C1196.22 74.32 1199.06 72.32 1201.38 69.76C1203.78 67.2 1205.58 64.24 1206.78 60.88C1207.98 57.52 1208.58 53.92 1208.58 50.08C1208.58 46 1207.94 42.28 1206.66 38.92C1205.46 35.48 1203.66 32.52 1201.26 30.04C1198.94 27.48 1196.14 25.52 1192.86 24.16C1189.58 22.8 1185.86 22.12 1181.7 22.12C1177.54 22.12 1173.82 22.8 1170.54 24.16C1167.26 25.52 1164.42 27.48 1162.02 30.04C1159.7 32.52 1157.94 35.48 1156.74 38.92C1155.54 42.28 1154.94 46 1154.94 50.08C1154.94 53.92 1155.54 57.52 1156.74 60.88C1157.94 64.24 1159.7 67.2 1162.02 69.76C1164.42 72.32 1167.26 74.32 1170.54 75.76C1173.82 77.2 1177.54 77.92 1181.7 77.92Z" stroke-dasharray="0,0,0,468.9047546386719"><animate attributeType="XML" attributeName="stroke-dasharray" repeatCount="1" dur="1.4705882352941178s" values="0,0,0,468.9047546386719; 
          0,234.45237731933594,234.45237731933594,0; 
          468.9047546386719,0,0,0" keyTimes="0; 0.5; 1" fill="freeze"></animate></path>
<path d="M1243.41 6.40001V94H1261.65V22.36H1263.33L1296.33 94H1328.85V6.40001H1310.37V78.04H1308.69L1275.69 6.40001H1243.41Z" stroke-dasharray="0,0,0,581.1101684570312"><animate attributeType="XML" attributeName="stroke-dasharray" repeatCount="1" dur="1.4705882352941178s" values="0,0,0,581.1101684570312; 
          0,290.5550842285156,290.5550842285156,0; 
          581.1101684570312,0,0,0" keyTimes="0; 0.5; 1" fill="freeze"></animate></path>
<path d="M1885.72 81.28C1889.32 85.76 1893.96 89.4 1899.64 92.2C1905.32 94.92 1912.12 96.28 1920.04 96.28C1928.44 96.28 1935.68 94.72 1941.76 91.6C1947.92 88.4 1952.76 84.16 1956.28 78.88C1959.88 73.52 1962.04 67.64 1962.76 61.24H1943.08C1942.2 66.44 1939.64 70.52 1935.4 73.48C1931.24 76.44 1926.12 77.92 1920.04 77.92C1916.04 77.92 1912.48 77.28 1909.36 76C1906.24 74.64 1903.6 72.72 1901.44 70.24C1899.36 67.68 1897.76 64.72 1896.64 61.36C1895.6 57.92 1895.08 54.16 1895.08 50.08C1895.08 45.92 1895.6 42.16 1896.64 38.8C1897.76 35.36 1899.32 32.4 1901.32 29.92C1903.4 27.44 1905.96 25.52 1909 24.16C1912.04 22.8 1915.52 22.12 1919.44 22.12C1923.36 22.12 1926.88 22.8 1930 24.16C1933.2 25.52 1935.8 27.44 1937.8 29.92C1939.8 32.4 1941.08 35.4 1941.64 38.92H1961.44C1960.8 31.88 1958.64 25.76 1954.96 20.56C1951.36 15.28 1946.52 11.16 1940.44 8.20001C1934.36 5.24001 1927.36 3.76001 1919.44 3.76001C1911.84 3.76001 1905.24 5.08001 1899.64 7.72001C1894.12 10.28 1889.52 13.72 1885.84 18.04C1882.24 22.36 1879.56 27.2 1877.8 32.56C1876.04 37.84 1875.16 43.2 1875.16 48.64V51.28C1875.16 56.24 1876 61.36 1877.68 66.64C1879.44 71.84 1882.12 76.72 1885.72 81.28Z" stroke-dasharray="0,0,0,451.64300537109375"><animate attributeType="XML" attributeName="stroke-dasharray" repeatCount="1" dur="1.4705882352941178s" values="0,0,0,451.64300537109375; 
          0,225.82150268554688,225.82150268554688,0; 
          451.64300537109375,0,0,0" keyTimes="0; 0.5; 1" fill="freeze"></animate></path>
<path fill-rule="evenodd" clip-rule="evenodd" d="M1997.06 92.2C2002.98 94.92 2009.9 96.28 2017.82 96.28C2025.74 96.28 2032.62 94.92 2038.46 92.2C2044.38 89.4 2049.26 85.76 2053.1 81.28C2056.94 76.72 2059.82 71.8 2061.74 66.52C2063.66 61.24 2064.62 56.16 2064.62 51.28V48.64C2064.62 43.2 2063.62 37.84 2061.62 32.56C2059.62 27.2 2056.66 22.36 2052.74 18.04C2048.82 13.72 2043.94 10.28 2038.1 7.72001C2032.26 5.08001 2025.5 3.76001 2017.82 3.76001C2010.14 3.76001 2003.38 5.08001 1997.54 7.72001C1991.7 10.28 1986.82 13.72 1982.9 18.04C1978.98 22.36 1976.02 27.2 1974.02 32.56C1972.1 37.84 1971.14 43.2 1971.14 48.64V51.28C1971.14 56.16 1972.06 61.24 1973.9 66.52C1975.82 71.8 1978.7 76.72 1982.54 81.28C1986.38 85.76 1991.22 89.4 1997.06 92.2ZM2028.98 75.76C2025.7 77.2 2021.98 77.92 2017.82 77.92C2013.66 77.92 2009.94 77.2 2006.66 75.76C2003.38 74.32 2000.54 72.32 1998.14 69.76C1995.82 67.2 1994.06 64.24 1992.86 60.88C1991.66 57.52 1991.06 53.92 1991.06 50.08C1991.06 46 1991.66 42.28 1992.86 38.92C1994.06 35.48 1995.82 32.52 1998.14 30.04C2000.54 27.48 2003.38 25.52 2006.66 24.16C2009.94 22.8 2013.66 22.12 2017.82 22.12C2021.98 22.12 2025.7 22.8 2028.98 24.16C2032.26 25.52 2035.06 27.48 2037.38 30.04C2039.78 32.52 2041.58 35.48 2042.78 38.92C2044.06 42.28 2044.7 46 2044.7 50.08C2044.7 53.92 2044.1 57.52 2042.9 60.88C2041.7 64.24 2039.9 67.2 2037.5 69.76C2035.18 72.32 2032.34 74.32 2028.98 75.76Z" stroke-dasharray="0,0,0,468.90545654296875"><animate attributeType="XML" attributeName="stroke-dasharray" repeatCount="1" dur="1.4705882352941178s" values="0,0,0,468.90545654296875; 
          0,234.45272827148438,234.45272827148438,0; 
          468.90545654296875,0,0,0" keyTimes="0; 0.5; 1" fill="freeze"></animate></path>
<path d="M2079.53 94V6.40001H2099.21V76.72H2133.53V94H2079.53Z" stroke-dasharray="0,0,0,283.1999816894531"><animate attributeType="XML" attributeName="stroke-dasharray" repeatCount="1" dur="1.4705882352941178s" values="0,0,0,283.1999816894531; 
          0,141.59999084472656,141.59999084472656,0; 
          283.1999816894531,0,0,0" keyTimes="0; 0.5; 1" fill="freeze"></animate></path>
<path d="M2146.44 6.40001V94H2200.44V76.72H2166.12V6.40001H2146.44Z" stroke-dasharray="0,0,0,283.1999816894531"><animate attributeType="XML" attributeName="stroke-dasharray" repeatCount="1" dur="1.4705882352941178s" values="0,0,0,283.1999816894531; 
          0,141.59999084472656,141.59999084472656,0; 
          283.1999816894531,0,0,0" keyTimes="0; 0.5; 1" fill="freeze"></animate></path>
<path d="M2213.36 94V6.40001H2267.6V22.72H2232.56V41.32H2265.68V57.64H2232.56V77.68H2268.44V94H2213.36Z" stroke-dasharray="0,0,0,421.67950439453125"><animate attributeType="XML" attributeName="stroke-dasharray" repeatCount="1" dur="1.4705882352941178s" values="0,0,0,421.67950439453125; 
          0,210.83975219726562,210.83975219726562,0; 
          421.67950439453125,0,0,0" keyTimes="0; 0.5; 1" fill="freeze"></animate></path>
<path d="M2303.47 92.2C2309.15 94.92 2315.95 96.28 2323.87 96.28C2332.27 96.28 2339.51 94.72 2345.59 91.6C2351.75 88.4 2356.59 84.16 2360.11 78.88C2363.71 73.52 2365.87 67.64 2366.59 61.24H2346.91C2346.03 66.44 2343.47 70.52 2339.23 73.48C2335.07 76.44 2329.95 77.92 2323.87 77.92C2319.87 77.92 2316.31 77.28 2313.19 76C2310.07 74.64 2307.43 72.72 2305.27 70.24C2303.19 67.68 2301.59 64.72 2300.47 61.36C2299.43 57.92 2298.91 54.16 2298.91 50.08C2298.91 45.92 2299.43 42.16 2300.47 38.8C2301.59 35.36 2303.15 32.4 2305.15 29.92C2307.23 27.44 2309.79 25.52 2312.83 24.16C2315.87 22.8 2319.35 22.12 2323.27 22.12C2327.19 22.12 2330.71 22.8 2333.83 24.16C2337.03 25.52 2339.63 27.44 2341.63 29.92C2343.63 32.4 2344.91 35.4 2345.47 38.92H2365.27C2364.63 31.88 2362.47 25.76 2358.79 20.56C2355.19 15.28 2350.35 11.16 2344.27 8.20001C2338.19 5.24001 2331.19 3.76001 2323.27 3.76001C2315.67 3.76001 2309.07 5.08001 2303.47 7.72001C2297.95 10.28 2293.35 13.72 2289.67 18.04C2286.07 22.36 2283.39 27.2 2281.63 32.56C2279.87 37.84 2278.99 43.2 2278.99 48.64V51.28C2278.99 56.24 2279.83 61.36 2281.51 66.64C2283.27 71.84 2285.95 76.72 2289.55 81.28C2293.15 85.76 2297.79 89.4 2303.47 92.2Z" stroke-dasharray="0,0,0,451.6435852050781"><animate attributeType="XML" attributeName="stroke-dasharray" repeatCount="1" dur="1.4705882352941178s" values="0,0,0,451.6435852050781; 
          0,225.82179260253906,225.82179260253906,0; 
          451.6435852050781,0,0,0" keyTimes="0; 0.5; 1" fill="freeze"></animate></path>
<path d="M2396.22 94V23.56H2371.62V6.40001H2440.62V23.56H2415.9V94H2396.22Z" stroke-dasharray="0,0,0,313.1999816894531"><animate attributeType="XML" attributeName="stroke-dasharray" repeatCount="1" dur="1.4705882352941178s" values="0,0,0,313.1999816894531; 
          0,156.59999084472656,156.59999084472656,0; 
          313.1999816894531,0,0,0" keyTimes="0; 0.5; 1" fill="freeze"></animate></path>
<path d="M2453.24 6.40001V94H2472.92V6.40001H2453.24Z" stroke-dasharray="0,0,0,214.55984497070312"><animate attributeType="XML" attributeName="stroke-dasharray" repeatCount="1" dur="1.4705882352941178s" values="0,0,0,214.55984497070312; 
          0,107.27992248535156,107.27992248535156,0; 
          214.55984497070312,0,0,0" keyTimes="0; 0.5; 1" fill="freeze"></animate></path>
<path fill-rule="evenodd" clip-rule="evenodd" d="M2534.85 96.28C2526.93 96.28 2520.01 94.92 2514.09 92.2C2508.25 89.4 2503.41 85.76 2499.57 81.28C2495.73 76.72 2492.85 71.8 2490.93 66.52C2489.09 61.24 2488.17 56.16 2488.17 51.28V48.64C2488.17 43.2 2489.13 37.84 2491.05 32.56C2493.05 27.2 2496.01 22.36 2499.93 18.04C2503.85 13.72 2508.73 10.28 2514.57 7.72001C2520.41 5.08001 2527.17 3.76001 2534.85 3.76001C2542.53 3.76001 2549.29 5.08001 2555.13 7.72001C2560.97 10.28 2565.85 13.72 2569.77 18.04C2573.69 22.36 2576.65 27.2 2578.65 32.56C2580.65 37.84 2581.65 43.2 2581.65 48.64V51.28C2581.65 56.16 2580.69 61.24 2578.77 66.52C2576.85 71.8 2573.97 76.72 2570.13 81.28C2566.29 85.76 2561.41 89.4 2555.49 92.2C2549.65 94.92 2542.77 96.28 2534.85 96.28ZM2534.85 77.92C2539.01 77.92 2542.73 77.2 2546.01 75.76C2549.37 74.32 2552.21 72.32 2554.53 69.76C2556.93 67.2 2558.73 64.24 2559.93 60.88C2561.13 57.52 2561.73 53.92 2561.73 50.08C2561.73 46 2561.09 42.28 2559.81 38.92C2558.61 35.48 2556.81 32.52 2554.41 30.04C2552.09 27.48 2549.29 25.52 2546.01 24.16C2542.73 22.8 2539.01 22.12 2534.85 22.12C2530.69 22.12 2526.97 22.8 2523.69 24.16C2520.41 25.52 2517.57 27.48 2515.17 30.04C2512.85 32.52 2511.09 35.48 2509.89 38.92C2508.69 42.28 2508.09 46 2508.09 50.08C2508.09 53.92 2508.69 57.52 2509.89 60.88C2511.09 64.24 2512.85 67.2 2515.17 69.76C2517.57 72.32 2520.41 74.32 2523.69 75.76C2526.97 77.2 2530.69 77.92 2534.85 77.92Z" stroke-dasharray="0,0,0,468.90557861328125"><animate attributeType="XML" attributeName="stroke-dasharray" repeatCount="1" dur="1.4705882352941178s" values="0,0,0,468.90557861328125; 
          0,234.45278930664062,234.45278930664062,0; 
          468.90557861328125,0,0,0" keyTimes="0; 0.5; 1" fill="freeze"></animate></path>
<path d="M2596.56 6.40001V94H2614.8V22.36H2616.48L2649.48 94H2682V6.40001H2663.52V78.04H2661.84L2628.84 6.40001H2596.56Z" stroke-dasharray="0,0,0,581.1101684570312"><animate attributeType="XML" attributeName="stroke-dasharray" repeatCount="1" dur="1.4705882352941178s" values="0,0,0,581.1101684570312; 
          0,290.5550842285156,290.5550842285156,0; 
          581.1101684570312,0,0,0" keyTimes="0; 0.5; 1" fill="freeze"></animate></path>
</mask>
<path d="M1374.85 93.4648C1369.27 90.839 1365 87.2851 1362.08 82.7839L1362.08 82.7769C1359.16 78.2022 1357.72 72.9726 1357.72 67.12V66.12H1378.8V67.12C1378.8 69.1656 1379.34 71.0581 1380.44 72.8174C1381.6 74.5464 1383.35 75.9925 1385.77 77.129C1388.16 78.171 1391.33 78.72 1395.32 78.72C1398.92 78.72 1401.87 78.2493 1404.2 77.3474C1406.55 76.4388 1408.26 75.2183 1409.4 73.7228C1410.55 72.1412 1411.12 70.3514 1411.12 68.32C1411.12 65.8663 1410.1 63.9733 1407.97 62.5521L1407.96 62.5458L1407.95 62.5392C1405.77 61.0124 1402.1 59.9515 1396.79 59.476L1390.2 58.8766L1390.19 58.8762C1381.31 58.142 1374.13 55.3608 1368.73 50.4605C1363.3 45.5298 1360.6 39.009 1360.6 31C1360.6 25.2373 1361.96 20.2021 1364.72 15.9368L1364.73 15.9253C1367.56 11.6792 1371.47 8.44204 1376.42 6.21093C1381.38 3.89816 1387.21 2.76001 1393.88 2.76001C1400.87 2.76001 1406.91 3.97824 1411.95 6.45836C1417.07 8.85356 1421.02 12.2979 1423.77 16.7946C1426.52 21.2156 1427.88 26.4038 1427.88 32.32V33.32H1406.68V32.32C1406.68 30.3284 1406.2 28.5458 1405.26 26.9487L1405.25 26.9405L1405.25 26.9321C1404.31 25.2752 1402.9 23.9219 1400.97 22.8805L1400.96 22.8766L1400.95 22.8725C1399.14 21.859 1396.8 21.32 1393.88 21.32C1391.11 21.32 1388.83 21.7815 1387 22.6581C1385.24 23.5395 1383.96 24.7281 1383.11 26.2162L1383.1 26.2254L1383.1 26.2345C1382.23 27.6744 1381.8 29.2557 1381.8 31C1381.8 33.2149 1382.58 35.1294 1384.16 36.7888C1385.68 38.3738 1388.27 39.412 1392.16 39.7232L1392.17 39.7239L1398.89 40.3238L1398.89 40.324C1405.38 40.8919 1411.13 42.314 1416.13 44.6083C1421.15 46.8294 1425.09 49.9326 1427.93 53.9324C1430.87 57.8899 1432.32 62.7052 1432.32 68.32C1432.32 74.106 1430.79 79.2289 1427.7 83.6504C1424.7 87.9859 1420.42 91.3354 1414.92 93.7177C1409.4 96.1047 1402.86 97.28 1395.32 97.28C1387.3 97.28 1380.47 96.0253 1374.86 93.4699L1374.85 93.4648Z" stroke="#FFB128" stroke-width="4" mask="url(#path-1-outside-1_175_2541)" stroke-dasharray="0,0,0,474.4904479980469"><animate attributeType="XML" attributeName="stroke-dasharray" repeatCount="1" dur="1.4705882352941178s" values="0,0,0,474.4904479980469; 
          0,237.24522399902344,237.24522399902344,0; 
          474.4904479980469,0,0,0" keyTimes="0; 0.5; 1" fill="freeze"></animate></path>
<path fill-rule="evenodd" clip-rule="evenodd" d="M1496.42 66.1064C1490.98 68.6628 1484.47 69.92 1476.92 69.92H1465.56V95H1443.88V4.68001H1476.92C1484.47 4.68001 1490.98 5.93724 1496.42 8.49359C1501.94 11.0464 1506.17 14.6896 1509.09 19.4314C1512.08 24.1779 1513.56 29.8492 1513.56 36.4V38.32C1513.56 44.718 1512.08 50.3454 1509.09 55.1647C1506.18 59.9084 1501.94 63.5529 1496.42 66.1064ZM1465.56 23.72V50.88H1477.88C1480.79 50.88 1483.21 50.3064 1485.19 49.2059L1485.2 49.2021L1485.21 49.1985C1487.28 48.0877 1488.86 46.545 1489.96 44.561C1491.07 42.4862 1491.64 40.0945 1491.64 37.36C1491.64 34.4512 1491.07 32.0266 1489.96 30.0457L1489.96 30.039L1489.96 30.0322C1488.85 27.9716 1487.28 26.4405 1485.23 25.4144L1485.21 25.4047L1485.19 25.3942C1483.21 24.2937 1480.79 23.72 1477.88 23.72H1465.56Z" stroke="#FFB128" stroke-width="4" mask="url(#path-1-outside-1_175_2541)" stroke-dasharray="0,0,0,388.4367370605469"><animate attributeType="XML" attributeName="stroke-dasharray" repeatCount="1" dur="1.4705882352941178s" values="0,0,0,388.4367370605469; 
          0,194.21836853027344,194.21836853027344,0; 
          388.4367370605469,0,0,0" keyTimes="0; 0.5; 1" fill="freeze"></animate></path>
<path fill-rule="evenodd" clip-rule="evenodd" d="M1523.92 95V4.68001H1559.36C1566.74 4.68001 1573.19 5.81436 1578.7 8.11497C1584.22 10.3414 1588.51 13.7007 1591.51 18.2053C1594.53 22.728 1596 28.3745 1596 35.08V37C1596 43.6323 1594.48 49.2411 1591.38 53.7629C1588.65 57.7822 1584.86 60.8872 1580.06 63.0896L1602.82 95H1577.55L1558.41 66.92H1545.6V95H1523.92ZM1545.6 23.36H1560.92C1563.66 23.36 1565.96 23.9298 1567.86 25.0262L1567.88 25.0374L1567.9 25.0478C1569.87 26.0728 1571.37 27.5635 1572.39 29.5403L1572.4 29.5603L1572.41 29.5797C1573.51 31.4842 1574.08 33.746 1574.08 36.4C1574.08 39.053 1573.51 41.3618 1572.4 43.3543L1572.4 43.3659C1571.37 45.2679 1569.88 46.7716 1567.88 47.8829C1565.97 48.9068 1563.67 49.44 1560.92 49.44H1545.6V23.36Z" stroke="#FFB128" stroke-width="4" mask="url(#path-1-outside-1_175_2541)" stroke-dasharray="0,0,0,473.786376953125"><animate attributeType="XML" attributeName="stroke-dasharray" repeatCount="1" dur="1.4705882352941178s" values="0,0,0,473.786376953125; 
          0,236.8931884765625,236.8931884765625,0; 
          473.786376953125,0,0,0" keyTimes="0; 0.5; 1" fill="freeze"></animate></path>
<path d="M1611.81 95V5.40001H1633.49V95H1611.81Z" stroke="#FFB128" stroke-width="4" mask="url(#path-1-outside-1_175_2541)" stroke-dasharray="0,0,0,222.55984497070312"><animate attributeType="XML" attributeName="stroke-dasharray" repeatCount="1" dur="1.4705882352941178s" values="0,0,0,222.55984497070312; 
          0,111.27992248535156,111.27992248535156,0; 
          222.55984497070312,0,0,0" keyTimes="0; 0.5; 1" fill="freeze"></animate></path>
<path d="M1651.42 95V5.40001H1685.34L1718.34 77.04H1718.38V5.40001H1738.86V95H1704.7L1671.7 23.36H1671.66V95H1651.42Z" stroke="#FFB128" stroke-width="4" mask="url(#path-1-outside-1_175_2541)" stroke-dasharray="0,0,0,589.110107421875"><animate attributeType="XML" attributeName="stroke-dasharray" repeatCount="1" dur="1.4705882352941178s" values="0,0,0,589.110107421875; 
          0,294.5550537109375,294.5550537109375,0; 
          589.110107421875,0,0,0" keyTimes="0; 0.5; 1" fill="freeze"></animate></path>
<path d="M1778.13 93.3559L1778.12 93.3513C1772.17 90.658 1767.2 87.0558 1763.26 82.5376L1763.25 82.5297C1759.41 78.0361 1756.55 73.0463 1754.67 67.5647C1752.8 62.1062 1751.85 56.6367 1751.85 51.16V48.52C1751.85 42.8865 1752.79 37.3753 1754.67 31.9909C1756.55 26.5923 1759.37 21.6843 1763.13 17.2715L1763.14 17.2635C1767 12.8309 1771.75 9.30823 1777.39 6.69282L1777.4 6.69052C1783.15 4.061 1789.74 2.76001 1797.14 2.76001C1805.18 2.76001 1812.33 4.26316 1818.57 7.2982C1824.79 10.2466 1829.8 14.3931 1833.59 19.7382C1837.38 25.0172 1839.56 31.1532 1840.13 38.1179L1840.22 39.2H1818.59L1818.47 38.3484C1818.01 35.3322 1816.81 32.7088 1814.86 30.4549L1814.85 30.4476L1814.85 30.4402C1812.96 28.1754 1810.49 26.3853 1807.42 25.0803L1807.42 25.0767C1804.44 23.7804 1801.02 23.12 1797.14 23.12C1793.42 23.12 1790.12 23.7778 1787.23 25.0708C1784.4 26.3696 1781.96 28.2002 1779.9 30.5695C1777.91 32.9376 1776.37 35.7771 1775.29 39.1037C1774.28 42.352 1773.78 45.968 1773.78 49.96C1773.78 54.1067 1774.32 57.8784 1775.4 61.2837C1776.56 64.603 1778.22 67.4828 1780.36 69.9351C1782.49 72.2945 1785.13 74.1288 1788.27 75.4345C1791.5 76.7396 1795.09 77.4 1799.06 77.4C1804.36 77.4 1808.9 76.3096 1812.73 74.1675C1815.04 72.8739 1816.94 71.3405 1818.46 69.5692V63.56H1795.54V47.4H1845.78V63.56H1838.58V77.7242L1838.43 77.966C1834.56 84.2112 1829.22 89.0168 1822.42 92.3766L1822.41 92.3788C1815.69 95.6571 1807.9 97.28 1799.06 97.28C1791.11 97.28 1784.13 95.9826 1778.13 93.3559Z" stroke="#FFB128" stroke-width="4" mask="url(#path-1-outside-1_175_2541)" stroke-dasharray="0,0,0,545.6508178710938"><animate attributeType="XML" attributeName="stroke-dasharray" repeatCount="1" dur="1.4705882352941178s" values="0,0,0,545.6508178710938; 
          0,272.8254089355469,272.8254089355469,0; 
          545.6508178710938,0,0,0" keyTimes="0; 0.5; 1" fill="freeze"></animate></path>
<path d="M19.2797 92.56C24.7197 95.04 31.3997 96.28 39.3197 96.28C46.7597 96.28 53.1597 95.12 58.5197 92.8C63.8797 90.48 67.9997 87.24 70.8797 83.08C73.8397 78.84 75.3197 73.92 75.3197 68.32C75.3197 62.88 73.9197 58.28 71.1197 54.52C68.3997 50.68 64.5997 47.68 59.7197 45.52C54.8397 43.28 49.1997 41.88 42.7997 41.32L36.0797 40.72C32.0797 40.4 29.1997 39.32 27.4397 37.48C25.6797 35.64 24.7997 33.48 24.7997 31C24.7997 29.08 25.2797 27.32 26.2397 25.72C27.1997 24.04 28.6397 22.72 30.5597 21.76C32.5597 20.8 34.9997 20.32 37.8797 20.32C40.9197 20.32 43.4397 20.88 45.4397 22C47.5197 23.12 49.0797 24.6 50.1197 26.44C51.1597 28.2 51.6797 30.16 51.6797 32.32H70.8797C70.8797 26.56 69.5597 21.56 66.9197 17.32C64.2797 13 60.4797 9.68001 55.5197 7.36001C50.6397 4.96001 44.7597 3.76001 37.8797 3.76001C31.3197 3.76001 25.6397 4.88001 20.8397 7.12001C16.0397 9.28001 12.2797 12.4 9.55973 16.48C6.91973 20.56 5.59973 25.4 5.59973 31C5.59973 38.76 8.19973 45 13.3997 49.72C18.5997 54.44 25.5597 57.16 34.2797 57.88L40.8797 58.48C46.2397 58.96 50.1197 60.04 52.5197 61.72C54.9197 63.32 56.1197 65.52 56.1197 68.32C56.1197 70.56 55.4797 72.56 54.1997 74.32C52.9197 76 51.0397 77.32 48.5597 78.28C46.0797 79.24 42.9997 79.72 39.3197 79.72C35.2397 79.72 31.9197 79.16 29.3597 78.04C26.7997 76.84 24.8797 75.28 23.5997 73.36C22.3997 71.44 21.7997 69.36 21.7997 67.12H2.71973C2.71973 72.8 4.11973 77.84 6.91973 82.24C9.71973 86.56 13.8397 90 19.2797 92.56Z" stroke="#FFB128" stroke-width="4" mask="url(#path-1-outside-1_175_2541)" stroke-dasharray="0,0,0,466.48052978515625"><animate attributeType="XML" attributeName="stroke-dasharray" repeatCount="1" dur="1.4705882352941178s" values="0,0,0,466.48052978515625; 
          0,233.24026489257812,233.24026489257812,0; 
          466.48052978515625,0,0,0" keyTimes="0; 0.5; 1" fill="freeze"></animate></path>
<path fill-rule="evenodd" clip-rule="evenodd" d="M108.559 68.92V94H88.8788V5.68001H120.919C128.359 5.68001 134.719 6.92001 139.999 9.40001C145.359 11.88 149.439 15.4 152.239 19.96C155.119 24.52 156.559 30 156.559 36.4V38.32C156.559 44.56 155.119 50 152.239 54.64C149.439 59.2 145.359 62.72 139.999 65.2C134.719 67.68 128.359 68.92 120.919 68.92H108.559ZM108.559 51.88H121.879C124.919 51.88 127.519 51.28 129.679 50.08C131.919 48.88 133.639 47.2 134.839 45.04C136.039 42.8 136.639 40.24 136.639 37.36C136.639 34.32 136.039 31.72 134.839 29.56C133.639 27.32 131.919 25.64 129.679 24.52C127.519 23.32 124.919 22.72 121.879 22.72H108.559V51.88Z" stroke="#FFB128" stroke-width="4" mask="url(#path-1-outside-1_175_2541)" stroke-dasharray="0,0,0,388.4388427734375"><animate attributeType="XML" attributeName="stroke-dasharray" repeatCount="1" dur="1.4705882352941178s" values="0,0,0,388.4388427734375; 
          0,194.21942138671875,194.21942138671875,0; 
          388.4388427734375,0,0,0" keyTimes="0; 0.5; 1" fill="freeze"></animate></path>
<path fill-rule="evenodd" clip-rule="evenodd" d="M168.918 94V5.68001H203.358C210.638 5.68001 216.958 6.80001 222.318 9.04001C227.678 11.2 231.798 14.44 234.678 18.76C237.558 23.08 238.998 28.52 238.998 35.08V37C238.998 43.48 237.518 48.88 234.558 53.2C231.737 57.3533 227.726 60.5087 222.525 62.6662L244.878 94H222.078L202.941 65.92H188.598V94H168.918ZM188.598 50.44V22.36H204.918C207.798 22.36 210.278 22.96 212.358 24.16C214.518 25.28 216.158 26.92 217.278 29.08C218.478 31.16 219.078 33.6 219.078 36.4C219.078 39.2 218.478 41.68 217.278 43.84C216.158 45.92 214.518 47.56 212.358 48.76C210.278 49.88 207.798 50.44 204.918 50.44H188.598Z" stroke="#FFB128" stroke-width="4" mask="url(#path-1-outside-1_175_2541)" stroke-dasharray="0,0,0,472.79345703125"><animate attributeType="XML" attributeName="stroke-dasharray" repeatCount="1" dur="1.4705882352941178s" values="0,0,0,472.79345703125; 
          0,236.396728515625,236.396728515625,0; 
          472.79345703125,0,0,0" keyTimes="0; 0.5; 1" fill="freeze"></animate></path>
<path d="M256.814 6.40001V94H276.494V6.40001H256.814Z" stroke="#FFB128" stroke-width="4" mask="url(#path-1-outside-1_175_2541)" stroke-dasharray="0,0,0,214.55996704101562"><animate attributeType="XML" attributeName="stroke-dasharray" repeatCount="1" dur="1.4705882352941178s" values="0,0,0,214.55996704101562; 
          0,107.27998352050781,107.27998352050781,0; 
          214.55996704101562,0,0,0" keyTimes="0; 0.5; 1" fill="freeze"></animate></path>
<path d="M296.418 94V6.40001H328.698L361.698 78.04H363.378V6.40001H381.858V94H349.338L316.338 22.36H314.658V94H296.418Z" stroke="#FFB128" stroke-width="4" mask="url(#path-1-outside-1_175_2541)" stroke-dasharray="0,0,0,581.1102294921875"><animate attributeType="XML" attributeName="stroke-dasharray" repeatCount="1" dur="1.4705882352941178s" values="0,0,0,581.1102294921875; 
          0,290.55511474609375,290.55511474609375,0; 
          581.1102294921875,0,0,0" keyTimes="0; 0.5; 1" fill="freeze"></animate></path>
<path d="M422.535 92.44C428.375 95 435.215 96.28 443.055 96.28C451.775 96.28 459.415 94.68 465.975 91.48C472.615 88.2 477.815 83.52 481.575 77.44V62.56H488.775V48.4H440.535V62.56H463.455V69.9326C461.822 71.9224 459.742 73.6249 457.215 75.04C453.215 77.28 448.495 78.4 443.055 78.4C438.975 78.4 435.255 77.72 431.895 76.36C428.615 75 425.855 73.08 423.615 70.6C421.375 68.04 419.655 65.04 418.455 61.6C417.335 58.08 416.775 54.2 416.775 49.96C416.775 45.88 417.295 42.16 418.335 38.8C419.455 35.36 421.055 32.4 423.135 29.92C425.295 27.44 427.855 25.52 430.815 24.16C433.855 22.8 437.295 22.12 441.135 22.12C445.135 22.12 448.695 22.8 451.815 24.16C455.015 25.52 457.615 27.4 459.615 29.8C461.695 32.2 462.975 35 463.455 38.2H483.135C482.575 31.4 480.455 25.44 476.775 20.32C473.095 15.12 468.215 11.08 462.135 8.20001C456.055 5.24001 449.055 3.76001 441.135 3.76001C433.855 3.76001 427.415 5.04001 421.815 7.60001C416.295 10.16 411.655 13.6 407.895 17.92C404.215 22.24 401.455 27.04 399.615 32.32C397.775 37.6 396.855 43 396.855 48.52V51.16C396.855 56.52 397.775 61.88 399.615 67.24C401.455 72.6 404.255 77.48 408.015 81.88C411.855 86.28 416.695 89.8 422.535 92.44Z" stroke="#FFB128" stroke-width="4" mask="url(#path-1-outside-1_175_2541)" stroke-dasharray="0,0,0,537.686279296875"><animate attributeType="XML" attributeName="stroke-dasharray" repeatCount="1" dur="1.4705882352941178s" values="0,0,0,537.686279296875; 
          0,268.8431396484375,268.8431396484375,0; 
          537.686279296875,0,0,0" keyTimes="0; 0.5; 1" fill="freeze"></animate></path>
<path d="M546.491 92.2C540.811 89.4 536.171 85.76 532.571 81.28C528.971 76.72 526.291 71.84 524.531 66.64C522.851 61.36 522.011 56.24 522.011 51.28V48.64C522.011 43.2 522.891 37.84 524.651 32.56C526.411 27.2 529.091 22.36 532.691 18.04C536.371 13.72 540.971 10.28 546.491 7.72001C552.091 5.08001 558.691 3.76001 566.291 3.76001C574.211 3.76001 581.211 5.24001 587.291 8.20001C593.371 11.16 598.211 15.28 601.811 20.56C605.491 25.76 607.651 31.88 608.291 38.92H588.491C587.931 35.4 586.651 32.4 584.651 29.92C582.651 27.44 580.051 25.52 576.851 24.16C573.731 22.8 570.211 22.12 566.291 22.12C562.371 22.12 558.891 22.8 555.851 24.16C552.811 25.52 550.251 27.44 548.171 29.92C546.171 32.4 544.611 35.36 543.491 38.8C542.451 42.16 541.931 45.92 541.931 50.08C541.931 54.16 542.451 57.92 543.491 61.36C544.611 64.72 546.211 67.68 548.291 70.24C550.451 72.72 553.091 74.64 556.211 76C559.331 77.28 562.891 77.92 566.891 77.92C572.971 77.92 578.091 76.44 582.251 73.48C586.491 70.52 589.051 66.44 589.931 61.24H609.611C608.891 67.64 606.731 73.52 603.131 78.88C599.611 84.16 594.771 88.4 588.611 91.6C582.531 94.72 575.291 96.28 566.891 96.28C558.971 96.28 552.171 94.92 546.491 92.2Z" stroke="#FFB128" stroke-width="4" mask="url(#path-1-outside-1_175_2541)" stroke-dasharray="0,0,0,451.64202880859375"><animate attributeType="XML" attributeName="stroke-dasharray" repeatCount="1" dur="1.4705882352941178s" values="0,0,0,451.64202880859375; 
          0,225.82101440429688,225.82101440429688,0; 
          451.64202880859375,0,0,0" keyTimes="0; 0.5; 1" fill="freeze"></animate></path>
<path fill-rule="evenodd" clip-rule="evenodd" d="M643.908 92.2C649.828 94.92 656.748 96.28 664.668 96.28C672.588 96.28 679.468 94.92 685.308 92.2C691.228 89.4 696.108 85.76 699.948 81.28C703.788 76.72 706.668 71.8 708.588 66.52C710.508 61.24 711.468 56.16 711.468 51.28V48.64C711.468 43.2 710.468 37.84 708.468 32.56C706.468 27.2 703.508 22.36 699.588 18.04C695.668 13.72 690.788 10.28 684.948 7.72001C679.108 5.08001 672.348 3.76001 664.668 3.76001C656.988 3.76001 650.228 5.08001 644.388 7.72001C638.548 10.28 633.668 13.72 629.748 18.04C625.828 22.36 622.868 27.2 620.868 32.56C618.948 37.84 617.988 43.2 617.988 48.64V51.28C617.988 56.16 618.908 61.24 620.748 66.52C622.668 71.8 625.548 76.72 629.388 81.28C633.228 85.76 638.068 89.4 643.908 92.2ZM675.828 75.76C672.548 77.2 668.828 77.92 664.668 77.92C660.508 77.92 656.788 77.2 653.508 75.76C650.228 74.32 647.388 72.32 644.988 69.76C642.668 67.2 640.908 64.24 639.708 60.88C638.508 57.52 637.908 53.92 637.908 50.08C637.908 46 638.508 42.28 639.708 38.92C640.908 35.48 642.668 32.52 644.988 30.04C647.388 27.48 650.228 25.52 653.508 24.16C656.788 22.8 660.508 22.12 664.668 22.12C668.828 22.12 672.548 22.8 675.828 24.16C679.108 25.52 681.908 27.48 684.228 30.04C686.628 32.52 688.428 35.48 689.628 38.92C690.908 42.28 691.548 46 691.548 50.08C691.548 53.92 690.948 57.52 689.748 60.88C688.548 64.24 686.748 67.2 684.348 69.76C682.028 72.32 679.188 74.32 675.828 75.76Z" stroke="#FFB128" stroke-width="4" mask="url(#path-1-outside-1_175_2541)" stroke-dasharray="0,0,0,468.90362548828125"><animate attributeType="XML" attributeName="stroke-dasharray" repeatCount="1" dur="1.4705882352941178s" values="0,0,0,468.90362548828125; 
          0,234.45181274414062,234.45181274414062,0; 
          468.90362548828125,0,0,0" keyTimes="0; 0.5; 1" fill="freeze"></animate></path>
<path d="M726.379 94V6.40001H746.059V76.72H780.379V94H726.379Z" stroke="#FFB128" stroke-width="4" mask="url(#path-1-outside-1_175_2541)" stroke-dasharray="0,0,0,283.1999816894531"><animate attributeType="XML" attributeName="stroke-dasharray" repeatCount="1" dur="1.4705882352941178s" values="0,0,0,283.1999816894531; 
          0,141.59999084472656,141.59999084472656,0; 
          283.1999816894531,0,0,0" keyTimes="0; 0.5; 1" fill="freeze"></animate></path>
<path d="M793.293 6.40001V94H847.293V76.72H812.973V6.40001H793.293Z" stroke="#FFB128" stroke-width="4" mask="url(#path-1-outside-1_175_2541)" stroke-dasharray="0,0,0,283.1999816894531"><animate attributeType="XML" attributeName="stroke-dasharray" repeatCount="1" dur="1.4705882352941178s" values="0,0,0,283.1999816894531; 
          0,141.59999084472656,141.59999084472656,0; 
          283.1999816894531,0,0,0" keyTimes="0; 0.5; 1" fill="freeze"></animate></path>
<path d="M860.207 94V6.40001H914.447V22.72H879.407V41.32H912.527V57.64H879.407V77.68H915.287V94H860.207Z" stroke="#FFB128" stroke-width="4" mask="url(#path-1-outside-1_175_2541)" stroke-dasharray="0,0,0,421.68011474609375"><animate attributeType="XML" attributeName="stroke-dasharray" repeatCount="1" dur="1.4705882352941178s" values="0,0,0,421.68011474609375; 
          0,210.84005737304688,210.84005737304688,0; 
          421.68011474609375,0,0,0" keyTimes="0; 0.5; 1" fill="freeze"></animate></path>
<path d="M936.399 81.28C939.999 85.76 944.639 89.4 950.319 92.2C955.999 94.92 962.799 96.28 970.719 96.28C979.119 96.28 986.359 94.72 992.439 91.6C998.599 88.4 1003.44 84.16 1006.96 78.88C1010.56 73.52 1012.72 67.64 1013.44 61.24H993.759C992.879 66.44 990.319 70.52 986.079 73.48C981.919 76.44 976.799 77.92 970.719 77.92C966.719 77.92 963.159 77.28 960.039 76C956.919 74.64 954.279 72.72 952.119 70.24C950.039 67.68 948.439 64.72 947.319 61.36C946.279 57.92 945.759 54.16 945.759 50.08C945.759 45.92 946.279 42.16 947.319 38.8C948.439 35.36 949.999 32.4 951.999 29.92C954.079 27.44 956.639 25.52 959.679 24.16C962.719 22.8 966.199 22.12 970.119 22.12C974.039 22.12 977.559 22.8 980.679 24.16C983.879 25.52 986.479 27.44 988.479 29.92C990.479 32.4 991.759 35.4 992.319 38.92H1012.12C1011.48 31.88 1009.32 25.76 1005.64 20.56C1002.04 15.28 997.199 11.16 991.119 8.20001C985.039 5.24001 978.039 3.76001 970.119 3.76001C962.519 3.76001 955.919 5.08001 950.319 7.72001C944.799 10.28 940.199 13.72 936.519 18.04C932.919 22.36 930.239 27.2 928.479 32.56C926.719 37.84 925.839 43.2 925.839 48.64V51.28C925.839 56.24 926.679 61.36 928.359 66.64C930.119 71.84 932.799 76.72 936.399 81.28Z" stroke="#FFB128" stroke-width="4" mask="url(#path-1-outside-1_175_2541)" stroke-dasharray="0,0,0,451.64593505859375"><animate attributeType="XML" attributeName="stroke-dasharray" repeatCount="1" dur="1.4705882352941178s" values="0,0,0,451.64593505859375; 
          0,225.82296752929688,225.82296752929688,0; 
          451.64593505859375,0,0,0" keyTimes="0; 0.5; 1" fill="freeze"></animate></path>
<path d="M1043.08 94V23.56H1018.48V6.40001H1087.48V23.56H1062.76V94H1043.08Z" stroke="#FFB128" stroke-width="4" mask="url(#path-1-outside-1_175_2541)" stroke-dasharray="0,0,0,313.1999816894531"><animate attributeType="XML" attributeName="stroke-dasharray" repeatCount="1" dur="1.4705882352941178s" values="0,0,0,313.1999816894531; 
          0,156.59999084472656,156.59999084472656,0; 
          313.1999816894531,0,0,0" keyTimes="0; 0.5; 1" fill="freeze"></animate></path>
<path d="M1100.1 6.40001V94H1119.78V6.40001H1100.1Z" stroke="#FFB128" stroke-width="4" mask="url(#path-1-outside-1_175_2541)" stroke-dasharray="0,0,0,214.56008911132812"><animate attributeType="XML" attributeName="stroke-dasharray" repeatCount="1" dur="1.4705882352941178s" values="0,0,0,214.56008911132812; 
          0,107.28004455566406,107.28004455566406,0; 
          214.56008911132812,0,0,0" keyTimes="0; 0.5; 1" fill="freeze"></animate></path>
<path fill-rule="evenodd" clip-rule="evenodd" d="M1181.7 96.28C1173.78 96.28 1166.86 94.92 1160.94 92.2C1155.1 89.4 1150.26 85.76 1146.42 81.28C1142.58 76.72 1139.7 71.8 1137.78 66.52C1135.94 61.24 1135.02 56.16 1135.02 51.28V48.64C1135.02 43.2 1135.98 37.84 1137.9 32.56C1139.9 27.2 1142.86 22.36 1146.78 18.04C1150.7 13.72 1155.58 10.28 1161.42 7.72001C1167.26 5.08001 1174.02 3.76001 1181.7 3.76001C1189.38 3.76001 1196.14 5.08001 1201.98 7.72001C1207.82 10.28 1212.7 13.72 1216.62 18.04C1220.54 22.36 1223.5 27.2 1225.5 32.56C1227.5 37.84 1228.5 43.2 1228.5 48.64V51.28C1228.5 56.16 1227.54 61.24 1225.62 66.52C1223.7 71.8 1220.82 76.72 1216.98 81.28C1213.14 85.76 1208.26 89.4 1202.34 92.2C1196.5 94.92 1189.62 96.28 1181.7 96.28ZM1181.7 77.92C1185.86 77.92 1189.58 77.2 1192.86 75.76C1196.22 74.32 1199.06 72.32 1201.38 69.76C1203.78 67.2 1205.58 64.24 1206.78 60.88C1207.98 57.52 1208.58 53.92 1208.58 50.08C1208.58 46 1207.94 42.28 1206.66 38.92C1205.46 35.48 1203.66 32.52 1201.26 30.04C1198.94 27.48 1196.14 25.52 1192.86 24.16C1189.58 22.8 1185.86 22.12 1181.7 22.12C1177.54 22.12 1173.82 22.8 1170.54 24.16C1167.26 25.52 1164.42 27.48 1162.02 30.04C1159.7 32.52 1157.94 35.48 1156.74 38.92C1155.54 42.28 1154.94 46 1154.94 50.08C1154.94 53.92 1155.54 57.52 1156.74 60.88C1157.94 64.24 1159.7 67.2 1162.02 69.76C1164.42 72.32 1167.26 74.32 1170.54 75.76C1173.82 77.2 1177.54 77.92 1181.7 77.92Z" stroke="#FFB128" stroke-width="4" mask="url(#path-1-outside-1_175_2541)" stroke-dasharray="0,0,0,468.9047546386719"><animate attributeType="XML" attributeName="stroke-dasharray" repeatCount="1" dur="1.4705882352941178s" values="0,0,0,468.9047546386719; 
          0,234.45237731933594,234.45237731933594,0; 
          468.9047546386719,0,0,0" keyTimes="0; 0.5; 1" fill="freeze"></animate></path>
<path d="M1243.41 6.40001V94H1261.65V22.36H1263.33L1296.33 94H1328.85V6.40001H1310.37V78.04H1308.69L1275.69 6.40001H1243.41Z" stroke="#FFB128" stroke-width="4" mask="url(#path-1-outside-1_175_2541)" stroke-dasharray="0,0,0,581.1101684570312"><animate attributeType="XML" attributeName="stroke-dasharray" repeatCount="1" dur="1.4705882352941178s" values="0,0,0,581.1101684570312; 
          0,290.5550842285156,290.5550842285156,0; 
          581.1101684570312,0,0,0" keyTimes="0; 0.5; 1" fill="freeze"></animate></path>
<path d="M1885.72 81.28C1889.32 85.76 1893.96 89.4 1899.64 92.2C1905.32 94.92 1912.12 96.28 1920.04 96.28C1928.44 96.28 1935.68 94.72 1941.76 91.6C1947.92 88.4 1952.76 84.16 1956.28 78.88C1959.88 73.52 1962.04 67.64 1962.76 61.24H1943.08C1942.2 66.44 1939.64 70.52 1935.4 73.48C1931.24 76.44 1926.12 77.92 1920.04 77.92C1916.04 77.92 1912.48 77.28 1909.36 76C1906.24 74.64 1903.6 72.72 1901.44 70.24C1899.36 67.68 1897.76 64.72 1896.64 61.36C1895.6 57.92 1895.08 54.16 1895.08 50.08C1895.08 45.92 1895.6 42.16 1896.64 38.8C1897.76 35.36 1899.32 32.4 1901.32 29.92C1903.4 27.44 1905.96 25.52 1909 24.16C1912.04 22.8 1915.52 22.12 1919.44 22.12C1923.36 22.12 1926.88 22.8 1930 24.16C1933.2 25.52 1935.8 27.44 1937.8 29.92C1939.8 32.4 1941.08 35.4 1941.64 38.92H1961.44C1960.8 31.88 1958.64 25.76 1954.96 20.56C1951.36 15.28 1946.52 11.16 1940.44 8.20001C1934.36 5.24001 1927.36 3.76001 1919.44 3.76001C1911.84 3.76001 1905.24 5.08001 1899.64 7.72001C1894.12 10.28 1889.52 13.72 1885.84 18.04C1882.24 22.36 1879.56 27.2 1877.8 32.56C1876.04 37.84 1875.16 43.2 1875.16 48.64V51.28C1875.16 56.24 1876 61.36 1877.68 66.64C1879.44 71.84 1882.12 76.72 1885.72 81.28Z" stroke="#FFB128" stroke-width="4" mask="url(#path-1-outside-1_175_2541)" stroke-dasharray="0,0,0,451.64300537109375"><animate attributeType="XML" attributeName="stroke-dasharray" repeatCount="1" dur="1.4705882352941178s" values="0,0,0,451.64300537109375; 
          0,225.82150268554688,225.82150268554688,0; 
          451.64300537109375,0,0,0" keyTimes="0; 0.5; 1" fill="freeze"></animate></path>
<path fill-rule="evenodd" clip-rule="evenodd" d="M1997.06 92.2C2002.98 94.92 2009.9 96.28 2017.82 96.28C2025.74 96.28 2032.62 94.92 2038.46 92.2C2044.38 89.4 2049.26 85.76 2053.1 81.28C2056.94 76.72 2059.82 71.8 2061.74 66.52C2063.66 61.24 2064.62 56.16 2064.62 51.28V48.64C2064.62 43.2 2063.62 37.84 2061.62 32.56C2059.62 27.2 2056.66 22.36 2052.74 18.04C2048.82 13.72 2043.94 10.28 2038.1 7.72001C2032.26 5.08001 2025.5 3.76001 2017.82 3.76001C2010.14 3.76001 2003.38 5.08001 1997.54 7.72001C1991.7 10.28 1986.82 13.72 1982.9 18.04C1978.98 22.36 1976.02 27.2 1974.02 32.56C1972.1 37.84 1971.14 43.2 1971.14 48.64V51.28C1971.14 56.16 1972.06 61.24 1973.9 66.52C1975.82 71.8 1978.7 76.72 1982.54 81.28C1986.38 85.76 1991.22 89.4 1997.06 92.2ZM2028.98 75.76C2025.7 77.2 2021.98 77.92 2017.82 77.92C2013.66 77.92 2009.94 77.2 2006.66 75.76C2003.38 74.32 2000.54 72.32 1998.14 69.76C1995.82 67.2 1994.06 64.24 1992.86 60.88C1991.66 57.52 1991.06 53.92 1991.06 50.08C1991.06 46 1991.66 42.28 1992.86 38.92C1994.06 35.48 1995.82 32.52 1998.14 30.04C2000.54 27.48 2003.38 25.52 2006.66 24.16C2009.94 22.8 2013.66 22.12 2017.82 22.12C2021.98 22.12 2025.7 22.8 2028.98 24.16C2032.26 25.52 2035.06 27.48 2037.38 30.04C2039.78 32.52 2041.58 35.48 2042.78 38.92C2044.06 42.28 2044.7 46 2044.7 50.08C2044.7 53.92 2044.1 57.52 2042.9 60.88C2041.7 64.24 2039.9 67.2 2037.5 69.76C2035.18 72.32 2032.34 74.32 2028.98 75.76Z" stroke="#FFB128" stroke-width="4" mask="url(#path-1-outside-1_175_2541)" stroke-dasharray="0,0,0,468.90545654296875"><animate attributeType="XML" attributeName="stroke-dasharray" repeatCount="1" dur="1.4705882352941178s" values="0,0,0,468.90545654296875; 
          0,234.45272827148438,234.45272827148438,0; 
          468.90545654296875,0,0,0" keyTimes="0; 0.5; 1" fill="freeze"></animate></path>
<path d="M2079.53 94V6.40001H2099.21V76.72H2133.53V94H2079.53Z" stroke="#FFB128" stroke-width="4" mask="url(#path-1-outside-1_175_2541)" stroke-dasharray="0,0,0,283.1999816894531"><animate attributeType="XML" attributeName="stroke-dasharray" repeatCount="1" dur="1.4705882352941178s" values="0,0,0,283.1999816894531; 
          0,141.59999084472656,141.59999084472656,0; 
          283.1999816894531,0,0,0" keyTimes="0; 0.5; 1" fill="freeze"></animate></path>
<path d="M2146.44 6.40001V94H2200.44V76.72H2166.12V6.40001H2146.44Z" stroke="#FFB128" stroke-width="4" mask="url(#path-1-outside-1_175_2541)" stroke-dasharray="0,0,0,283.1999816894531"><animate attributeType="XML" attributeName="stroke-dasharray" repeatCount="1" dur="1.4705882352941178s" values="0,0,0,283.1999816894531; 
          0,141.59999084472656,141.59999084472656,0; 
          283.1999816894531,0,0,0" keyTimes="0; 0.5; 1" fill="freeze"></animate></path>
<path d="M2213.36 94V6.40001H2267.6V22.72H2232.56V41.32H2265.68V57.64H2232.56V77.68H2268.44V94H2213.36Z" stroke="#FFB128" stroke-width="4" mask="url(#path-1-outside-1_175_2541)" stroke-dasharray="0,0,0,421.67950439453125"><animate attributeType="XML" attributeName="stroke-dasharray" repeatCount="1" dur="1.4705882352941178s" values="0,0,0,421.67950439453125; 
          0,210.83975219726562,210.83975219726562,0; 
          421.67950439453125,0,0,0" keyTimes="0; 0.5; 1" fill="freeze"></animate></path>
<path d="M2303.47 92.2C2309.15 94.92 2315.95 96.28 2323.87 96.28C2332.27 96.28 2339.51 94.72 2345.59 91.6C2351.75 88.4 2356.59 84.16 2360.11 78.88C2363.71 73.52 2365.87 67.64 2366.59 61.24H2346.91C2346.03 66.44 2343.47 70.52 2339.23 73.48C2335.07 76.44 2329.95 77.92 2323.87 77.92C2319.87 77.92 2316.31 77.28 2313.19 76C2310.07 74.64 2307.43 72.72 2305.27 70.24C2303.19 67.68 2301.59 64.72 2300.47 61.36C2299.43 57.92 2298.91 54.16 2298.91 50.08C2298.91 45.92 2299.43 42.16 2300.47 38.8C2301.59 35.36 2303.15 32.4 2305.15 29.92C2307.23 27.44 2309.79 25.52 2312.83 24.16C2315.87 22.8 2319.35 22.12 2323.27 22.12C2327.19 22.12 2330.71 22.8 2333.83 24.16C2337.03 25.52 2339.63 27.44 2341.63 29.92C2343.63 32.4 2344.91 35.4 2345.47 38.92H2365.27C2364.63 31.88 2362.47 25.76 2358.79 20.56C2355.19 15.28 2350.35 11.16 2344.27 8.20001C2338.19 5.24001 2331.19 3.76001 2323.27 3.76001C2315.67 3.76001 2309.07 5.08001 2303.47 7.72001C2297.95 10.28 2293.35 13.72 2289.67 18.04C2286.07 22.36 2283.39 27.2 2281.63 32.56C2279.87 37.84 2278.99 43.2 2278.99 48.64V51.28C2278.99 56.24 2279.83 61.36 2281.51 66.64C2283.27 71.84 2285.95 76.72 2289.55 81.28C2293.15 85.76 2297.79 89.4 2303.47 92.2Z" stroke="#FFB128" stroke-width="4" mask="url(#path-1-outside-1_175_2541)" stroke-dasharray="0,0,0,451.6435852050781"><animate attributeType="XML" attributeName="stroke-dasharray" repeatCount="1" dur="1.4705882352941178s" values="0,0,0,451.6435852050781; 
          0,225.82179260253906,225.82179260253906,0; 
          451.6435852050781,0,0,0" keyTimes="0; 0.5; 1" fill="freeze"></animate></path>
<path d="M2396.22 94V23.56H2371.62V6.40001H2440.62V23.56H2415.9V94H2396.22Z" stroke="#FFB128" stroke-width="4" mask="url(#path-1-outside-1_175_2541)" stroke-dasharray="0,0,0,313.1999816894531"><animate attributeType="XML" attributeName="stroke-dasharray" repeatCount="1" dur="1.4705882352941178s" values="0,0,0,313.1999816894531; 
          0,156.59999084472656,156.59999084472656,0; 
          313.1999816894531,0,0,0" keyTimes="0; 0.5; 1" fill="freeze"></animate></path>
<path d="M2453.24 6.40001V94H2472.92V6.40001H2453.24Z" stroke="#FFB128" stroke-width="4" mask="url(#path-1-outside-1_175_2541)" stroke-dasharray="0,0,0,214.55984497070312"><animate attributeType="XML" attributeName="stroke-dasharray" repeatCount="1" dur="1.4705882352941178s" values="0,0,0,214.55984497070312; 
          0,107.27992248535156,107.27992248535156,0; 
          214.55984497070312,0,0,0" keyTimes="0; 0.5; 1" fill="freeze"></animate></path>
<path fill-rule="evenodd" clip-rule="evenodd" d="M2534.85 96.28C2526.93 96.28 2520.01 94.92 2514.09 92.2C2508.25 89.4 2503.41 85.76 2499.57 81.28C2495.73 76.72 2492.85 71.8 2490.93 66.52C2489.09 61.24 2488.17 56.16 2488.17 51.28V48.64C2488.17 43.2 2489.13 37.84 2491.05 32.56C2493.05 27.2 2496.01 22.36 2499.93 18.04C2503.85 13.72 2508.73 10.28 2514.57 7.72001C2520.41 5.08001 2527.17 3.76001 2534.85 3.76001C2542.53 3.76001 2549.29 5.08001 2555.13 7.72001C2560.97 10.28 2565.85 13.72 2569.77 18.04C2573.69 22.36 2576.65 27.2 2578.65 32.56C2580.65 37.84 2581.65 43.2 2581.65 48.64V51.28C2581.65 56.16 2580.69 61.24 2578.77 66.52C2576.85 71.8 2573.97 76.72 2570.13 81.28C2566.29 85.76 2561.41 89.4 2555.49 92.2C2549.65 94.92 2542.77 96.28 2534.85 96.28ZM2534.85 77.92C2539.01 77.92 2542.73 77.2 2546.01 75.76C2549.37 74.32 2552.21 72.32 2554.53 69.76C2556.93 67.2 2558.73 64.24 2559.93 60.88C2561.13 57.52 2561.73 53.92 2561.73 50.08C2561.73 46 2561.09 42.28 2559.81 38.92C2558.61 35.48 2556.81 32.52 2554.41 30.04C2552.09 27.48 2549.29 25.52 2546.01 24.16C2542.73 22.8 2539.01 22.12 2534.85 22.12C2530.69 22.12 2526.97 22.8 2523.69 24.16C2520.41 25.52 2517.57 27.48 2515.17 30.04C2512.85 32.52 2511.09 35.48 2509.89 38.92C2508.69 42.28 2508.09 46 2508.09 50.08C2508.09 53.92 2508.69 57.52 2509.89 60.88C2511.09 64.24 2512.85 67.2 2515.17 69.76C2517.57 72.32 2520.41 74.32 2523.69 75.76C2526.97 77.2 2530.69 77.92 2534.85 77.92Z" stroke="#FFB128" stroke-width="4" mask="url(#path-1-outside-1_175_2541)" stroke-dasharray="0,0,0,468.90557861328125"><animate attributeType="XML" attributeName="stroke-dasharray" repeatCount="1" dur="1.4705882352941178s" values="0,0,0,468.90557861328125; 
          0,234.45278930664062,234.45278930664062,0; 
          468.90557861328125,0,0,0" keyTimes="0; 0.5; 1" fill="freeze"></animate></path>
<path d="M2596.56 6.40001V94H2614.8V22.36H2616.48L2649.48 94H2682V6.40001H2663.52V78.04H2661.84L2628.84 6.40001H2596.56Z" stroke="#FFB128" stroke-width="4" mask="url(#path-1-outside-1_175_2541)" stroke-dasharray="0,0,0,581.1101684570312"><animate attributeType="XML" attributeName="stroke-dasharray" repeatCount="1" dur="1.4705882352941178s" values="0,0,0,581.1101684570312; 
          0,290.5550842285156,290.5550842285156,0; 
          581.1101684570312,0,0,0" keyTimes="0; 0.5; 1" fill="freeze"></animate></path>
<setting>{"type":"direct","speed":34,"random":1,"shift":1,"size":1,"rupture":50}</setting></svg>