<svg width="42" height="26" viewBox="0 0 42 26" fill="none" xmlns="http://www.w3.org/2000/svg">
<path d="M11.224 25.608C9.368 25.608 7.77867 25.3093 6.456 24.712C5.13333 24.0933 4.056 23.2613 3.224 22.216C2.41333 21.1707 1.80533 19.9653 1.4 18.6C1.016 17.2133 0.824 15.752 0.824 14.216V12.392C0.824 10.2587 1.19733 8.328 1.944 6.6C2.69067 4.872 3.832 3.496 5.368 2.472C6.904 1.448 8.856 0.935999 11.224 0.935999C13.592 0.935999 15.5333 1.448 17.048 2.472C18.584 3.496 19.7253 4.872 20.472 6.6C21.2187 8.328 21.592 10.2587 21.592 12.392V14.216C21.592 15.752 21.3893 17.2133 20.984 18.6C20.6 19.9653 19.992 21.1707 19.16 22.216C18.3493 23.2613 17.2827 24.0933 15.96 24.712C14.6587 25.3093 13.08 25.608 11.224 25.608ZM11.224 20.776C12.952 20.776 14.232 20.1787 15.064 18.984C15.9173 17.768 16.344 15.8907 16.344 13.352C16.344 10.664 15.9067 8.73333 15.032 7.56C14.1787 6.36533 12.9093 5.768 11.224 5.768C9.496 5.768 8.20533 6.36533 7.352 7.56C6.49867 8.73333 6.072 10.6427 6.072 13.288C6.072 15.848 6.488 17.736 7.32 18.952C8.17333 20.168 9.47467 20.776 11.224 20.776ZM25.3263 25V20.2C25.3263 19.1973 25.4863 18.3227 25.8063 17.576C26.1476 16.8293 26.6809 16.168 27.4062 15.592C28.1316 14.9947 29.0916 14.44 30.2863 13.928L34.0623 12.296C35.0223 11.8907 35.7263 11.3893 36.1743 10.792C36.6436 10.1947 36.8783 9.43733 36.8783 8.52C36.8783 7.58133 36.5903 6.81333 36.0143 6.216C35.4383 5.61867 34.5956 5.32 33.4863 5.32C32.3769 5.32 31.5343 5.62933 30.9583 6.248C30.3823 6.86667 30.0943 7.69867 30.0943 8.744H25.0063C25.0063 7.272 25.3263 5.94933 25.9663 4.776C26.6063 3.58133 27.5556 2.64267 28.8143 1.96C30.0729 1.27733 31.6303 0.935999 33.4863 0.935999C35.3423 0.935999 36.8889 1.26667 38.1263 1.928C39.3849 2.58933 40.3343 3.47467 40.9743 4.584C41.6356 5.69333 41.9663 6.94133 41.9663 8.328V8.712C41.9663 10.504 41.4756 11.9867 40.4943 13.16C39.5129 14.312 37.9983 15.336 35.9503 16.232L32.2063 17.864C31.5663 18.1413 31.1076 18.4293 30.8303 18.728C30.5743 19.0267 30.4463 19.432 30.4463 19.944V21.544L29.1983 20.488H41.9983V25H25.3263Z" fill="white"/>
</svg>
