<svg width="400" height="400" viewBox="0 0 400 400" fill="none" xmlns="http://www.w3.org/2000/svg">
<path d="M399.5 200C399.5 310.182 310.182 399.5 200 399.5C89.8178 399.5 0.5 310.182 0.5 200C0.5 89.8178 89.8178 0.5 200 0.5C310.182 0.5 399.5 89.8178 399.5 200Z" stroke="#285E7E"/>
<path d="M400 200C400 195.459 399.832 190.955 399.536 186.487L304.962 91.9128L95.5898 302.39L193.069 399.869C195.37 399.945 197.68 400 200 400C310.458 400 400 310.458 400 200Z" fill="#002A43"/>
<path d="M95.5898 302.39L201.657 279.187L304.962 91.9128L117.688 195.218L95.5898 302.39Z" fill="#CDD2E1"/>
<path d="M95.5898 302.39L201.657 279.187L304.962 91.9128L95.5898 302.39Z" fill="#BEC3D2"/>
<path d="M304.963 91.9128L65.7598 163.177L137.024 234.439L304.963 91.9128Z" fill="white"/>
<path d="M304.962 91.9128L233.697 331.116L162.436 259.851L304.962 91.9128Z" fill="#E9EDF5"/>
<path d="M95.5898 302.39L137.024 234.439L304.962 91.9128L162.436 259.851L95.5898 302.39Z" fill="#AFB4C8"/>
<path d="M95.5898 302.39L162.436 259.851L304.962 91.9128L95.5898 302.39Z" fill="#9196AA"/>
</svg>
