<svg width="35" height="26" viewBox="0 0 35 26" fill="none" xmlns="http://www.w3.org/2000/svg">
<path d="M11.224 25.608C9.368 25.608 7.77867 25.3093 6.456 24.712C5.13333 24.0933 4.056 23.2613 3.224 22.216C2.41333 21.1707 1.80533 19.9653 1.4 18.6C1.016 17.2133 0.824 15.752 0.824 14.216V12.392C0.824 10.2587 1.19733 8.328 1.944 6.6C2.69067 4.872 3.832 3.496 5.368 2.472C6.904 1.448 8.856 0.935999 11.224 0.935999C13.592 0.935999 15.5333 1.448 17.048 2.472C18.584 3.496 19.7253 4.872 20.472 6.6C21.2187 8.328 21.592 10.2587 21.592 12.392V14.216C21.592 15.752 21.3893 17.2133 20.984 18.6C20.6 19.9653 19.992 21.1707 19.16 22.216C18.3493 23.2613 17.2827 24.0933 15.96 24.712C14.6587 25.3093 13.08 25.608 11.224 25.608ZM11.224 20.776C12.952 20.776 14.232 20.1787 15.064 18.984C15.9173 17.768 16.344 15.8907 16.344 13.352C16.344 10.664 15.9067 8.73333 15.032 7.56C14.1787 6.36533 12.9093 5.768 11.224 5.768C9.496 5.768 8.20533 6.36533 7.352 7.56C6.49867 8.73333 6.072 10.6427 6.072 13.288C6.072 15.848 6.488 17.736 7.32 18.952C8.17333 20.168 9.47467 20.776 11.224 20.776ZM29.0383 25V5.096L30.4463 6.184H24.4622V1.64H34.2543V25H29.0383Z" fill="white"/>
</svg>
