<svg width="225" height="225" viewBox="0 0 225 225" fill="none" xmlns="http://www.w3.org/2000/svg">
<path d="M200.391 193.359V217.969H189.844L182.812 203.906V193.359H200.391Z" fill="#CE892A"/>
<path d="M200.391 193.359V210.938H186.328L182.812 203.906V193.359H200.391Z" fill="#B0792C"/>
<path d="M94.9219 203.906V17.5781C94.9219 14.7809 96.0331 12.0983 98.011 10.1204C99.9889 8.14244 102.672 7.03125 105.469 7.03125H203.906C206.703 7.03125 209.386 8.14244 211.364 10.1204C213.342 12.0983 214.453 14.7809 214.453 17.5781V193.359C214.453 196.157 213.342 198.839 211.364 200.817C209.386 202.795 206.703 203.906 203.906 203.906H94.9219Z" fill="#FFB128"/>
<path d="M151.172 193.359V217.969H140.625L133.594 203.906V193.359H151.172Z" fill="#FFB128"/>
<path d="M151.172 193.359V210.938H137.109L133.594 203.906V193.359H151.172Z" fill="#D7A147"/>
<path d="M63.2812 193.359V203.906L56.25 217.969H45.7031V193.359H63.2812Z" fill="#FFB128"/>
<path d="M63.2812 193.359V203.906L59.7656 210.938H45.7031V193.359H63.2812Z" fill="#D7A147"/>
<path d="M31.6406 175.781V105.469C31.6406 102.672 32.7518 99.9889 34.7297 98.011C36.7077 96.0331 39.3903 94.9219 42.1875 94.9219H154.688C157.485 94.9219 160.167 96.0331 162.145 98.011C164.123 99.9889 165.234 102.672 165.234 105.469V175.781H31.6406Z" fill="white"/>
<path d="M144.14 172.266V155.035C144.14 143.467 153.308 133.79 164.873 133.597C167.658 133.549 170.425 134.054 173.014 135.081C175.602 136.108 177.962 137.638 179.957 139.582C181.951 141.526 183.541 143.846 184.634 146.408C185.728 148.969 186.303 151.722 186.327 154.507C186.35 157.292 185.822 160.054 184.773 162.634C183.724 165.214 182.174 167.561 180.213 169.539C178.252 171.517 175.919 173.087 173.348 174.158C170.777 175.23 168.019 175.781 165.234 175.781V193.359C165.234 196.157 164.123 198.839 162.145 200.817C160.167 202.795 157.484 203.906 154.687 203.906H42.1873C39.3901 203.906 36.7074 202.795 34.7295 200.817C32.7516 198.839 31.6404 196.157 31.6404 193.359V175.781C27.4684 175.781 23.3902 174.544 19.9213 172.226C16.4525 169.909 13.7488 166.614 12.1523 162.76C10.5558 158.905 10.138 154.664 10.952 150.572C11.7659 146.481 13.7748 142.722 16.7249 139.772C19.6749 136.822 23.4334 134.813 27.5252 133.999C31.617 133.185 35.8582 133.603 39.7126 135.199C43.567 136.796 46.8614 139.5 49.1792 142.968C51.497 146.437 52.7341 150.516 52.7341 154.688V172.266C52.7341 172.266 66.7966 165.234 98.4373 165.234C130.078 165.234 144.14 172.266 144.14 172.266Z" fill="white"/>
<path d="M101.953 73.8281H31.6406L35.1562 31.6406H98.4375L101.953 73.8281Z" fill="white"/>
<path d="M31.6406 144.141C29.5547 144.141 27.5155 144.759 25.7811 145.918C24.0467 147.077 22.6949 148.724 21.8966 150.651C21.0983 152.579 20.8895 154.699 21.2964 156.745C21.7034 158.791 22.7079 160.67 24.1829 162.145C25.6579 163.62 27.5371 164.625 29.583 165.032C31.6289 165.439 33.7496 165.23 35.6767 164.432C37.6039 163.633 39.2511 162.281 40.41 160.547C41.5689 158.813 42.1875 156.773 42.1875 154.687C42.1844 151.891 41.0722 149.21 39.0949 147.233C37.1177 145.256 34.4369 144.144 31.6406 144.141V144.141ZM31.6406 158.203C30.9453 158.203 30.2656 157.997 29.6875 157.611C29.1093 157.224 28.6587 156.675 28.3926 156.033C28.1265 155.39 28.0569 154.684 28.1926 154.002C28.3282 153.32 28.663 152.693 29.1547 152.202C29.6464 151.71 30.2728 151.375 30.9548 151.239C31.6367 151.104 32.3436 151.173 32.986 151.439C33.6284 151.706 34.1775 152.156 34.5638 152.734C34.9501 153.312 35.1563 153.992 35.1563 154.687C35.1552 155.62 34.7845 156.513 34.1254 157.172C33.4663 157.831 32.5727 158.202 31.6406 158.203Z" fill="#0B3954"/>
<path d="M165.234 144.141C163.148 144.141 161.109 144.759 159.375 145.918C157.64 147.077 156.289 148.724 155.49 150.651C154.692 152.579 154.483 154.699 154.89 156.745C155.297 158.791 156.302 160.67 157.777 162.145C159.252 163.62 161.131 164.625 163.177 165.032C165.223 165.439 167.343 165.23 169.27 164.432C171.198 163.633 172.845 162.281 174.004 160.547C175.163 158.813 175.781 156.773 175.781 154.687C175.778 151.891 174.666 149.21 172.689 147.233C170.711 145.256 168.031 144.144 165.234 144.141V144.141ZM165.234 158.203C164.539 158.203 163.859 157.997 163.281 157.611C162.703 157.224 162.252 156.675 161.986 156.033C161.72 155.39 161.651 154.684 161.786 154.002C161.922 153.32 162.257 152.693 162.748 152.202C163.24 151.71 163.867 151.375 164.549 151.239C165.23 151.104 165.937 151.173 166.58 151.439C167.222 151.706 167.771 152.156 168.158 152.734C168.544 153.312 168.75 153.992 168.75 154.687C168.749 155.62 168.378 156.513 167.719 157.172C167.06 157.831 166.166 158.202 165.234 158.203Z" fill="#0B3954"/>
<path d="M189.844 154.687C189.844 151.42 189.193 148.186 187.93 145.173C186.667 142.16 184.817 139.429 182.487 137.138C180.157 134.848 177.395 133.044 174.361 131.833C171.327 130.621 168.082 130.026 164.815 130.082C151.477 130.304 140.625 141.498 140.625 155.035V166.845C130.994 164.224 116.948 161.719 98.4374 161.719C79.9263 161.719 65.8805 164.224 56.2499 166.845V154.687C56.2499 151.375 55.5813 148.097 54.2841 145.05C52.987 142.002 51.088 139.248 48.7009 136.951C46.3138 134.655 43.4878 132.865 40.3921 131.687C37.2964 130.509 33.9948 129.968 30.6851 130.097C24.5002 130.357 18.6387 132.931 14.2614 137.308C9.88406 141.686 7.31023 147.547 7.04959 153.732C6.81495 159.81 8.83831 165.76 12.7297 170.435C16.6211 175.11 22.1052 178.179 28.1249 179.05V193.359C28.1291 197.088 29.612 200.662 32.2483 203.298C34.8846 205.935 38.4591 207.418 42.1874 207.422V217.969C42.1874 218.901 42.5578 219.795 43.2171 220.455C43.8764 221.114 44.7706 221.484 45.703 221.484H56.2499C56.9027 221.484 57.5427 221.303 58.098 220.959C58.6534 220.616 59.1022 220.125 59.3942 219.541L65.4538 207.422H131.421L137.481 219.541C137.773 220.125 138.221 220.616 138.777 220.959C139.332 221.303 139.972 221.484 140.625 221.484H151.172C152.104 221.484 152.998 221.114 153.658 220.455C154.317 219.795 154.687 218.901 154.687 217.969V207.422C158.416 207.418 161.99 205.935 164.626 203.298C167.263 200.662 168.746 197.088 168.75 193.359V179.046C174.604 178.193 179.956 175.263 183.829 170.791C187.701 166.319 189.836 160.603 189.844 154.687V154.687ZM54.0772 214.453H49.2186V207.422H57.5929L54.0772 214.453ZM147.656 214.453H142.798L139.282 207.422H147.656V214.453ZM165.234 172.266C164.302 172.266 163.408 172.636 162.748 173.295C162.089 173.955 161.719 174.849 161.719 175.781V193.359C161.716 195.223 160.975 197.011 159.657 198.329C158.339 199.647 156.552 200.388 154.687 200.391H42.1874C40.3233 200.388 38.5361 199.647 37.218 198.329C35.8998 197.011 35.1583 195.223 35.1561 193.359V175.781C35.1561 174.849 34.7857 173.955 34.1264 173.295C33.4671 172.636 32.5729 172.266 31.6405 172.266C29.2742 172.266 26.9322 171.788 24.7549 170.861C22.5776 169.934 20.6099 168.577 18.9697 166.871C17.3295 165.166 16.0506 163.146 15.2096 160.935C14.3687 158.723 13.9829 156.364 14.0756 153.999C14.2619 149.584 16.0996 145.399 19.2248 142.273C22.35 139.148 26.5348 137.311 30.9506 137.124C33.3151 137.031 35.674 137.417 37.886 138.258C40.098 139.098 42.1174 140.377 43.8232 142.017C45.5291 143.657 46.8863 145.625 47.8134 147.802C48.7405 149.979 49.2185 152.321 49.2186 154.687V169.014C43.6767 170.947 40.7644 172.548 40.4639 172.717L43.9035 178.849C44.0849 178.748 62.487 168.75 98.4374 168.75C134.388 168.75 152.79 178.748 152.964 178.846L156.411 172.717C156.11 172.548 153.198 170.945 147.656 169.014V155.035C147.656 145.311 155.406 137.271 164.932 137.112C167.253 137.072 169.559 137.492 171.717 138.347C173.875 139.203 175.842 140.478 177.504 142.098C179.167 143.718 180.492 145.651 181.403 147.786C182.315 149.921 182.794 152.215 182.814 154.537C182.834 156.858 182.394 159.16 181.52 161.31C180.645 163.46 179.353 165.416 177.719 167.065C176.084 168.713 174.14 170.021 171.997 170.914C169.854 171.806 167.556 172.266 165.234 172.266V172.266Z" fill="#0B3954"/>
<path d="M35.1562 105.469C35.1585 103.605 35.9 101.817 37.2181 100.499C38.5362 99.1812 40.3234 98.4397 42.1875 98.4375H154.688C156.552 98.4397 158.339 99.1812 159.657 100.499C160.975 101.817 161.717 103.605 161.719 105.469V123.047H168.75V105.469C168.746 101.74 167.263 98.166 164.627 95.5297C161.99 92.8934 158.416 91.4104 154.688 91.4062H42.1875C38.4592 91.4104 34.8848 92.8934 32.2484 95.5297C29.6121 98.166 28.1292 101.74 28.125 105.469V123.047H35.1562V105.469Z" fill="#0B3954"/>
<path d="M77.3438 112.5H84.375V119.531H77.3438V112.5Z" fill="#0B3954"/>
<path d="M94.9219 130.078H101.953V137.109H94.9219V130.078Z" fill="#0B3954"/>
<path d="M59.7656 130.078H66.7969V137.109H59.7656V130.078Z" fill="#0B3954"/>
<path d="M77.3438 147.656H84.375V154.688H77.3438V147.656Z" fill="#0B3954"/>
<path d="M112.5 112.5H119.531V119.531H112.5V112.5Z" fill="#0B3954"/>
<path d="M130.078 130.078H137.109V137.109H130.078V130.078Z" fill="#0B3954"/>
<path d="M112.5 147.656H119.531V154.688H112.5V147.656Z" fill="#0B3954"/>
<path d="M203.906 3.51562H105.469C101.74 3.51981 98.166 5.00274 95.5297 7.63906C92.8934 10.2754 91.4104 13.8498 91.4062 17.5781V21.0938H98.4375V17.5781C98.4397 15.714 99.1812 13.9269 100.499 12.6087C101.817 11.2906 103.605 10.5491 105.469 10.5469H151.172V84.375H158.203V10.5469H203.906C205.77 10.5491 207.558 11.2906 208.876 12.6087C210.194 13.9269 210.935 15.714 210.938 17.5781V193.359C210.935 195.224 210.194 197.011 208.876 198.329C207.558 199.647 205.77 200.388 203.906 200.391H172.266V207.422H180.64L186.699 219.541C186.991 220.125 187.44 220.616 187.996 220.959C188.551 221.303 189.191 221.484 189.844 221.484H200.391C201.323 221.484 202.217 221.114 202.877 220.455C203.536 219.795 203.906 218.901 203.906 217.969V207.422C207.635 207.418 211.209 205.935 213.845 203.298C216.482 200.662 217.965 197.088 217.969 193.359V17.5781C217.965 13.8498 216.482 10.2754 213.845 7.63906C211.209 5.00274 207.635 3.51981 203.906 3.51562V3.51562ZM196.875 214.453H192.016L188.501 207.422H196.875V214.453Z" fill="#0B3954"/>
<path d="M31.6405 77.3438H63.2811V84.375H70.3124V77.3438H101.953C102.439 77.3437 102.92 77.2428 103.366 77.0474C103.811 76.852 104.211 76.5663 104.54 76.2084C104.869 75.8506 105.121 75.4283 105.278 74.9683C105.436 74.5082 105.497 74.0205 105.456 73.5359L101.941 31.3484C101.867 30.4697 101.467 29.6505 100.818 29.0535C100.169 28.4564 99.3192 28.125 98.4374 28.125H70.3124V21.0938H63.2811V28.125H35.1561C34.2743 28.125 33.4247 28.4564 32.7758 29.0535C32.1269 29.6505 31.7261 30.4697 31.6528 31.3484L28.1372 73.5359C28.0967 74.0205 28.1573 74.5082 28.315 74.9683C28.4727 75.4283 28.7241 75.8506 29.0534 76.2084C29.3827 76.5663 29.7826 76.852 30.2279 77.0474C30.6732 77.2428 31.1542 77.3437 31.6405 77.3438V77.3438ZM38.3909 35.1562H95.2026L98.1324 70.3125H35.4611L38.3909 35.1562Z" fill="#0B3954"/>
</svg>
