<svg xmlns="http://www.w3.org/2000/svg" fill="none" viewBox="0 0 81 74">
  <path fill="#0B3954" fill-rule="evenodd" d="m40.5 19.79-7.19-7.301a14.55 14.55 0 0 0-20.837 0c-5.837 5.926-5.837 15.586 0 21.513L40.5 62.462l28.027-28.46c5.837-5.927 5.837-15.587 0-21.514a14.55 14.55 0 0 0-20.837 0L40.5 19.79Zm0 54.21L6.705 39.682c-8.94-9.078-8.94-23.796 0-32.874a22.64 22.64 0 0 1 31.198-1.113c.4.354.793.726 1.175 1.113L40.5 8.252l1.422-1.444a23.59 23.59 0 0 1 1.175-1.113 22.64 22.64 0 0 1 31.198 1.113c8.94 9.078 8.94 23.796 0 32.874L40.5 74Z" clip-rule="evenodd"/>
</svg>
