<svg xmlns="http://www.w3.org/2000/svg" fill="none" viewBox="0 0 81 85">
  <path fill="#0B3954" fill-rule="evenodd" d="M40 8.076c-6.585 0-11.924 5.339-11.924 11.924H20C20 8.954 28.954 0 40 0s20 8.954 20 20h-8.076c0-6.585-5.339-11.924-11.924-11.924Zm32.905 20.019H8.095V68.81a8.095 8.095 0 0 0 8.095 8.095h48.62a8.095 8.095 0 0 0 8.095-8.096V28.096ZM0 20v48.81C0 77.75 7.249 85 16.19 85h48.62C73.75 85 81 77.751 81 68.81V20H0Z" clip-rule="evenodd"/>
  <path fill="#0B3954" d="M28 40a4 4 0 1 1-8 0 4 4 0 0 1 8 0Zm33 0a4 4 0 1 1-8 0 4 4 0 0 1 8 0Z"/>
</svg>
