<svg width="466" height="40" viewBox="0 0 466 40" fill="none" xmlns="http://www.w3.org/2000/svg">
<path d="M13.6658 1.59229H13.8485C23.3767 23.4158 24.0163 24.6557 24.0163 24.6557C25.3737 27.6708 26.6528 27.71 27.3968 27.7753V28.0755H14.227V27.7753C17.2421 27.7753 14.9841 23.3766 14.9841 23.3766L13.7833 20.7792H6.40869C5.65166 22.5152 6.33038 27.7753 10.8465 27.7753V28.0755H0V27.7753C1.13555 27.6969 3.15866 27.3967 6.05628 20.7792L13.6527 1.59229H13.6658ZM9.86756 11.9819L6.51311 20.4529H13.6266L9.86756 11.9819Z" fill="#0B3954"/>
<path d="M37.0035 27.7754V28.0756H27.5928V27.7754C29.0285 27.3577 29.0546 25.7783 29.0546 23.8205V4.29421C29.0546 2.97593 28.5978 2.45384 27.0576 1.87954V1.57933L35.4503 0V23.8205C35.4503 25.8958 35.633 27.3968 36.9904 27.7754H37.0035Z" fill="#0B3954"/>
<path d="M47.4194 27.7752V28.0754H38.0087V27.7752C39.4444 27.3575 39.4705 25.739 39.4705 23.8203V14.6315C39.4705 13.3132 39.0529 12.7911 37.5127 12.2168V11.9166L45.8662 10.3373V23.8073C45.8662 25.8826 46.0489 27.3836 47.4064 27.7622L47.4194 27.7752ZM38.6874 5.79509C38.6874 3.79808 40.2667 2.21875 42.2637 2.21875C44.2607 2.21875 45.8792 3.79808 45.8792 5.79509C45.8792 7.7921 44.2607 9.37142 42.2637 9.37142C40.2667 9.37142 38.6874 7.7921 38.6874 5.79509V5.79509Z" fill="#0B3954"/>
<path d="M61.2276 26.3917C61.2276 26.3917 59.7918 28.4278 55.4323 28.4278C51.0729 28.4278 48.7365 27.1487 48.7365 27.1487V22.2149H49.0758C49.8329 25.7129 52.9524 28.0885 55.4323 28.0885C58.1081 28.0885 58.7085 24.969 55.85 23.0894L52.0518 20.7922C48.5146 18.4559 47.5748 14.7359 49.872 12.1777C49.872 12.1777 51.2686 10.3765 55.5498 10.3765C59.831 10.3765 61.6844 11.4337 61.6844 11.4337V15.2711H61.345C60.6663 11.8905 57.7295 10.7158 55.5498 10.7158C53.109 10.7158 51.9343 13.1566 55.2104 15.2319L59.0087 17.6075C62.4284 19.6828 63.3029 23.9248 61.2276 26.4178V26.3917Z" fill="#0B3954"/>
<path d="M83.1038 25.6738C82.5817 27.3315 80.6239 28.4148 78.2484 28.4148C78.2484 28.4148 74.0716 28.4148 73.7322 25.0342C73.2363 26.9921 71.3176 28.4148 68.6549 28.4148C67.2191 28.4148 63.9561 27.7752 63.9561 24.5774C63.9561 20.8183 67.0103 20.1005 73.7061 18.5211V16.1065C73.7061 12.1908 71.4872 10.0893 68.8898 11.4337C68.8898 11.4337 68.0675 11.9167 69.3467 12.3735C69.9862 12.5954 70.4039 13.1305 70.7041 13.8092C71.2654 15.2058 70.6258 16.7069 69.2422 17.3073C67.8848 17.8294 66.3446 17.1898 65.7834 15.8454C65.4049 14.8665 65.6006 13.744 66.2402 13.0653C66.697 12.5693 67.3627 11.9036 68.7593 11.1466C70.4561 10.246 72.2965 10.3504 72.2965 10.3504C77.2303 10.3504 79.9713 13.4307 79.9713 17.8816V23.4941C79.9713 23.4941 79.9713 26.209 81.7725 26.1306C81.7725 26.1306 82.7122 26.1306 82.895 25.4911L83.1169 25.6738H83.1038ZM73.6931 18.8997C70.6127 19.5784 70.6388 21.8756 70.6388 23.6376C70.6388 23.6376 70.5997 26.1176 72.1007 26.1176C72.7403 26.1176 73.2624 25.5955 73.68 24.6818V18.8866L73.6931 18.8997Z" fill="#0B3954"/>
<path d="M13.4824 33.7925H15.5316C16.0146 33.7925 16.3931 33.9099 16.6802 34.1449C16.9674 34.3798 17.111 34.667 17.111 35.0324C17.111 35.5676 16.7977 35.92 16.1843 36.1158C16.4975 36.155 16.7586 36.2855 16.9413 36.5074C17.124 36.7293 17.2284 36.9772 17.2284 37.2774C17.2284 37.656 17.0849 37.9562 16.8108 38.1781C16.5367 38.3999 16.1581 38.5044 15.6622 38.5044H13.5085V33.7925H13.4824ZM14.631 34.667V35.6851H15.3881C15.5577 35.6851 15.6883 35.6459 15.7927 35.5545C15.8971 35.4632 15.9493 35.3457 15.9493 35.176C15.9493 35.0063 15.8971 34.8758 15.7927 34.7975C15.6883 34.7061 15.5577 34.667 15.3881 34.667H14.631ZM14.631 37.6299H15.4925C15.6491 37.6299 15.7796 37.5777 15.8841 37.4863C15.9885 37.3949 16.0407 37.2644 16.0407 37.0947C16.0407 36.925 15.9885 36.7945 15.8971 36.7031C15.7927 36.5987 15.6752 36.5596 15.5186 36.5596H14.6441V37.6299H14.631Z" fill="#0B3954"/>
<path d="M21.4958 37.8646C21.026 37.4078 20.791 36.8335 20.791 36.1287C20.791 35.4239 21.026 34.8626 21.4958 34.4058C21.9657 33.9489 22.54 33.7271 23.2057 33.7271C23.8714 33.7271 24.4587 33.9489 24.9156 34.4058C25.3724 34.8626 25.6073 35.4369 25.6073 36.1287C25.6073 36.8205 25.3724 37.4078 24.9156 37.8646C24.4457 38.3215 23.8844 38.5434 23.2057 38.5434C22.527 38.5434 21.9657 38.3215 21.4958 37.8646ZM24.1063 37.1207C24.3282 36.8727 24.4457 36.5464 24.4457 36.1287C24.4457 35.711 24.3282 35.3847 24.1063 35.1498C23.8844 34.9018 23.5842 34.7843 23.2057 34.7843C22.8272 34.7843 22.527 34.9018 22.3051 35.1498C22.0832 35.3977 21.9657 35.7241 21.9657 36.1287C21.9657 36.5333 22.0832 36.8727 22.3051 37.1207C22.527 37.3687 22.8272 37.4861 23.2057 37.4861C23.5842 37.4861 23.8844 37.3687 24.1063 37.1207Z" fill="#0B3954"/>
<path d="M29.4062 36.6114V33.8052H30.5549V36.6114C30.5549 36.8986 30.6201 37.1074 30.7637 37.264C30.9073 37.4207 31.1031 37.4859 31.3771 37.4859C31.6512 37.4859 31.847 37.4076 31.9906 37.264C32.1342 37.1074 32.1994 36.8986 32.1994 36.6114V33.8052H33.3481V36.6114C33.3481 37.0291 33.2567 37.3815 33.0609 37.6817C32.8651 37.9819 32.6171 38.2038 32.3169 38.3474C32.0167 38.491 31.7035 38.5562 31.351 38.5562C30.8028 38.5562 30.346 38.3865 29.9675 38.0472C29.589 37.7078 29.4062 37.2249 29.4062 36.6114V36.6114Z" fill="#0B3954"/>
<path d="M37.0684 34.6665V33.792H40.7883V34.6665H39.4961V38.5039H38.3475V34.6665H37.0684Z" fill="#0B3954"/>
<path d="M44.5332 38.5039V33.792H45.6818V38.5039H44.5332Z" fill="#0B3954"/>
<path d="M51.8951 38.5565C51.2164 38.5565 50.6552 38.3347 50.1853 37.8778C49.7154 37.421 49.4805 36.8467 49.4805 36.1419C49.4805 35.437 49.7154 34.8758 50.1853 34.419C50.6552 33.9621 51.2295 33.7402 51.8951 33.7402C52.5608 33.7402 53.1482 33.9621 53.605 34.419C54.0618 34.8758 54.2968 35.4501 54.2968 36.1419C54.2968 36.5334 54.2185 36.8989 54.0618 37.2252C53.9052 37.5515 53.6833 37.8256 53.4092 38.0475L54.362 39.2875H52.9785L52.4042 38.5043C52.2215 38.5435 52.0518 38.5565 51.8821 38.5565H51.8951ZM50.9815 35.1629C50.7596 35.4109 50.6421 35.7372 50.6421 36.1419C50.6421 36.5465 50.7596 36.8858 50.9815 37.1338C51.2034 37.3818 51.5036 37.4993 51.8821 37.4993C52.2606 37.4993 52.5608 37.3818 52.7827 37.1338C53.0046 36.8858 53.1221 36.5595 53.1221 36.1419C53.1221 35.7242 53.0046 35.3979 52.7827 35.1629C52.5608 34.9149 52.2606 34.7975 51.8821 34.7975C51.5036 34.7975 51.2034 34.9149 50.9815 35.1629Z" fill="#0B3954"/>
<path d="M58.1348 36.6119V33.8057H59.2834V36.6119C59.2834 36.8991 59.3486 37.1079 59.4922 37.2645C59.6358 37.4212 59.8316 37.4864 60.1057 37.4864C60.3798 37.4864 60.5756 37.4081 60.7191 37.2645C60.8627 37.1079 60.928 36.8991 60.928 36.6119V33.8057H62.0766V36.6119C62.0766 37.0296 61.9852 37.382 61.7894 37.6822C61.5936 37.9824 61.3456 38.2043 61.0454 38.3479C60.7452 38.4914 60.432 38.5567 60.0796 38.5567C59.5314 38.5567 59.0745 38.387 58.696 38.0477C58.3175 37.7083 58.1348 37.2254 58.1348 36.6119V36.6119Z" fill="#0B3954"/>
<path d="M68.9675 33.7793V34.6538H67.2707V35.6719H68.7717V36.5464H67.2707V37.6428H68.9675V38.5173H66.1221V33.7924H68.9675V33.7793Z" fill="#0B3954"/>
<path d="M174.402 26.2393V3.21436H180.005V26.2393H174.402Z" fill="#0B3954"/>
<path d="M185.795 23.9108C184.101 22.206 183.259 19.9295 183.259 17.0917C183.259 14.2539 184.101 11.9773 185.795 10.283C187.49 8.58858 189.683 7.74658 192.375 7.74658C194.6 7.74658 196.492 8.29752 198.051 9.39939C199.6 10.5013 200.629 12.0813 201.138 14.1395H195.068C194.548 13.048 193.685 12.4971 192.49 12.4971C191.294 12.4971 190.411 12.9233 189.828 13.7549C189.246 14.5969 188.955 15.7092 188.955 17.0813C188.955 18.4534 189.246 19.5657 189.828 20.4077C190.411 21.2497 191.253 21.6655 192.365 21.6655C193.061 21.6655 193.612 21.5408 194.007 21.3017C194.402 21.0626 194.745 20.6364 195.057 20.0231H201.128C200.629 21.9877 199.589 23.5574 198.009 24.7112C196.44 25.8755 194.558 26.4472 192.365 26.4472C189.673 26.4472 187.479 25.5948 185.785 23.89L185.795 23.9108Z" fill="#0B3954"/>
<path d="M205.411 23.8795C203.561 22.1539 202.636 19.8774 202.636 17.0604C202.636 14.2433 203.551 11.9876 205.39 10.2932C207.23 8.59883 209.496 7.75684 212.21 7.75684C214.923 7.75684 217.189 8.60923 219.018 10.2932C220.848 11.9876 221.752 14.2433 221.752 17.0604C221.752 19.8774 220.848 22.1539 219.029 23.8795C217.21 25.6051 214.954 26.4679 212.241 26.4679C209.528 26.4679 207.251 25.6051 205.401 23.8795H205.411ZM214.933 20.5011C215.671 19.7111 216.045 18.578 216.045 17.0916C216.045 15.6051 215.661 14.472 214.902 13.7028C214.133 12.9232 213.228 12.5385 212.178 12.5385C211.128 12.5385 210.224 12.9232 209.476 13.7028C208.717 14.4824 208.343 15.6155 208.343 17.0916C208.343 18.5676 208.727 19.7111 209.507 20.5011C210.286 21.2911 211.191 21.6862 212.241 21.6862C213.291 21.6862 214.185 21.2911 214.933 20.5011Z" fill="#0B3954"/>
<path d="M230.639 7.94409V10.6364C231.793 8.71332 233.643 7.74658 236.18 7.74658C238.279 7.74658 239.974 8.44304 241.284 9.84637C242.583 11.2497 243.238 13.152 243.238 15.5532V26.2393H237.666V16.3017C237.666 15.1166 237.354 14.2123 236.731 13.5678C236.107 12.9233 235.244 12.6011 234.153 12.6011C233.061 12.6011 232.198 12.9233 231.575 13.5678C230.951 14.2123 230.639 15.127 230.639 16.3017V26.2393H225.036V7.94409H230.639V7.94409Z" fill="#0B3954"/>
<path d="M252.77 5.87545C252.136 6.50954 251.356 6.82139 250.441 6.82139C249.527 6.82139 248.747 6.50954 248.113 5.87545C247.479 5.24135 247.167 4.46173 247.167 3.52618C247.167 2.59062 247.479 1.811 248.113 1.1769C248.747 0.542805 249.527 0.230957 250.441 0.230957C251.356 0.230957 252.136 0.542805 252.77 1.1769C253.404 1.811 253.716 2.59062 253.716 3.52618C253.716 4.46173 253.394 5.24135 252.77 5.87545ZM247.656 26.2393V7.94406H253.258V26.2393H247.656Z" fill="#0B3954"/>
<path d="M259.059 23.9108C257.364 22.206 256.522 19.9295 256.522 17.0917C256.522 14.2539 257.364 11.9773 259.059 10.283C260.753 8.58858 262.947 7.74658 265.639 7.74658C267.863 7.74658 269.755 8.29752 271.315 9.39939C272.863 10.5013 273.893 12.0813 274.402 14.1395H268.331C267.811 13.048 266.949 12.4971 265.753 12.4971C264.558 12.4971 263.674 12.9233 263.092 13.7549C262.51 14.5969 262.219 15.7092 262.219 17.0813C262.219 18.4534 262.51 19.5657 263.092 20.4077C263.674 21.2497 264.516 21.6655 265.628 21.6655C266.325 21.6655 266.876 21.5408 267.271 21.3017C267.666 21.0626 268.009 20.6364 268.321 20.0231H274.391C273.893 21.9877 272.853 23.5574 271.273 24.7112C269.703 25.8755 267.822 26.4472 265.628 26.4472C262.936 26.4472 260.743 25.5948 259.048 23.89L259.059 23.9108Z" fill="#0B3954"/>
<path d="M197.999 34.3472V39.0041H196.866V36.3742L195.785 39.0041H194.943L193.862 36.3742V39.0041H192.729V34.3472H194.028L195.369 37.5592L196.699 34.3472H197.999V34.3472Z" fill="#0B3954"/>
<path d="M204.859 34.3366V35.1994H203.175V36.1973H204.662V37.0601H203.175V38.1411H204.859V39.0039H202.042V34.3262H204.859V34.3366Z" fill="#0B3954"/>
<path d="M211.907 34.3369H213.04V39.0147H211.907L210.005 36.0729V39.0147H208.872V34.3369H210.005L211.907 37.2787V34.3369Z" fill="#0B3954"/>
<path d="M218.654 35.1788C218.508 35.1788 218.394 35.2204 218.3 35.2932C218.207 35.366 218.165 35.4803 218.165 35.6154C218.165 35.7506 218.207 35.8753 218.29 35.9585C218.373 36.0416 218.487 36.1144 218.623 36.156C218.758 36.2079 218.903 36.2495 219.07 36.2911C219.236 36.3327 219.402 36.3847 219.568 36.447C219.735 36.5094 219.88 36.5822 220.015 36.6653C220.151 36.7589 220.265 36.8836 220.348 37.0395C220.431 37.2059 220.473 37.393 220.473 37.6217C220.473 38.0167 220.317 38.3493 219.995 38.63C219.672 38.9106 219.246 39.0562 218.726 39.0562C218.207 39.0562 217.781 38.9314 217.458 38.682C217.136 38.4325 216.98 38.0687 216.98 37.6113H218.186C218.217 37.9855 218.404 38.1726 218.758 38.1726C218.924 38.1726 219.049 38.131 219.142 38.0479C219.236 37.9647 219.277 37.8504 219.277 37.7152C219.277 37.5801 219.236 37.4761 219.153 37.393C219.07 37.3098 218.955 37.2475 218.82 37.1955C218.685 37.1435 218.539 37.1019 218.373 37.0603C218.207 37.0188 218.04 36.9668 217.874 36.9044C217.708 36.842 217.562 36.7693 217.427 36.6861C217.292 36.603 217.178 36.4782 217.094 36.3119C217.011 36.1456 216.97 35.9585 216.97 35.7402C216.97 35.3036 217.136 34.9605 217.458 34.7007C217.781 34.4408 218.196 34.3057 218.695 34.3057C219.194 34.3057 219.6 34.42 219.912 34.6487C220.223 34.8774 220.379 35.2412 220.4 35.7298H219.163C219.142 35.5635 219.09 35.4283 218.997 35.3452C218.903 35.2516 218.789 35.21 218.643 35.21L218.654 35.1788Z" fill="#0B3954"/>
<path d="M229.579 34.3472H230.805L229.506 39.0041H228.207L227.385 36.0519L226.575 39.0041H225.275L223.955 34.3472H225.171L225.982 37.6944L226.814 34.3472H228.103L228.903 37.6424L229.589 34.3472H229.579Z" fill="#0B3954"/>
<path d="M237.209 34.3366V35.1994H235.525V36.1973H237.011V37.0601H235.525V38.1411H237.209V39.0039H234.392V34.3262H237.209V34.3366Z" fill="#0B3954"/>
<path d="M244.184 39.0044L243.924 38.2248H242.251L241.991 39.0044H240.785L242.407 34.3267H243.789L245.401 39.0044H244.184ZM242.542 37.362H243.644L243.093 35.6988L242.542 37.362Z" fill="#0B3954"/>
<path d="M250.13 37.1954V39.0041H248.997V34.3472H250.837C251.378 34.3472 251.793 34.4823 252.095 34.763C252.396 35.0436 252.542 35.3763 252.542 35.7713C252.542 36.0415 252.459 36.3014 252.292 36.5613C252.126 36.8212 251.856 36.9979 251.492 37.1018L252.635 39.0041H251.305L250.255 37.1954H250.12H250.13ZM250.13 35.21V36.3326H250.837C251.014 36.3326 251.149 36.2806 251.242 36.1767C251.346 36.0727 251.388 35.9376 251.388 35.7713C251.388 35.605 251.336 35.4698 251.232 35.3659C251.128 35.2619 250.993 35.21 250.827 35.21H250.12H250.13Z" fill="#0B3954"/>
<g clip-path="url(#clip0_419_2902)">
<path d="M376.062 20.3729C376.062 20.3729 374.942 22.0651 371.371 22.0651C367.356 22.0651 365.804 21.0148 365.804 21.0148V17.047H365.991C366.318 18.4474 368.115 21.89 371.371 21.89C373.588 21.89 374.207 19.1359 371.721 17.3037L368.535 15.2965C365.594 13.4409 364.871 10.9202 366.633 8.71461C366.633 8.71461 367.765 7.13916 371.161 7.13916C374.557 7.13916 376.062 8.08443 376.062 8.08443V11.5621H375.875C375.467 10.08 374.475 7.32588 371.161 7.32588C368.932 7.32588 368.29 9.81158 370.974 11.5621L374.16 13.6743C376.891 15.4715 377.614 18.1206 376.062 20.3729Z" fill="#0B3954"/>
<path d="M378.956 17.2106V9.33341C378.956 8.07305 379.038 7.51289 378.128 7.51289V7.32617H384.045V7.51289C383.158 7.51289 383.193 7.83965 383.193 9.33341V17.3507C383.193 19.7897 384.476 20.8283 386.437 20.8283C388.654 20.8283 389.763 19.2996 389.763 17.3507V11.9825C389.763 10.2903 389.226 7.51289 387.266 7.51289V7.32617H392.68L392.704 7.51289C390.393 7.51289 389.95 10.2787 389.95 11.9825V17.3623C389.95 20.0931 388.129 22.077 384.488 22.077C381.676 22.077 378.945 20.5833 378.945 17.2223L378.956 17.2106Z" fill="#0B3954"/>
<path d="M408.843 7.32617H413.885V7.51289C412.869 7.51289 412.916 7.7813 412.916 9.04166V19.9531C412.916 21.3535 413.079 21.6919 414.095 21.6919V21.8786H407.793V21.6919C408.762 21.6919 408.843 21.3651 408.843 19.9531V7.88633L403.487 22.0653H403.3L396.601 9.62516V16.4054C396.601 19.0778 397.36 21.7036 399.764 21.7036V21.8903H393.311V21.7036C395.528 21.7036 396.415 19.1245 396.415 16.4054V9.31007C395.61 7.88633 394.944 7.5479 394.373 7.51289V7.32617H400.266L405.272 16.8372L408.843 7.32617Z" fill="#0B3954"/>
<path d="M430.118 7.32617H435.159V7.51289C434.144 7.51289 434.191 7.7813 434.191 9.04166V19.9531C434.191 21.3535 434.354 21.6919 435.369 21.6919V21.8786H429.067V21.6919C430.036 21.6919 430.118 21.3651 430.118 19.9531V7.88633L424.761 22.0653H424.574L417.876 9.61349V16.4054C417.876 19.0778 418.634 21.7036 421.038 21.7036V21.8903H414.585V21.7036C416.802 21.7036 417.689 19.1245 417.689 16.4054V9.31007C416.884 7.88633 416.219 7.5479 415.647 7.51289V7.32617H421.54L426.547 16.8372L430.118 7.32617Z" fill="#0B3954"/>
<path d="M448.299 17.8291V21.8786H436.221V21.6919C437.084 21.6919 437.423 20.4549 437.423 19.0428V10.1736C437.423 8.88995 437.131 7.48955 436.221 7.48955V7.32617H448.031V11.5624H447.844C447.844 7.53623 442.196 7.51289 442.196 7.51289H441.449V14.4332H443.129C443.129 14.4332 445.347 14.4915 445.568 11.9942H445.755V17.0589H445.568C445.335 14.5732 443.153 14.6199 443.129 14.6199H441.449V21.6919H442.196C442.196 21.6919 448.112 21.9136 448.112 17.8291H448.299V17.8291Z" fill="#0B3954"/>
<path d="M465.687 21.6919V21.8786H461.568C460.097 21.8786 459.642 20.945 459.152 17.1056C458.884 15.04 456.398 15.1567 456.398 15.1567H455.429V19.5446C455.429 21.5752 455.511 21.6919 456.386 21.6919V21.8786H450.201V21.6919C451.088 21.6919 451.275 21.6452 451.275 19.5446V9.33341C451.275 8.04971 451.111 7.48955 450.201 7.48955V7.32617H456.071C460.191 7.32617 463.89 7.82798 463.89 11.2706C463.89 14.3748 461.043 15.0167 459.047 15.0167C461.428 15.0167 462.63 15.5302 463.633 19.2529C464.042 20.8283 465.139 21.6569 465.676 21.6919H465.687ZM459.024 11.2706C459.024 7.32617 458.487 7.51289 456.071 7.51289H455.429V14.9817H456.071C458.755 14.9817 459.024 15.0284 459.024 11.2823V11.2706Z" fill="#0B3954"/>
<path d="M388.572 28.752H389.389V32.1129H388.572V30.7242H387.277V32.1129H386.46V28.752H387.277V30.094H388.572V28.752Z" fill="#0B3954"/>
<path d="M394.64 32.1129L394.453 31.5527H393.251L393.065 32.1129H392.189L393.356 28.7402H394.348L395.515 32.1129H394.64ZM393.45 30.9225H394.243L393.847 29.7205L393.45 30.9225Z" fill="#0B3954"/>
<path d="M398.316 32.1129V28.752H399.133V32.1129H398.316Z" fill="#0B3954"/>
<path d="M403.078 30.8059V32.1129H402.261V28.752H403.591C403.976 28.752 404.28 28.857 404.501 29.0554C404.723 29.2538 404.828 29.4988 404.828 29.7789C404.828 29.9773 404.77 30.164 404.653 30.3507C404.536 30.5375 404.338 30.6658 404.07 30.7475L404.898 32.1129H403.941L403.183 30.8059H403.089H403.078ZM403.078 29.3705V30.1757H403.591C403.719 30.1757 403.813 30.1407 403.883 30.059C403.953 29.989 403.988 29.8956 403.988 29.7672C403.988 29.6389 403.953 29.5455 403.883 29.4755C403.813 29.3938 403.708 29.3588 403.591 29.3588H403.078V29.3705Z" fill="#0B3954"/>
<path d="M412.869 28.752C413.406 28.752 413.849 28.9037 414.188 29.2188C414.538 29.5338 414.701 29.9306 414.701 30.4324C414.701 30.9342 414.526 31.331 414.188 31.6461C413.838 31.9612 413.406 32.1129 412.869 32.1129H411.69V28.752H412.869V28.752ZM412.507 31.4944H412.869C413.184 31.4944 413.429 31.401 413.604 31.2026C413.779 31.0159 413.873 30.7475 413.873 30.4324C413.873 30.1173 413.779 29.8489 413.604 29.6622C413.429 29.4755 413.184 29.3705 412.869 29.3705H412.507V31.4827V31.4944Z" fill="#0B3954"/>
<path d="M419.661 28.7402V29.3587H418.448V30.0822H419.521V30.7007H418.448V31.4826H419.661V32.1011H417.619V28.7285H419.661V28.7402Z" fill="#0B3954"/>
<path d="M423.897 29.347C423.792 29.347 423.711 29.3704 423.641 29.4287C423.571 29.4871 423.547 29.5571 423.547 29.6621C423.547 29.7671 423.582 29.8488 423.641 29.9072C423.699 29.9655 423.781 30.0122 423.874 30.0472C423.967 30.0822 424.084 30.1172 424.201 30.1406C424.317 30.1756 424.434 30.2106 424.563 30.2573C424.679 30.304 424.784 30.3506 424.889 30.4207C424.983 30.479 425.064 30.5724 425.123 30.6891C425.181 30.8058 425.216 30.9458 425.216 31.1092C425.216 31.3893 425.099 31.6343 424.866 31.8444C424.633 32.0428 424.329 32.1478 423.956 32.1478C423.582 32.1478 423.267 32.0545 423.045 31.8794C422.812 31.6927 422.695 31.4359 422.695 31.0975H423.571C423.594 31.3659 423.734 31.506 423.979 31.506C424.096 31.506 424.189 31.471 424.259 31.4126C424.329 31.3543 424.364 31.2726 424.364 31.1792C424.364 31.0859 424.329 31.0042 424.271 30.9458C424.212 30.8875 424.131 30.8408 424.037 30.8058C423.944 30.7708 423.827 30.7358 423.711 30.7124C423.594 30.6774 423.477 30.6424 423.349 30.5957C423.232 30.549 423.127 30.5024 423.022 30.4323C422.929 30.374 422.847 30.2806 422.789 30.1639C422.73 30.0472 422.695 29.9072 422.695 29.7555C422.695 29.4404 422.812 29.1953 423.045 29.0086C423.279 28.8219 423.571 28.7285 423.944 28.7285C424.317 28.7285 424.598 28.8102 424.819 28.9736C425.041 29.137 425.158 29.3937 425.169 29.7555H424.282C424.271 29.6388 424.236 29.5454 424.166 29.4754C424.096 29.4054 424.014 29.382 423.909 29.382L423.897 29.347Z" fill="#0B3954"/>
<path d="M428.262 32.1129V28.752H429.079V32.1129H428.262Z" fill="#0B3954"/>
<path d="M432.498 31.6575C432.159 31.3308 431.996 30.9223 431.996 30.4205C431.996 29.9187 432.159 29.5103 432.498 29.1835C432.836 28.8567 433.245 28.6934 433.723 28.6934C434.097 28.6934 434.435 28.7984 434.715 28.9968C435.007 29.1952 435.205 29.4752 435.322 29.8253H434.342C434.213 29.5803 434.015 29.4519 433.723 29.4519C433.431 29.4519 433.221 29.5336 433.058 29.7203C432.895 29.8954 432.813 30.1288 432.813 30.4205C432.813 30.7123 432.895 30.9457 433.058 31.1207C433.221 31.2958 433.431 31.3891 433.712 31.3891C433.91 31.3891 434.062 31.3424 434.19 31.2491C434.318 31.1557 434.4 31.0157 434.435 30.864H433.49V30.2455H435.322V30.864C435.264 31.1674 435.089 31.4591 434.82 31.7276C434.692 31.8559 434.528 31.961 434.33 32.0426C434.132 32.1243 433.933 32.1593 433.712 32.1593C433.233 32.1593 432.825 31.996 432.486 31.6692L432.498 31.6575Z" fill="#0B3954"/>
<path d="M440.433 28.7402H441.25V32.1129H440.433L439.068 29.9889V32.1129H438.251V28.7402H439.068L440.433 30.8642V28.7402Z" fill="#0B3954"/>
</g>
<defs>
<clipPath id="clip0_419_2902">
<rect width="100" height="25.0088" fill="white" transform="translate(365.688 7.13916)"/>
</clipPath>
</defs>
</svg>
