<svg width="72" height="72" viewBox="0 0 72 72" fill="none" xmlns="http://www.w3.org/2000/svg">
<path d="M9 49.6944H7.65V51.0444H9V49.6944ZM63 49.6944V51.0444H64.35V49.6944H63ZM10.35 49.6944V46.0075H7.65V49.6944H10.35ZM20.4655 35.892H51.5344V33.192H20.4655V35.892ZM61.65 46.0075V49.6944H64.35V46.0075H61.65ZM63 48.3444H9V51.0444H63V48.3444ZM51.5344 35.892C57.1211 35.892 61.65 40.4209 61.65 46.0075H64.35C64.35 38.9297 58.6123 33.192 51.5344 33.192V35.892ZM10.35 46.0075C10.35 40.4209 14.8789 35.892 20.4655 35.892V33.192C13.3877 33.192 7.65 38.9297 7.65 46.0075H10.35Z" fill="white"/>
<path d="M30.087 26.6576H41.9123V23.9576H30.087V26.6576ZM46.2951 31.0404V32.9781H48.9951V31.0404H46.2951ZM25.7042 32.9781V31.0404H23.0042V32.9781H25.7042ZM41.9123 26.6576C44.3329 26.6576 46.2951 28.6199 46.2951 31.0404H48.9951C48.9951 27.1287 45.824 23.9576 41.9123 23.9576V26.6576ZM30.087 23.9576C26.1753 23.9576 23.0042 27.1287 23.0042 31.0404H25.7042C25.7042 28.6199 27.6665 26.6576 30.087 26.6576V23.9576Z" fill="white"/>
<path d="M15.786 36.117V21.3607H13.086V36.117H15.786ZM20.1688 16.9779H51.8308V14.2779H20.1688V16.9779ZM56.2136 21.3607V35.4773H58.9136V21.3607H56.2136ZM51.8308 16.9779C54.2514 16.9779 56.2136 18.9402 56.2136 21.3607H58.9136C58.9136 17.449 55.7425 14.2779 51.8308 14.2779V16.9779ZM15.786 21.3607C15.786 18.9402 17.7483 16.9779 20.1688 16.9779V14.2779C16.2571 14.2779 13.086 17.449 13.086 21.3607H15.786Z" fill="white"/>
<line x1="15.5292" y1="51.0443" x2="15.5292" y2="55.02" stroke="white" stroke-width="2.7" stroke-linecap="round"/>
<line x1="56.5299" y1="51.0443" x2="56.5299" y2="55.02" stroke="white" stroke-width="2.7" stroke-linecap="round"/>
</svg>
