<svg width="1920" height="619" viewBox="0 0 1920 619" fill="none" xmlns="http://www.w3.org/2000/svg">
<path d="M1706.77 242.826C1696.39 242.808 1686.12 244.916 1676.58 249.02C1667.04 253.123 1658.44 259.135 1651.31 266.687V186.979C1651.28 163.126 1641.79 140.259 1624.94 123.392C1608.08 106.525 1585.22 97.0339 1561.39 97H1336.64C1312.8 97.0255 1289.94 106.514 1273.08 123.382C1256.22 140.251 1246.74 163.123 1246.71 186.979V266.735C1236.23 255.628 1222.65 247.925 1207.74 244.624C1192.84 241.323 1177.28 242.576 1163.09 248.22C1148.9 253.864 1136.73 263.64 1128.16 276.282C1119.58 288.924 1115 303.85 1115 319.128C1115 419.283 1176.72 505.288 1264.1 541.071L1273.1 619H1294.6L1308.63 554.348C1323.74 557.297 1339.09 558.778 1354.49 558.771H1543.54C1558.93 558.778 1574.29 557.297 1589.4 554.348L1603.43 619H1624.93L1633.9 541.047C1721.28 505.288 1783 419.259 1783 319.104C1782.97 298.884 1774.93 279.501 1760.64 265.203C1746.35 250.904 1726.98 242.858 1706.77 242.826ZM1543.54 538.403H1354.49C1233.65 538.403 1135.33 440.027 1135.33 319.128C1135.34 304.853 1140.81 291.123 1150.61 280.75C1160.41 270.377 1173.81 264.146 1188.05 263.333C1202.29 262.52 1216.31 267.186 1227.22 276.376C1238.14 285.567 1245.13 298.585 1246.77 312.766C1247.03 314.877 1247.16 317.001 1247.17 319.128C1247.17 378.331 1295.31 426.494 1354.47 426.494H1448.96C1450.32 426.532 1451.68 426.297 1452.94 425.803C1454.21 425.309 1455.36 424.566 1456.34 423.618C1457.31 422.67 1458.09 421.535 1458.62 420.282C1459.15 419.029 1459.42 417.683 1459.42 416.322C1459.42 414.962 1459.15 413.615 1458.62 412.362C1458.09 411.109 1457.31 409.975 1456.34 409.027C1455.36 408.078 1454.21 407.335 1452.94 406.841C1451.68 406.347 1450.32 406.112 1448.96 406.151H1354.47C1331.42 406.112 1309.32 396.931 1293.02 380.62C1276.72 364.308 1267.54 342.195 1267.51 319.128C1267.51 316.424 1267.36 313.722 1267.05 311.035V186.979C1267.07 168.518 1274.41 150.818 1287.45 137.763C1300.5 124.708 1318.19 117.365 1336.64 117.343H1561.39C1579.84 117.363 1597.53 124.705 1610.58 137.76C1623.62 150.816 1630.96 168.517 1630.98 186.979V310.931C1630.67 313.65 1630.52 316.384 1630.52 319.12C1630.49 338.251 1624.17 356.842 1612.55 372.027C1600.92 387.213 1584.62 398.151 1566.17 403.154C1565.99 403.2 1565.82 403.267 1565.65 403.354C1565.51 403.366 1565.37 403.401 1565.24 403.458C1530.07 416.583 1477.71 368.204 1411.22 306.869C1399.52 295.98 1390.84 286.317 1383.92 276.502C1377.46 267.296 1373.29 259.107 1370.95 250.814C1368.16 241.095 1368.26 232.506 1371.26 224.469C1374.92 214.646 1380.36 207.643 1387.98 203.252C1397.03 198.02 1406.64 197.155 1417.52 200.713C1424.04 202.886 1429.93 206.643 1434.65 211.649C1436.26 213.252 1437.86 214.959 1439.46 216.585L1448.46 225.839L1457.05 217.907C1458.33 216.737 1459.54 215.664 1460.71 214.446C1465.52 209.31 1469.46 206.057 1473.57 203.813C1484.25 198.068 1494.46 197.099 1504.8 200.761C1511.57 203.164 1517.11 207.627 1521.73 214.494C1527.27 222.739 1529.67 231.32 1528.94 240.694C1528.48 247.353 1526.5 254.123 1522.99 261.527C1518.72 270.477 1512.87 279.074 1504.57 288.641C1497.44 296.834 1489.76 304.533 1481.59 311.684C1479.74 313.515 1478.66 315.986 1478.57 318.59C1478.48 321.193 1479.4 323.73 1481.12 325.68C1482.85 327.63 1485.26 328.843 1487.85 329.072C1490.44 329.3 1493.02 328.526 1495.06 326.908C1503.87 319.141 1512.16 310.815 1519.89 301.981C1529.29 291.149 1536.31 280.772 1541.29 270.244C1545.91 260.581 1548.5 251.423 1549.17 242.201C1550.24 228.359 1546.51 214.572 1538.61 203.156C1531.54 192.676 1522.44 185.401 1511.57 181.523C1495.71 175.914 1479.69 177.404 1463.93 185.898C1458.44 188.924 1453.42 192.745 1449.04 197.235C1442.03 189.991 1433.39 184.548 1423.83 181.371C1407.4 175.978 1391.9 177.453 1377.77 185.641C1366.08 192.46 1357.48 203.14 1352.2 217.378C1347.72 229.437 1347.47 242.561 1351.4 256.391C1354.45 266.919 1359.49 277.047 1367.31 288.184C1375.13 299.321 1384.6 309.817 1397.61 321.956C1461.67 381.064 1510.36 426.029 1552.66 426.029C1559.06 426.064 1565.42 424.965 1571.44 422.784C1571.55 422.775 1571.65 422.742 1571.75 422.688C1571.95 422.632 1572.16 422.536 1572.36 422.48C1594.92 416.193 1614.81 402.684 1628.98 384.019C1643.16 365.355 1650.83 342.56 1650.83 319.12C1650.92 304.303 1656.84 290.118 1667.31 279.644C1677.79 269.17 1691.97 263.253 1706.77 263.177C1721.6 263.186 1735.82 269.083 1746.3 279.574C1756.79 290.065 1762.68 304.291 1762.69 319.128C1762.69 440.027 1664.37 538.403 1543.54 538.403Z" fill="white"/>
</svg>
