<svg xmlns="http://www.w3.org/2000/svg" fill="none" viewBox="0 0 81 81">
  <path fill="#0B3954" fill-rule="evenodd" d="M41 41.905c9.336 0 16.905-7.569 16.905-16.905 0-9.336-7.569-16.905-16.905-16.905-9.336 0-16.905 7.569-16.905 16.905 0 9.336 7.569 16.905 16.905 16.905ZM41 50c13.807 0 25-11.193 25-25S54.807 0 41 0 16 11.193 16 25s11.193 25 25 25Z" clip-rule="evenodd"/>
  <path fill="#0B3954" fill-rule="evenodd" d="M40.5 50.085c-18.064 0-32.414 14-32.414 30.915H0c0-21.697 18.294-39 40.5-39S81 59.303 81 81h-8.086c0-16.915-14.35-30.915-32.414-30.915Z" clip-rule="evenodd"/>
</svg>
