<svg width="43" height="26" viewBox="0 0 43 26" fill="none" xmlns="http://www.w3.org/2000/svg">
<path d="M11.224 25.608C9.368 25.608 7.77867 25.3093 6.456 24.712C5.13333 24.0933 4.056 23.2613 3.224 22.216C2.41333 21.1707 1.80533 19.9653 1.4 18.6C1.016 17.2133 0.824 15.752 0.824 14.216V12.392C0.824 10.2587 1.19733 8.328 1.944 6.6C2.69067 4.872 3.832 3.496 5.368 2.472C6.904 1.448 8.856 0.935999 11.224 0.935999C13.592 0.935999 15.5333 1.448 17.048 2.472C18.584 3.496 19.7253 4.872 20.472 6.6C21.2187 8.328 21.592 10.2587 21.592 12.392V14.216C21.592 15.752 21.3893 17.2133 20.984 18.6C20.6 19.9653 19.992 21.1707 19.16 22.216C18.3493 23.2613 17.2827 24.0933 15.96 24.712C14.6587 25.3093 13.08 25.608 11.224 25.608ZM11.224 20.776C12.952 20.776 14.232 20.1787 15.064 18.984C15.9173 17.768 16.344 15.8907 16.344 13.352C16.344 10.664 15.9067 8.73333 15.032 7.56C14.1787 6.36533 12.9093 5.768 11.224 5.768C9.496 5.768 8.20533 6.36533 7.352 7.56C6.49867 8.73333 6.072 10.6427 6.072 13.288C6.072 15.848 6.488 17.736 7.32 18.952C8.17333 20.168 9.47467 20.776 11.224 20.776ZM33.3263 25.608C31.5129 25.608 29.9343 25.2773 28.5903 24.616C27.2676 23.9333 26.2543 23.016 25.5503 21.864C24.8463 20.712 24.4943 19.4107 24.4943 17.96H29.5503C29.5503 18.9413 29.8809 19.7413 30.5423 20.36C31.2036 20.9573 32.1316 21.256 33.3263 21.256C34.1156 21.256 34.7876 21.1067 35.3423 20.808C35.8969 20.5093 36.3236 20.104 36.6223 19.592C36.9209 19.0587 37.0703 18.4613 37.0703 17.8C37.0703 16.776 36.7396 15.9333 36.0783 15.272C35.4383 14.6107 34.5209 14.28 33.3263 14.28C32.6863 14.28 32.1209 14.376 31.6302 14.568C31.1609 14.76 30.7556 14.9947 30.4143 15.272L28.0463 11.272L35.1183 6.664L34.8303 6.12H25.4543V1.64H41.1983V6.504L33.0383 11.688L30.4783 10.984C30.9049 10.856 31.3529 10.76 31.8223 10.696C32.3129 10.6107 32.8356 10.568 33.3903 10.568C35.2036 10.568 36.7609 10.8667 38.0623 11.464C39.3636 12.0613 40.3663 12.904 41.0703 13.992C41.7956 15.0587 42.1583 16.3067 42.1583 17.736V18.12C42.1583 19.5493 41.7956 20.8293 41.0703 21.96C40.3663 23.0907 39.3529 23.9867 38.0303 24.648C36.7289 25.288 35.1609 25.608 33.3263 25.608Z" fill="white"/>
</svg>
